<mxfile host="app.diagrams.net" agent="Mozilla/5.0 (Windows NT 10.0; Win64; x64) AppleWebKit/537.36 (KHTML, like Gecko) Chrome/130.0.0.0 Safari/537.36 Edg/130.0.0.0" version="24.8.6" pages="6">
  <diagram id="1vbvvDwagzAua4ewiFmY" name="Page-2">
    <mxGraphModel dx="954" dy="647" grid="1" gridSize="10" guides="1" tooltips="1" connect="1" arrows="1" fold="1" page="1" pageScale="1" pageWidth="850" pageHeight="1100" math="0" shadow="0">
      <root>
        <mxCell id="0" />
        <mxCell id="1" parent="0" />
        <mxCell id="pf3tDOQDEe7M2gLQ07NN-12" value="" style="rounded=0;whiteSpace=wrap;html=1;" vertex="1" parent="1">
          <mxGeometry x="30" y="390" width="790" height="390" as="geometry" />
        </mxCell>
        <mxCell id="pf3tDOQDEe7M2gLQ07NN-11" value="" style="rounded=0;whiteSpace=wrap;html=1;" vertex="1" parent="1">
          <mxGeometry x="30" width="790" height="390" as="geometry" />
        </mxCell>
        <mxCell id="PNWSuZbZAS1e485UPwzZ-1" value="" style="endArrow=none;html=1;rounded=0;" edge="1" parent="1" source="PNWSuZbZAS1e485UPwzZ-2">
          <mxGeometry width="50" height="50" relative="1" as="geometry">
            <mxPoint x="120" y="360" as="sourcePoint" />
            <mxPoint x="750" y="360" as="targetPoint" />
          </mxGeometry>
        </mxCell>
        <mxCell id="PNWSuZbZAS1e485UPwzZ-3" value="" style="endArrow=none;html=1;rounded=0;" edge="1" parent="1" target="PNWSuZbZAS1e485UPwzZ-2">
          <mxGeometry width="50" height="50" relative="1" as="geometry">
            <mxPoint x="120" y="360" as="sourcePoint" />
            <mxPoint x="750" y="360" as="targetPoint" />
          </mxGeometry>
        </mxCell>
        <mxCell id="PNWSuZbZAS1e485UPwzZ-2" value="" style="rounded=0;whiteSpace=wrap;html=1;fillStyle=hatch;strokeWidth=3;fillColor=#f5f5f5;fontColor=#333333;strokeColor=#666666;" vertex="1" parent="1">
          <mxGeometry x="35" y="360" width="780" height="30" as="geometry" />
        </mxCell>
        <mxCell id="PNWSuZbZAS1e485UPwzZ-5" value="" style="curved=1;endArrow=classic;html=1;rounded=0;fillColor=#008a00;strokeColor=#005700;" edge="1" parent="1">
          <mxGeometry width="50" height="50" relative="1" as="geometry">
            <mxPoint x="164" y="351" as="sourcePoint" />
            <mxPoint x="224" y="201" as="targetPoint" />
            <Array as="points">
              <mxPoint x="184" y="341" />
              <mxPoint x="224" y="271" />
            </Array>
          </mxGeometry>
        </mxCell>
        <mxCell id="PNWSuZbZAS1e485UPwzZ-7" value="" style="curved=1;endArrow=classic;html=1;rounded=0;fillColor=#008a00;strokeColor=#005700;" edge="1" parent="1">
          <mxGeometry width="50" height="50" relative="1" as="geometry">
            <mxPoint x="304" y="351" as="sourcePoint" />
            <mxPoint x="244" y="201" as="targetPoint" />
            <Array as="points">
              <mxPoint x="284" y="341" />
              <mxPoint x="244" y="271" />
            </Array>
          </mxGeometry>
        </mxCell>
        <mxCell id="PNWSuZbZAS1e485UPwzZ-8" value="" style="curved=1;endArrow=classic;html=1;rounded=0;fillColor=#e51400;strokeColor=#B20000;" edge="1" parent="1">
          <mxGeometry width="50" height="50" relative="1" as="geometry">
            <mxPoint x="494" y="201" as="sourcePoint" />
            <mxPoint x="434" y="351" as="targetPoint" />
            <Array as="points">
              <mxPoint x="494" y="271" />
              <mxPoint x="454" y="341" />
            </Array>
          </mxGeometry>
        </mxCell>
        <mxCell id="PNWSuZbZAS1e485UPwzZ-9" value="" style="curved=1;endArrow=classic;html=1;rounded=0;fillColor=#e51400;strokeColor=#B20000;" edge="1" parent="1">
          <mxGeometry width="50" height="50" relative="1" as="geometry">
            <mxPoint x="514" y="201" as="sourcePoint" />
            <mxPoint x="574" y="351" as="targetPoint" />
            <Array as="points">
              <mxPoint x="514" y="271" />
              <mxPoint x="554" y="341" />
            </Array>
          </mxGeometry>
        </mxCell>
        <mxCell id="PNWSuZbZAS1e485UPwzZ-11" value="" style="verticalLabelPosition=bottom;verticalAlign=top;html=1;shape=mxgraph.basic.4_point_star_2;dx=0.8;fillStyle=solid;fillColor=#000000;" vertex="1" parent="1">
          <mxGeometry x="54" y="191" width="20" height="20" as="geometry" />
        </mxCell>
        <mxCell id="PNWSuZbZAS1e485UPwzZ-12" value="" style="verticalLabelPosition=bottom;verticalAlign=top;html=1;shape=mxgraph.basic.4_point_star_2;dx=0.8;fillColor=#000000;" vertex="1" parent="1">
          <mxGeometry x="494" y="266" width="20" height="20" as="geometry" />
        </mxCell>
        <mxCell id="PNWSuZbZAS1e485UPwzZ-14" value="" style="ellipse;whiteSpace=wrap;html=1;aspect=fixed;fillColor=#0050ef;fontColor=#ffffff;strokeColor=#001DBC;" vertex="1" parent="1">
          <mxGeometry x="617" y="105" width="26" height="26" as="geometry" />
        </mxCell>
        <mxCell id="PNWSuZbZAS1e485UPwzZ-16" value="" style="endArrow=none;dashed=1;html=1;dashPattern=1 3;strokeWidth=2;rounded=0;curved=1;entryX=0;entryY=1;entryDx=0;entryDy=0;" edge="1" parent="1">
          <mxGeometry width="50" height="50" relative="1" as="geometry">
            <mxPoint x="734" y="341" as="sourcePoint" />
            <mxPoint x="615.0044660940675" y="123.99553390593266" as="targetPoint" />
            <Array as="points">
              <mxPoint x="544" y="311" />
              <mxPoint x="504" y="273" />
              <mxPoint x="484" y="251" />
              <mxPoint x="434" y="251" />
              <mxPoint x="164" y="214" />
              <mxPoint x="294" y="244" />
              <mxPoint x="164" y="244" />
              <mxPoint x="294" y="264" />
              <mxPoint x="192.54" y="273.46000000000004" />
              <mxPoint x="43.54" y="225.46" />
              <mxPoint x="93.54" y="185.46" />
              <mxPoint x="344" y="171" />
            </Array>
          </mxGeometry>
        </mxCell>
        <mxCell id="PNWSuZbZAS1e485UPwzZ-19" value="" style="ellipse;whiteSpace=wrap;html=1;aspect=fixed;fillColor=#6a00ff;fontColor=#ffffff;strokeColor=#3700CC;" vertex="1" parent="1">
          <mxGeometry x="730" y="329" width="31" height="31" as="geometry" />
        </mxCell>
        <mxCell id="PNWSuZbZAS1e485UPwzZ-27" value="" style="group" vertex="1" connectable="0" parent="1">
          <mxGeometry x="90" y="20" width="200" height="120" as="geometry" />
        </mxCell>
        <mxCell id="PNWSuZbZAS1e485UPwzZ-20" value="Legend" style="swimlane;fontStyle=0;childLayout=stackLayout;horizontal=1;startSize=30;horizontalStack=0;resizeParent=1;resizeParentMax=0;resizeLast=0;collapsible=1;marginBottom=0;whiteSpace=wrap;html=1;" vertex="1" parent="PNWSuZbZAS1e485UPwzZ-27">
          <mxGeometry width="200" height="120" as="geometry" />
        </mxCell>
        <mxCell id="PNWSuZbZAS1e485UPwzZ-21" value="Initial Point" style="text;strokeColor=none;fillColor=none;align=left;verticalAlign=middle;spacingLeft=4;spacingRight=4;overflow=hidden;points=[[0,0.5],[1,0.5]];portConstraint=eastwest;rotatable=0;whiteSpace=wrap;html=1;" vertex="1" parent="PNWSuZbZAS1e485UPwzZ-20">
          <mxGeometry y="30" width="200" height="30" as="geometry" />
        </mxCell>
        <mxCell id="PNWSuZbZAS1e485UPwzZ-22" value="Points of Interest" style="text;strokeColor=none;fillColor=none;align=left;verticalAlign=middle;spacingLeft=4;spacingRight=4;overflow=hidden;points=[[0,0.5],[1,0.5]];portConstraint=eastwest;rotatable=0;whiteSpace=wrap;html=1;" vertex="1" parent="PNWSuZbZAS1e485UPwzZ-20">
          <mxGeometry y="60" width="200" height="30" as="geometry" />
        </mxCell>
        <mxCell id="PNWSuZbZAS1e485UPwzZ-23" value="Recovery Point" style="text;strokeColor=none;fillColor=none;align=left;verticalAlign=middle;spacingLeft=4;spacingRight=4;overflow=hidden;points=[[0,0.5],[1,0.5]];portConstraint=eastwest;rotatable=0;whiteSpace=wrap;html=1;" vertex="1" parent="PNWSuZbZAS1e485UPwzZ-20">
          <mxGeometry y="90" width="200" height="30" as="geometry" />
        </mxCell>
        <mxCell id="PNWSuZbZAS1e485UPwzZ-24" value="" style="ellipse;whiteSpace=wrap;html=1;aspect=fixed;fillColor=#0050ef;fontColor=#ffffff;strokeColor=#001DBC;" vertex="1" parent="PNWSuZbZAS1e485UPwzZ-27">
          <mxGeometry x="168" y="35" width="20" height="20" as="geometry" />
        </mxCell>
        <mxCell id="PNWSuZbZAS1e485UPwzZ-25" value="" style="ellipse;whiteSpace=wrap;html=1;aspect=fixed;fillColor=#6a00ff;fontColor=#ffffff;strokeColor=#3700CC;" vertex="1" parent="PNWSuZbZAS1e485UPwzZ-27">
          <mxGeometry x="168" y="91" width="20" height="20" as="geometry" />
        </mxCell>
        <mxCell id="PNWSuZbZAS1e485UPwzZ-26" value="" style="verticalLabelPosition=bottom;verticalAlign=top;html=1;shape=mxgraph.basic.4_point_star_2;dx=0.8;fillColor=#000000;" vertex="1" parent="PNWSuZbZAS1e485UPwzZ-27">
          <mxGeometry x="168" y="63" width="20" height="20" as="geometry" />
        </mxCell>
        <mxCell id="pf3tDOQDEe7M2gLQ07NN-1" value="" style="ellipse;whiteSpace=wrap;html=1;aspect=fixed;fillColor=#66FF66;strokeColor=#005700;gradientDirection=radial;fontColor=#ffffff;gradientColor=#006600;" vertex="1" parent="1">
          <mxGeometry x="190" y="480" width="150" height="150" as="geometry" />
        </mxCell>
        <mxCell id="pf3tDOQDEe7M2gLQ07NN-2" value="" style="ellipse;whiteSpace=wrap;html=1;aspect=fixed;fillColor=#FFCCCC;strokeColor=#B20000;gradientDirection=radial;fontColor=#ffffff;gradientColor=default;" vertex="1" parent="1">
          <mxGeometry x="493" y="547" width="150" height="150" as="geometry" />
        </mxCell>
        <mxCell id="pf3tDOQDEe7M2gLQ07NN-3" value="" style="ellipse;whiteSpace=wrap;html=1;aspect=fixed;fillColor=#6a00ff;strokeColor=#3700CC;gradientDirection=radial;fontColor=#ffffff;" vertex="1" parent="1">
          <mxGeometry x="410" y="460" width="30" height="30" as="geometry" />
        </mxCell>
        <mxCell id="pf3tDOQDEe7M2gLQ07NN-4" value="" style="ellipse;whiteSpace=wrap;html=1;aspect=fixed;fillColor=#0050ef;strokeColor=#001DBC;gradientDirection=radial;fontColor=#ffffff;" vertex="1" parent="1">
          <mxGeometry x="740" y="600" width="30" height="30" as="geometry" />
        </mxCell>
        <mxCell id="pf3tDOQDEe7M2gLQ07NN-5" value="" style="endArrow=none;dashed=1;html=1;dashPattern=1 3;strokeWidth=2;rounded=0;entryX=0;entryY=0.5;entryDx=0;entryDy=0;curved=1;exitX=0;exitY=0.5;exitDx=0;exitDy=0;" edge="1" parent="1" source="pf3tDOQDEe7M2gLQ07NN-4" target="pf3tDOQDEe7M2gLQ07NN-3">
          <mxGeometry width="50" height="50" relative="1" as="geometry">
            <mxPoint x="590" y="640" as="sourcePoint" />
            <mxPoint x="410" y="490" as="targetPoint" />
            <Array as="points">
              <mxPoint x="710" y="570" />
              <mxPoint x="560" y="650" />
              <mxPoint x="380" y="540" />
              <mxPoint x="240" y="520" />
              <mxPoint x="210" y="570" />
              <mxPoint x="240" y="600" />
              <mxPoint x="300" y="610" />
              <mxPoint x="340" y="550" />
              <mxPoint x="220" y="540" />
              <mxPoint x="110" y="560" />
              <mxPoint x="50" y="560" />
              <mxPoint x="60" y="530" />
              <mxPoint x="220" y="520" />
            </Array>
          </mxGeometry>
        </mxCell>
        <mxCell id="pf3tDOQDEe7M2gLQ07NN-6" value="" style="verticalLabelPosition=bottom;verticalAlign=top;html=1;shape=mxgraph.basic.4_point_star_2;dx=0.8;fillColor=#000000;" vertex="1" parent="1">
          <mxGeometry x="54" y="517" width="30" height="30" as="geometry" />
        </mxCell>
        <mxCell id="pf3tDOQDEe7M2gLQ07NN-7" value="" style="verticalLabelPosition=bottom;verticalAlign=top;html=1;shape=mxgraph.basic.4_point_star_2;dx=0.8;fillColor=#000000;" vertex="1" parent="1">
          <mxGeometry x="553" y="609" width="30" height="30" as="geometry" />
        </mxCell>
        <mxCell id="pf3tDOQDEe7M2gLQ07NN-21" value="" style="group" vertex="1" connectable="0" parent="1">
          <mxGeometry x="39" y="666" width="100" height="109" as="geometry" />
        </mxCell>
        <mxCell id="pf3tDOQDEe7M2gLQ07NN-14" value="E" style="text;html=1;align=center;verticalAlign=middle;resizable=0;points=[];autosize=1;strokeColor=none;fillColor=none;fontStyle=1" vertex="1" parent="pf3tDOQDEe7M2gLQ07NN-21">
          <mxGeometry x="70" y="64" width="30" height="30" as="geometry" />
        </mxCell>
        <mxCell id="pf3tDOQDEe7M2gLQ07NN-16" value="" style="group" vertex="1" connectable="0" parent="pf3tDOQDEe7M2gLQ07NN-21">
          <mxGeometry x="20" y="29" width="50" height="50" as="geometry" />
        </mxCell>
        <mxCell id="pf3tDOQDEe7M2gLQ07NN-13" value="" style="endArrow=classic;html=1;rounded=0;" edge="1" parent="pf3tDOQDEe7M2gLQ07NN-16">
          <mxGeometry width="50" height="50" relative="1" as="geometry">
            <mxPoint y="50" as="sourcePoint" />
            <mxPoint x="50" y="50" as="targetPoint" />
          </mxGeometry>
        </mxCell>
        <mxCell id="pf3tDOQDEe7M2gLQ07NN-15" value="" style="endArrow=classic;html=1;rounded=0;" edge="1" parent="pf3tDOQDEe7M2gLQ07NN-16">
          <mxGeometry width="50" height="50" relative="1" as="geometry">
            <mxPoint y="50" as="sourcePoint" />
            <mxPoint as="targetPoint" />
          </mxGeometry>
        </mxCell>
        <mxCell id="pf3tDOQDEe7M2gLQ07NN-17" value="N" style="text;html=1;align=center;verticalAlign=middle;resizable=0;points=[];autosize=1;strokeColor=none;fillColor=none;fontStyle=1" vertex="1" parent="pf3tDOQDEe7M2gLQ07NN-21">
          <mxGeometry x="4" width="30" height="30" as="geometry" />
        </mxCell>
        <mxCell id="pf3tDOQDEe7M2gLQ07NN-18" value="" style="ellipse;whiteSpace=wrap;html=1;aspect=fixed;" vertex="1" parent="pf3tDOQDEe7M2gLQ07NN-21">
          <mxGeometry x="15" y="73" width="10" height="10" as="geometry" />
        </mxCell>
        <mxCell id="pf3tDOQDEe7M2gLQ07NN-19" value="U" style="text;html=1;align=center;verticalAlign=middle;resizable=0;points=[];autosize=1;strokeColor=none;fillColor=none;fontStyle=1" vertex="1" parent="pf3tDOQDEe7M2gLQ07NN-21">
          <mxGeometry y="79" width="30" height="30" as="geometry" />
        </mxCell>
        <mxCell id="pf3tDOQDEe7M2gLQ07NN-22" value="" style="group" vertex="1" connectable="0" parent="1">
          <mxGeometry x="42" y="254" width="100" height="109" as="geometry" />
        </mxCell>
        <mxCell id="pf3tDOQDEe7M2gLQ07NN-23" value="E" style="text;html=1;align=center;verticalAlign=middle;resizable=0;points=[];autosize=1;strokeColor=none;fillColor=none;fontStyle=1" vertex="1" parent="pf3tDOQDEe7M2gLQ07NN-22">
          <mxGeometry x="70" y="64" width="30" height="30" as="geometry" />
        </mxCell>
        <mxCell id="pf3tDOQDEe7M2gLQ07NN-24" value="" style="group" vertex="1" connectable="0" parent="pf3tDOQDEe7M2gLQ07NN-22">
          <mxGeometry x="20" y="29" width="50" height="50" as="geometry" />
        </mxCell>
        <mxCell id="pf3tDOQDEe7M2gLQ07NN-25" value="" style="endArrow=classic;html=1;rounded=0;" edge="1" parent="pf3tDOQDEe7M2gLQ07NN-24">
          <mxGeometry width="50" height="50" relative="1" as="geometry">
            <mxPoint y="50" as="sourcePoint" />
            <mxPoint x="50" y="50" as="targetPoint" />
          </mxGeometry>
        </mxCell>
        <mxCell id="pf3tDOQDEe7M2gLQ07NN-26" value="" style="endArrow=classic;html=1;rounded=0;" edge="1" parent="pf3tDOQDEe7M2gLQ07NN-24">
          <mxGeometry width="50" height="50" relative="1" as="geometry">
            <mxPoint y="50" as="sourcePoint" />
            <mxPoint as="targetPoint" />
          </mxGeometry>
        </mxCell>
        <mxCell id="pf3tDOQDEe7M2gLQ07NN-27" value="U" style="text;html=1;align=center;verticalAlign=middle;resizable=0;points=[];autosize=1;strokeColor=none;fillColor=none;fontStyle=1" vertex="1" parent="pf3tDOQDEe7M2gLQ07NN-22">
          <mxGeometry x="4" width="30" height="30" as="geometry" />
        </mxCell>
        <mxCell id="pf3tDOQDEe7M2gLQ07NN-28" value="" style="ellipse;whiteSpace=wrap;html=1;aspect=fixed;" vertex="1" parent="pf3tDOQDEe7M2gLQ07NN-22">
          <mxGeometry x="15" y="73" width="10" height="10" as="geometry" />
        </mxCell>
        <mxCell id="pf3tDOQDEe7M2gLQ07NN-29" value="&amp;nbsp;N" style="text;html=1;align=center;verticalAlign=middle;resizable=0;points=[];autosize=1;strokeColor=none;fillColor=none;fontStyle=1" vertex="1" parent="pf3tDOQDEe7M2gLQ07NN-22">
          <mxGeometry x="-5" y="79" width="40" height="30" as="geometry" />
        </mxCell>
      </root>
    </mxGraphModel>
  </diagram>
  <diagram name="Page-1" id="vtBNkUw73utS-tMbHcp_">
    <mxGraphModel dx="1804" dy="647" grid="1" gridSize="10" guides="1" tooltips="1" connect="1" arrows="1" fold="1" page="1" pageScale="1" pageWidth="850" pageHeight="1100" math="0" shadow="0">
      <root>
        <mxCell id="0" />
        <mxCell id="1" parent="0" />
        <mxCell id="y7Z2IOX0TTAvd9jJDkdh-3" value="" style="ellipse;whiteSpace=wrap;html=1;aspect=fixed;fillColor=#66FF66;strokeColor=#005700;gradientDirection=radial;fontColor=#ffffff;gradientColor=#006600;" vertex="1" parent="1">
          <mxGeometry x="50" y="150" width="150" height="150" as="geometry" />
        </mxCell>
        <mxCell id="y7Z2IOX0TTAvd9jJDkdh-11" value="" style="ellipse;whiteSpace=wrap;html=1;aspect=fixed;fillColor=#FFCCCC;strokeColor=#B20000;gradientDirection=radial;fontColor=#ffffff;gradientColor=default;" vertex="1" parent="1">
          <mxGeometry x="470" y="160" width="150" height="150" as="geometry" />
        </mxCell>
        <mxCell id="w5Qb2thrbvRFifTIw_G6-1" value="" style="ellipse;whiteSpace=wrap;html=1;aspect=fixed;fillColor=#6a00ff;strokeColor=#3700CC;gradientDirection=radial;fontColor=#ffffff;" vertex="1" parent="1">
          <mxGeometry x="270" y="130" width="30" height="30" as="geometry" />
        </mxCell>
        <mxCell id="w5Qb2thrbvRFifTIw_G6-2" value="" style="ellipse;whiteSpace=wrap;html=1;aspect=fixed;fillColor=#0050ef;strokeColor=#001DBC;gradientDirection=radial;fontColor=#ffffff;" vertex="1" parent="1">
          <mxGeometry x="700" y="260" width="30" height="30" as="geometry" />
        </mxCell>
        <mxCell id="w5Qb2thrbvRFifTIw_G6-3" value="" style="endArrow=none;dashed=1;html=1;dashPattern=1 3;strokeWidth=2;rounded=0;entryX=0;entryY=0.5;entryDx=0;entryDy=0;curved=1;exitX=1;exitY=0.5;exitDx=0;exitDy=0;" edge="1" parent="1" source="w5Qb2thrbvRFifTIw_G6-2" target="w5Qb2thrbvRFifTIw_G6-1">
          <mxGeometry width="50" height="50" relative="1" as="geometry">
            <mxPoint x="450" y="310" as="sourcePoint" />
            <mxPoint x="270" y="160" as="targetPoint" />
            <Array as="points">
              <mxPoint x="630" y="220" />
              <mxPoint x="410" y="250" />
              <mxPoint x="240" y="210" />
              <mxPoint x="100" y="190" />
              <mxPoint x="70" y="240" />
              <mxPoint x="100" y="270" />
              <mxPoint x="160" y="280" />
              <mxPoint x="200" y="220" />
              <mxPoint x="80" y="210" />
              <mxPoint x="-30" y="230" />
              <mxPoint x="-130" y="220" />
              <mxPoint x="-130" y="200" />
              <mxPoint x="80" y="190" />
            </Array>
          </mxGeometry>
        </mxCell>
        <mxCell id="w5Qb2thrbvRFifTIw_G6-4" value="" style="verticalLabelPosition=bottom;verticalAlign=top;html=1;shape=mxgraph.basic.4_point_star_2;dx=0.8;fillColor=#000000;" vertex="1" parent="1">
          <mxGeometry x="-129" y="189" width="30" height="30" as="geometry" />
        </mxCell>
        <mxCell id="w5Qb2thrbvRFifTIw_G6-8" value="" style="verticalLabelPosition=bottom;verticalAlign=top;html=1;shape=mxgraph.basic.4_point_star_2;dx=0.8;fillColor=#000000;" vertex="1" parent="1">
          <mxGeometry x="533" y="217" width="30" height="30" as="geometry" />
        </mxCell>
      </root>
    </mxGraphModel>
  </diagram>
  <diagram id="HOF2fBVy8-OrROXEukhj" name="Page-3">
    <mxGraphModel dx="1426" dy="901" grid="1" gridSize="10" guides="1" tooltips="1" connect="1" arrows="1" fold="1" page="1" pageScale="1" pageWidth="850" pageHeight="1100" math="0" shadow="0">
      <root>
        <mxCell id="0" />
        <mxCell id="1" parent="0" />
        <mxCell id="3rGGmU6fyzcX8iBBzUZM-1" value="" style="endArrow=none;html=1;rounded=0;" edge="1" parent="1" source="3rGGmU6fyzcX8iBBzUZM-3">
          <mxGeometry width="50" height="50" relative="1" as="geometry">
            <mxPoint x="120" y="360" as="sourcePoint" />
            <mxPoint x="750" y="360" as="targetPoint" />
          </mxGeometry>
        </mxCell>
        <mxCell id="3rGGmU6fyzcX8iBBzUZM-2" value="" style="endArrow=none;html=1;rounded=0;" edge="1" parent="1" target="3rGGmU6fyzcX8iBBzUZM-3">
          <mxGeometry width="50" height="50" relative="1" as="geometry">
            <mxPoint x="120" y="360" as="sourcePoint" />
            <mxPoint x="750" y="360" as="targetPoint" />
          </mxGeometry>
        </mxCell>
        <mxCell id="3rGGmU6fyzcX8iBBzUZM-3" value="" style="rounded=0;whiteSpace=wrap;html=1;fillStyle=hatch;strokeWidth=3;fillColor=#f5f5f5;fontColor=#333333;strokeColor=#666666;" vertex="1" parent="1">
          <mxGeometry x="35" y="360" width="780" height="30" as="geometry" />
        </mxCell>
        <mxCell id="3rGGmU6fyzcX8iBBzUZM-4" value="" style="curved=1;endArrow=classic;html=1;rounded=0;fillColor=#008a00;strokeColor=#005700;" edge="1" parent="1">
          <mxGeometry width="50" height="50" relative="1" as="geometry">
            <mxPoint x="164" y="351" as="sourcePoint" />
            <mxPoint x="224" y="201" as="targetPoint" />
            <Array as="points">
              <mxPoint x="184" y="341" />
              <mxPoint x="224" y="271" />
            </Array>
          </mxGeometry>
        </mxCell>
        <mxCell id="3rGGmU6fyzcX8iBBzUZM-5" value="" style="curved=1;endArrow=classic;html=1;rounded=0;fillColor=#008a00;strokeColor=#005700;" edge="1" parent="1">
          <mxGeometry width="50" height="50" relative="1" as="geometry">
            <mxPoint x="304" y="351" as="sourcePoint" />
            <mxPoint x="244" y="201" as="targetPoint" />
            <Array as="points">
              <mxPoint x="284" y="341" />
              <mxPoint x="244" y="271" />
            </Array>
          </mxGeometry>
        </mxCell>
        <mxCell id="3rGGmU6fyzcX8iBBzUZM-6" value="" style="curved=1;endArrow=classic;html=1;rounded=0;fillColor=#e51400;strokeColor=#B20000;" edge="1" parent="1">
          <mxGeometry width="50" height="50" relative="1" as="geometry">
            <mxPoint x="494" y="201" as="sourcePoint" />
            <mxPoint x="434" y="351" as="targetPoint" />
            <Array as="points">
              <mxPoint x="494" y="271" />
              <mxPoint x="454" y="341" />
            </Array>
          </mxGeometry>
        </mxCell>
        <mxCell id="3rGGmU6fyzcX8iBBzUZM-7" value="" style="curved=1;endArrow=classic;html=1;rounded=0;fillColor=#e51400;strokeColor=#B20000;" edge="1" parent="1">
          <mxGeometry width="50" height="50" relative="1" as="geometry">
            <mxPoint x="514" y="201" as="sourcePoint" />
            <mxPoint x="574" y="351" as="targetPoint" />
            <Array as="points">
              <mxPoint x="514" y="271" />
              <mxPoint x="554" y="341" />
            </Array>
          </mxGeometry>
        </mxCell>
        <mxCell id="3rGGmU6fyzcX8iBBzUZM-8" value="" style="verticalLabelPosition=bottom;verticalAlign=top;html=1;shape=mxgraph.basic.4_point_star_2;dx=0.8;fillStyle=solid;fillColor=#000000;" vertex="1" parent="1">
          <mxGeometry x="54" y="191" width="20" height="20" as="geometry" />
        </mxCell>
        <mxCell id="3rGGmU6fyzcX8iBBzUZM-9" value="" style="verticalLabelPosition=bottom;verticalAlign=top;html=1;shape=mxgraph.basic.4_point_star_2;dx=0.8;fillColor=#000000;" vertex="1" parent="1">
          <mxGeometry x="494" y="266" width="20" height="20" as="geometry" />
        </mxCell>
        <mxCell id="3rGGmU6fyzcX8iBBzUZM-10" value="" style="ellipse;whiteSpace=wrap;html=1;aspect=fixed;fillColor=#0050ef;fontColor=#ffffff;strokeColor=#001DBC;" vertex="1" parent="1">
          <mxGeometry x="617" y="105" width="26" height="26" as="geometry" />
        </mxCell>
        <mxCell id="3rGGmU6fyzcX8iBBzUZM-11" value="" style="endArrow=none;dashed=1;html=1;dashPattern=1 3;strokeWidth=2;rounded=0;curved=1;entryX=0;entryY=1;entryDx=0;entryDy=0;" edge="1" parent="1">
          <mxGeometry width="50" height="50" relative="1" as="geometry">
            <mxPoint x="734" y="341" as="sourcePoint" />
            <mxPoint x="615.0044660940675" y="123.99553390593266" as="targetPoint" />
            <Array as="points">
              <mxPoint x="544" y="311" />
              <mxPoint x="504" y="273" />
              <mxPoint x="484" y="251" />
              <mxPoint x="434" y="251" />
              <mxPoint x="164" y="214" />
              <mxPoint x="294" y="244" />
              <mxPoint x="164" y="244" />
              <mxPoint x="294" y="264" />
              <mxPoint x="192.54" y="273.46000000000004" />
              <mxPoint x="43.54" y="225.46" />
              <mxPoint x="93.54" y="185.46" />
              <mxPoint x="344" y="171" />
            </Array>
          </mxGeometry>
        </mxCell>
        <mxCell id="3rGGmU6fyzcX8iBBzUZM-12" value="" style="ellipse;whiteSpace=wrap;html=1;aspect=fixed;fillColor=#6a00ff;fontColor=#ffffff;strokeColor=#3700CC;" vertex="1" parent="1">
          <mxGeometry x="730" y="329" width="31" height="31" as="geometry" />
        </mxCell>
        <mxCell id="3rGGmU6fyzcX8iBBzUZM-13" value="" style="group" vertex="1" connectable="0" parent="1">
          <mxGeometry x="90" y="20" width="200" height="120" as="geometry" />
        </mxCell>
        <mxCell id="3rGGmU6fyzcX8iBBzUZM-14" value="Legend" style="swimlane;fontStyle=0;childLayout=stackLayout;horizontal=1;startSize=30;horizontalStack=0;resizeParent=1;resizeParentMax=0;resizeLast=0;collapsible=1;marginBottom=0;whiteSpace=wrap;html=1;" vertex="1" parent="3rGGmU6fyzcX8iBBzUZM-13">
          <mxGeometry width="200" height="120" as="geometry" />
        </mxCell>
        <mxCell id="3rGGmU6fyzcX8iBBzUZM-15" value="Initial Point" style="text;strokeColor=none;fillColor=none;align=left;verticalAlign=middle;spacingLeft=4;spacingRight=4;overflow=hidden;points=[[0,0.5],[1,0.5]];portConstraint=eastwest;rotatable=0;whiteSpace=wrap;html=1;" vertex="1" parent="3rGGmU6fyzcX8iBBzUZM-14">
          <mxGeometry y="30" width="200" height="30" as="geometry" />
        </mxCell>
        <mxCell id="3rGGmU6fyzcX8iBBzUZM-16" value="Points of Interest" style="text;strokeColor=none;fillColor=none;align=left;verticalAlign=middle;spacingLeft=4;spacingRight=4;overflow=hidden;points=[[0,0.5],[1,0.5]];portConstraint=eastwest;rotatable=0;whiteSpace=wrap;html=1;" vertex="1" parent="3rGGmU6fyzcX8iBBzUZM-14">
          <mxGeometry y="60" width="200" height="30" as="geometry" />
        </mxCell>
        <mxCell id="3rGGmU6fyzcX8iBBzUZM-17" value="Recovery Point" style="text;strokeColor=none;fillColor=none;align=left;verticalAlign=middle;spacingLeft=4;spacingRight=4;overflow=hidden;points=[[0,0.5],[1,0.5]];portConstraint=eastwest;rotatable=0;whiteSpace=wrap;html=1;" vertex="1" parent="3rGGmU6fyzcX8iBBzUZM-14">
          <mxGeometry y="90" width="200" height="30" as="geometry" />
        </mxCell>
        <mxCell id="3rGGmU6fyzcX8iBBzUZM-18" value="" style="ellipse;whiteSpace=wrap;html=1;aspect=fixed;fillColor=#0050ef;fontColor=#ffffff;strokeColor=#001DBC;" vertex="1" parent="3rGGmU6fyzcX8iBBzUZM-13">
          <mxGeometry x="168" y="35" width="20" height="20" as="geometry" />
        </mxCell>
        <mxCell id="3rGGmU6fyzcX8iBBzUZM-19" value="" style="ellipse;whiteSpace=wrap;html=1;aspect=fixed;fillColor=#6a00ff;fontColor=#ffffff;strokeColor=#3700CC;" vertex="1" parent="3rGGmU6fyzcX8iBBzUZM-13">
          <mxGeometry x="168" y="91" width="20" height="20" as="geometry" />
        </mxCell>
        <mxCell id="3rGGmU6fyzcX8iBBzUZM-20" value="" style="verticalLabelPosition=bottom;verticalAlign=top;html=1;shape=mxgraph.basic.4_point_star_2;dx=0.8;fillColor=#000000;" vertex="1" parent="3rGGmU6fyzcX8iBBzUZM-13">
          <mxGeometry x="168" y="63" width="20" height="20" as="geometry" />
        </mxCell>
        <mxCell id="3rGGmU6fyzcX8iBBzUZM-21" value="" style="group" vertex="1" connectable="0" parent="1">
          <mxGeometry x="42" y="254" width="100" height="109" as="geometry" />
        </mxCell>
        <mxCell id="3rGGmU6fyzcX8iBBzUZM-22" value="E" style="text;html=1;align=center;verticalAlign=middle;resizable=0;points=[];autosize=1;strokeColor=none;fillColor=none;fontStyle=1" vertex="1" parent="3rGGmU6fyzcX8iBBzUZM-21">
          <mxGeometry x="70" y="64" width="30" height="30" as="geometry" />
        </mxCell>
        <mxCell id="3rGGmU6fyzcX8iBBzUZM-23" value="" style="group" vertex="1" connectable="0" parent="3rGGmU6fyzcX8iBBzUZM-21">
          <mxGeometry x="20" y="29" width="50" height="50" as="geometry" />
        </mxCell>
        <mxCell id="3rGGmU6fyzcX8iBBzUZM-24" value="" style="endArrow=classic;html=1;rounded=0;" edge="1" parent="3rGGmU6fyzcX8iBBzUZM-23">
          <mxGeometry width="50" height="50" relative="1" as="geometry">
            <mxPoint y="50" as="sourcePoint" />
            <mxPoint x="50" y="50" as="targetPoint" />
          </mxGeometry>
        </mxCell>
        <mxCell id="3rGGmU6fyzcX8iBBzUZM-25" value="" style="endArrow=classic;html=1;rounded=0;" edge="1" parent="3rGGmU6fyzcX8iBBzUZM-23">
          <mxGeometry width="50" height="50" relative="1" as="geometry">
            <mxPoint y="50" as="sourcePoint" />
            <mxPoint as="targetPoint" />
          </mxGeometry>
        </mxCell>
        <mxCell id="3rGGmU6fyzcX8iBBzUZM-26" value="U" style="text;html=1;align=center;verticalAlign=middle;resizable=0;points=[];autosize=1;strokeColor=none;fillColor=none;fontStyle=1" vertex="1" parent="3rGGmU6fyzcX8iBBzUZM-21">
          <mxGeometry x="4" width="30" height="30" as="geometry" />
        </mxCell>
        <mxCell id="3rGGmU6fyzcX8iBBzUZM-27" value="" style="ellipse;whiteSpace=wrap;html=1;aspect=fixed;" vertex="1" parent="3rGGmU6fyzcX8iBBzUZM-21">
          <mxGeometry x="15" y="73" width="10" height="10" as="geometry" />
        </mxCell>
        <mxCell id="3rGGmU6fyzcX8iBBzUZM-28" value="&amp;nbsp;N" style="text;html=1;align=center;verticalAlign=middle;resizable=0;points=[];autosize=1;strokeColor=none;fillColor=none;fontStyle=1" vertex="1" parent="3rGGmU6fyzcX8iBBzUZM-21">
          <mxGeometry x="-5" y="79" width="40" height="30" as="geometry" />
        </mxCell>
      </root>
    </mxGraphModel>
  </diagram>
  <diagram id="iZIRx-UFcTl8s2oUAa2B" name="Page-4">
    <mxGraphModel dx="2038" dy="1851" grid="1" gridSize="10" guides="1" tooltips="1" connect="1" arrows="1" fold="1" page="1" pageScale="1" pageWidth="850" pageHeight="1100" math="0" shadow="0">
      <root>
        <mxCell id="0" />
        <mxCell id="1" parent="0" />
        <mxCell id="LDmraFHmYrCIgjqawgsa-16" value="" style="shape=image;verticalLabelPosition=bottom;labelBackgroundColor=default;verticalAlign=top;aspect=fixed;imageAspect=0;image=https://journals.ametsoc.org/view/journals/bams/98/1/full-bams-d-15-00073.1-f3.jpg;movable=0;resizable=0;rotatable=0;deletable=0;editable=0;locked=1;connectable=0;" vertex="1" parent="1">
          <mxGeometry x="-60" y="-40" width="1024" height="745" as="geometry" />
        </mxCell>
        <mxCell id="LDmraFHmYrCIgjqawgsa-1" value="" style="ellipse;whiteSpace=wrap;html=1;aspect=fixed;gradientColor=#CCCCCC;gradientDirection=north;" vertex="1" parent="1">
          <mxGeometry x="740" y="-30" width="110" height="110" as="geometry" />
        </mxCell>
        <mxCell id="LDmraFHmYrCIgjqawgsa-8" value="" style="group" vertex="1" connectable="0" parent="1">
          <mxGeometry x="740" y="150" width="108" height="70" as="geometry" />
        </mxCell>
        <mxCell id="LDmraFHmYrCIgjqawgsa-5" value="" style="rounded=0;whiteSpace=wrap;html=1;direction=south;" vertex="1" parent="LDmraFHmYrCIgjqawgsa-8">
          <mxGeometry x="51.5" width="5" height="70" as="geometry" />
        </mxCell>
        <mxCell id="LDmraFHmYrCIgjqawgsa-3" value="" style="triangle;whiteSpace=wrap;html=1;direction=south;" vertex="1" parent="LDmraFHmYrCIgjqawgsa-8">
          <mxGeometry y="30" width="108" height="10" as="geometry" />
        </mxCell>
        <mxCell id="LDmraFHmYrCIgjqawgsa-7" value="" style="rounded=0;whiteSpace=wrap;html=1;" vertex="1" parent="LDmraFHmYrCIgjqawgsa-8">
          <mxGeometry x="29" width="50" height="10" as="geometry" />
        </mxCell>
        <mxCell id="LDmraFHmYrCIgjqawgsa-9" value="" style="curved=1;endArrow=none;html=1;rounded=0;exitX=0.5;exitY=0;exitDx=0;exitDy=0;entryX=0.5;entryY=1;entryDx=0;entryDy=0;endFill=0;" edge="1" parent="1" source="LDmraFHmYrCIgjqawgsa-7" target="LDmraFHmYrCIgjqawgsa-1">
          <mxGeometry width="50" height="50" relative="1" as="geometry">
            <mxPoint x="740" y="100" as="sourcePoint" />
            <mxPoint x="790" y="50" as="targetPoint" />
            <Array as="points">
              <mxPoint x="790" y="110" />
            </Array>
          </mxGeometry>
        </mxCell>
        <mxCell id="LDmraFHmYrCIgjqawgsa-11" value="" style="curved=1;endArrow=classic;html=1;rounded=0;strokeWidth=4;dashed=1;" edge="1" parent="1">
          <mxGeometry width="50" height="50" relative="1" as="geometry">
            <mxPoint x="795" y="229" as="sourcePoint" />
            <mxPoint x="90" y="460" as="targetPoint" />
            <Array as="points">
              <mxPoint x="795" y="349" />
              <mxPoint x="590" y="340" />
              <mxPoint x="545" y="349" />
              <mxPoint x="470" y="370" />
              <mxPoint x="330" y="440" />
              <mxPoint x="190" y="390" />
            </Array>
          </mxGeometry>
        </mxCell>
        <mxCell id="LDmraFHmYrCIgjqawgsa-18" value="" style="endArrow=none;dashed=1;html=1;dashPattern=1 3;strokeWidth=4;rounded=0;entryX=0.914;entryY=-0.033;entryDx=0;entryDy=0;entryPerimeter=0;strokeColor=#FFFFFF;curved=1;" edge="1" parent="1" target="LDmraFHmYrCIgjqawgsa-5">
          <mxGeometry width="50" height="50" relative="1" as="geometry">
            <mxPoint x="910" y="620" as="sourcePoint" />
            <mxPoint x="670" y="230" as="targetPoint" />
            <Array as="points">
              <mxPoint x="860" y="400" />
            </Array>
          </mxGeometry>
        </mxCell>
      </root>
    </mxGraphModel>
  </diagram>
  <diagram id="c844nnO3Jrr_9CQdxIw4" name="Page-5">
    <mxGraphModel dx="1678" dy="1060" grid="1" gridSize="10" guides="1" tooltips="1" connect="1" arrows="1" fold="1" page="1" pageScale="1" pageWidth="850" pageHeight="1100" math="0" shadow="0">
      <root>
        <mxCell id="0" />
        <mxCell id="1" parent="0" />
        <mxCell id="YcAVcyQIOcI5A6jQ5RJq-1" value="" style="shape=image;verticalLabelPosition=bottom;labelBackgroundColor=default;verticalAlign=top;aspect=fixed;imageAspect=0;image=data:image/jpeg,/9j/4AAQSkZJRgABAQECWAJYAAD/2wBDAAMCAgMCAgMDAwMEAwMEBQgFBQQEBQoHBwYIDAoMDAsKCwsNDhIQDQ4RDgsLEBYQERMUFRUVDA8XGBYUGBIUFRT/wAALCAJABAABAREA/8QAHQAAAQUBAQEBAAAAAAAAAAAAAwACBAUGAQcICf/EAFAQAAEDAgQDBAcGAwYDBwEIAwEAAgMEEQUSITEGQVETImFxBxQyQoGRoRUjUrHB0WJy4QgWM0OC8FOS8RckNESDk9JjJUVUc5SissI1dIT/2gAIAQEAAD8A+dHRkC9tky5Ce2Uiy6JLm2llJ7HQHRPbGLaprYLPuiPhDmHRAia5pI5I+Swvuo0wBUSWzb2KiuflOnd8FwvOXU6JzJTuCi5nPFwbLmaztTf8k9tQAUUVAItcLvaApzTrobJGctNwV01sgsA8hWVJi1TGwfeEqU/GpZiM2qIzPN3gDqntY+JwcQrqirI3tAdobdFIqIY5IrixWcxBgYHZRZUjnnNfN8EGSR3IoLr2uV0XdYKyoJjTxlp5oVZHnGYclVyssT0/JRnDKuMl/CUZk1zY6KQ14sFx7roErrmyBJKG2CfGO0bcI9O50crdSOa01HVMlYGuNijPeGC4cuQ4g1xDTunSvDwbKnqT95qh9iMugVTW0rmSFwCZQEtqmh+x01Wuw6gZNI1jQCSvXfR3g+ailbl1Y5bduC2GrUybC8ota6qa7DsrTposLj2CNeS7LY+Sx9bhxpnXAsgtnezc3K66rdt9FDmqibqtqHPfexVRVROJ11UVrSHW+YXcmtxoiNiB0spkFE1zeYPNTWU7IwLm9lYsxWVkAij0VbXdpILuJvzVNVOcW2Kh5nA6HRSqWJ0rwdSVYVtSIaLsz7R5L07+z/wwMUfJO9uazt19Gnh+OJgaG7BQ6jCWWIsFVVGDhubu6KrmhEBNgmRQFwFwpQobnZAlwzNsFGkwjQi1+qocVwm7jpss9U0IbcELL41hwc5oA53VRLhThrl0VfVUYaw6WVDUPAuN02kp3TOuFf0FEWja65X0z7XaNVHLCWC+6cyEELr4GjbdDFMXlONIRyTTB1CDJTjWwUZ0RG4TRGCQFyppsoBsowpyTogVMFh0UGVpGg1XGxk8kXIAACnBtuSeC7knhsjlxzHR6r0DgXExUsax5u5psvVaKk7SJpa3kpowouGuiFPhLQ1UmJ4cGMcbrzXiWh7SoLwOVllC90UpaOqtKZhda43VzSxgNGl1Kcy42UdzS03GluimMkeYSTyVFXPzTKNKwSMVj2IIt1XZcOdlDraKK6lc0ElRn9w6qVFVHLY7ozJblPMwRY6hpZbQ36oD7Z7hBkqSDZQ55y5ybC10zrJ81C5uuVRzTciLeKTIXN05hGjj01CcYC9hsEExW33Q8pvoURkTt7Ily29ygue49U5jXF3XzVvRtzNA/NWEVIHuGhWloMPAhBLQfNSK/DmilzZVUOaI2i2llGmr3xtNjYKoq6x81xa6itic7Vy6afVObROcBpdHZh5ab2SdFl5WKa9hcDc/BV1Wy2ygPbuExsIbsukEbC6c15tp8knPPM2TS4Dnuo0pu9OgmLHWJ0VnG9rgDfZTWOGjgdEOatyg94lVhxQxS3zeau6PHonxd46+KEaxlXWNync7LQxYXmiBAsq6twi7rAEqoqcJfEcwaQpGDYxJhddE6QEhp1v0X0R6IsRgxSafI4ZXhpt0K9TmoWRsJNrKvqKZljb5KgxCBov+iy2I0bXk9Vksbwn7slouVlJKXKSMpuguh09lRZqUak6KDIxmbQKJUwBzSqV8bo3noml1t0RshFrFT6SUv02UwhoHUo2Hsa8m/wAgps1G17Ccth1WVxOG0xCHR0gmcB8yr+nw5scd7W0WbxD76sLRsCvqH+zJhWTA87m95z/ovcq2na0G+nis/WkMfsgzRCRh7uqo6zDbuJsq+RgptQLlS6eQVDG20Kldg3LrZR6trWREgbBZWtcCXErMYlMwgiP2vAKnfR53ZnAuPios9CHDayzOL0YgDydrXWHnaXvuBopuEwvLzbZaqiYGtF1MMMcm+oVZiOEukIMO/RQfVnQaP38UmMDzqpEcbQbWUltH2mwTzhHghPwu3JQqmgDAdPiqp0BbJfYIlUWuhAG6ixMuD0UWpgJceagyxZXJojJRG090UU2mycyAg6NVhTUtxq36J1TSs7N2moCh8H4qaHiKJjjZkj8pC+n8Ips1LHlF7jdWJopXBQqynMbHZjbms9iYHZmx1WQrsOEoN236rz/GMOFDiTr+wdQi08sRt3gCramkaLW1Vi2Rrma2B8lW1MwjlsnyVX3NvyVNOM7zzSiZYanToruWAsfcai97KTLUtfGG6BVdR0BVXUNymx1KA2Rzf6osdSW7iyaasm45JNqze1/kjCoJ53K5K7NYjZcbAXgWCk0sLopRcKdUMzEW1Cc3C8zAefko89G2M6hRSwNBtdHp2gQuv8ig1MY7MkDXqFBjsJLAfNWLoPu7tCgvjcHW/NSoqcAAuUsUTC0O08lJpYbSAbLUUGF58rraLVUdCxsOtreShY061OY2g2CxlU+RtyqmSV73EG5XYWxgHOuGRjdWobalua5IPwVhS1ULtNE2rqW27pCgtqMziuuJ5KDVA/BQSy90wEi6bn1IXLXF7rhIJuTdDc3oD8FzszvlJTRA5x0RmQy3s0FSGxVDRoCEGWKd17j6qI+kkJ1aU6KnkA2t5q74Zw59RXgnUN3XptPRBkI7vLkufZbJHC7bgpT8KiRtwzQrO4zwdIHNfG3UcgrHg7E6zg6t7VpdlIsQvZMJ9IbcbhawuAeSLhbRk7ZpY2jW41TMQwkkGw+Ky+IYW4X0WZxKhd3tNOiylfhjg8kC48lUVMJj2FlUVndYb8lnp6sxym2yDNW3YdVWyThzygSuuNFyncc+XcKxY8ssEaGGWoks29lqMAwaSeVrBbVbb+7DRT2NnGy8145wc4bIHtbZpWfwmtYyUNdotHLWMdBladbKioMNfiGKtiaPadqegX1f6D5WUDZKMWADWlo+C9SrCXnUnVVVTECQ7okIgW9VEqqe7T1WcxKAi6qjXPpnAAC3NXFPUNkAOa99kqqVohfpfRYzGqsNjLWiziqBlL1RHU2hKhVMIa0rDcXTasibu7fyWSfTa7aq6wzDxFCCdypwjI2UiFxbpbdWtHROl1y6I1TgkUrSXs1WaxTCRh/fbfL+SgsmaCCrmgqmG3Mq6gEcgFyPgiSUkJB/3ZUeJwRMBFws7M1pJsorqYlMdCWi1lHliIbdQXQlzinMp7mylw0JdyUuPDc5Asr3D+Gs7Wuy7qc/hzKBoqHGcNdSROdy2WIlaaSvimGlnA3C+r+AcVZW4JTPuC/ILrVPD5G902Cy/EMgpNXP1tzWRqq7tb2OijSTNyAmy854yeKjEWNZuBqqJtNJGQdVdYfOQ0AqydUXZoNVDkGZxJKjVNRlGUFQJKwRc1Glx1kGhWu9fa8C9vNR6iVrrlp16KKCXW10TZYswvZQ3Ra25IL48uyC91jsmtl72osFIE1+eyfHOLKwoJmlwDrWV72EToQRvZRxDmeLHS6uJWsiYGAXdZUlYS5xaAFBMLidUTsssZHVIw3pybbKolHZybKbHOclnJkuuo66JAuAUimqXNJDtFJpqwesAXC3MOJwwQRNBuSBcK0pcRMzmMGx3RMV7NsJFxcjksZiGUF1lnp52se6w5qDLVOzaIDp/ElcbVE6XuiMqMmoOvguiucTYpzKixvvdOfX5TvZBlrWvCimYOJHTmmE2BKHn111KGZMug1TmAy2CnQ0TiBpqpbMMNr2JUiDCiTbLZWtLhDBbu3U8YMwj2QgSYG3cNF/AID8FAHs/RQajDAz3QrfgyBkda6JwAc7Zb71YMcGDmrKmw5heGga2urunwxvZ2c36J/92W1IJDR1uqXFuDGvjcMuqy2H0NRhFeXMcdDa1l6JguNVbJY3yOJat5SY2KiPK8A6IFayORtxYrNV9I1zjYLN4hQAXOX6LO1+Htdc21WUxemDbtG6zc+HXcdFXVWGFuyhfZ2t0yajc2M2TKSmcD3grKKldI5ptotRhOEAsBA1WywPChStMh3PNWEs5jvldqsTxww19I4OG2y8pljfTyX2IU5mMNja0u35q/4UxWBmK53W7zdCvZeEuKzhmIU88TTlBAd4he50mMMxKFr2G4IunShzmggIYzgc0CocWgqkrXFwOiz1aw3OiFh9T2VS0Pd3Sr2R7HREDmFhsaIFXYbBQRJZcfO3Ke8AqbE69sbDY3ssBiUzqyse87DQIEdNncLq5Y0MiAskzvFW2HUAme05brVUtAGsFmXT5qPQ91UeL0DJYHxubcHkV59idJ9m1AZe7TqE6mqxG3dTYcVLDfMUZ+O93UqvqcSbLe5Kr31Lc2hunNnYUUua5t7KsxGoAaWiw8VXxzFp11ClQVUd9RZWcFRGbBaTA8LNc5pA06rcUeCtijCbXUrKeIk2Cw+NltUx7Bay874jphSxX2JOi1fo39KJwRzaSrP3WzXdF7RQ+kijqYhlnYQR1WY4o4jbXzdx/dVVT1ocyxd8yq7FcVMEbi11rBYJ+IurcQMrzpey1cOFtqaMSDpyUeOjMTyMqPJC4M7oVNUmTMRcqvme7ne6q62oLGqmllMx1XoJdpodUJ8jrbrtNVZX2KvKanZUs9pOmwm19AVXz4dlH7KpqKcsJBQo4M9xbVDdE5p0XdW/sismLfgp8OLODA0n5qdS4iGvaXO0vdXcFSKuR7mG90ySls65CG6nbm2QaiCxAC6ym/7q6/MqmqqUi5sokZLSb8lMpgKg23d4o7oMrrWsmy0123CiOicw3HLmpcOJyC2Ym4W2wrFWNoY5ARmIRn1vbwlznXKoK+dpDtbfFUFQGFx1UN+W26hynLexuo7nkEJwlN+iIw52kgX6pgqLHQoc0jnDe6CJTa110OO4uFJBtH+6CSBe26dFTmR4AFyVpMJwTVrnhXbMKaCNAp8GFtIFhcqdFw/4fRToMFLB7KM/DQwXISbhrSL20QZqCMDYAqoq8NZcm6iQQGkqWSx2BYbrU02OwvaHOdZw6rb8J07cQYZS4ErUHDS1qscNpQIT1Q6ygDgdFg8Sw3sq5/dG91OomiRthbTkrahmdT6O1CnSVXaDK126A5ha4Zh3eahYhSMc0uFlj8WDIWvKxFY01EznH4KLJSX5KDU0NxqFEOGWGyE/D7D2UyKha59i1WAog1osNuStcHlc12VotZaF807YLagdVWTTSROLrk+CocWr3ztdGW781hsWiyscbahUJBkPgrXh7uYrTNcdC6y+gOGMBlr2RBjDY+C9l4YwuTD4GNe69hZaLu2smutZV1V3r2VPVR3FwqSrgzEqqngdE7NcK5p6gS0rTlubarN4vSiWdzgDdUtTTvaCLWCo6nM15uqSteXkggrPuis9wO91Jp4tQpj22jQozZwWu4cj7Vodb5rUxRlrdkOU5lXV8ILSV5nxxH2To5BpY2WVNaGDdcZWvkdoVLaC8brkkZtuVEe0tdubXRojoj9rYKtriL3ChZyuteRqpFPMS8C+i9i4LgjFBG4EEka6rSVuIxUMN3EF3QLE4zj01Q519GdAsdX42xtwN1jMdrX11SATo3YKrfGWi6l0OLT0cjbSOsPFbai4hjqIml0mvijP4ngp9M2/RU2M42KlwDHd0jVQaaESAFhW3wCpdHTCMm4srqGGOcHbMoOIM7GN1lmKitY15B0KqK2vZrYBZ+srTI4jcKK03ut45zhzuuGS4A0QnaahTKLE3wEa/BXcWOsfHZ24QKnEI3tJuq2WZsl9iorXtjm8FIfE2Rt2m4VdUh0bjbkhul7t0MykbKww4moJadwtZgLeyZY7ucAtQ/A5HRZvDoqaponRHXSyiVJAe3TRGhc2VpFvgoldAwsICoa2MMBso9DUdnJbqroOErRY6oZBsgysJ1CjyxiwtouRYhLTRmNrjYKxpsbeaXKXaqvr8RewHVVL8QffUlC9eJ80SCTtTYnXdSDTi17a9U00/QIjmdjAdNT9FAy5ieS6IXFMfEWalM28UYvzRpjWc9lecOwNqZhfkVv6WhYGCzdk+SBrXC26k0srInAutYK2ixqiY4Ne8AqxhqoKpt43A+SDVx6a6hRO0c0Wtogy2I2VVWi97Cyo5zKxxI2Qw2STvNJC9T4AxAerRAPs9mjhdeqxTwyUwc0g3C7h8gzub1RKoEtJssjitI6SVzrXKrYXOpJbkaK8pmCpYHArsjDAc3MLj8QD22LSqfGcRZTQOcXhvQXXnuJYo+qlIaSWocVNnaNEX7OzD2UGXC7j2SV0YIXMvl+ai1GCFt+781CZhbhJcBTDhRDCS1T8DwcmQuLdFoJqL7nbZUFfSXdlFviqubCLtJc1YTiijbG2TkVkALAAK74Qw44jxDQxuNm5w4+QX15wbSxGNjIWgNaANF6DDSlsY05Jro8pTT7Oiq6yRzHEWUGRmceCrKin1JuqiubcFAhxRtLBkLbuCgz4k3OS8KBVYhHI0hrfms9XMD3OIFlTVVPre2ioamHJO4ItO2yNJ7BUN82U/FbzhVpFIxxFr6rU6ZLeCr6gkE2VXWSOa08l5vx9NmprfxBYPOjRTZTsrKnc525Ul0dxvcqPJCuxx25IpiFlEqqe4KrHsylDkNgiUj7ytB6r1DhrETQ0LWB1jyun1tdJUPLnOJ+Ko8SrxEx2bmsfUDMXOvuqGS75nHdNmbaIqMGm46IzJHR+ybIc07i65dsmPq3aaq1wmuDSA42stlh+IR9mDmsVYQYuI33zC3mm4xjkToLA949Fh6yqvI4g6FVdVI481XvJK7myDey9Ee0IBFnaLjrELmTmCuta51rfQomR5Guq41jhuFx8F9d01krqe+hIQKipD733UMuC5m11U+iL4XXad1ocLq5Y5Yw7a4K9cwnEqeuiZE6wc4WRcV4TL2F7RcHXRYfFMJNK8gg2v0VS6TsDpoq+qqHkmx0VfI18x1alFRBrruFlJA7LYpjpiBuo8lU5p2UaTEG7HQrkVVE51zqUp5GsHcJC4QKloF726qLUURbsoEkRaU+Nzm2cND0VrS1TZm2doQpBy8iEGQ6anRRXFrX3FrKy9QDYmuHNRn0jnu9lR3UJzEbFG9QdHDcqJGwvkAO3RWlFO7DZw8bdFoouKgC1gdYHdXMVU2eLPnvddDnSCzQqvE6VzYnPznN4FCwLE6vD53HtCY+hXp3D9fHicTRLHZx0uryXAmn2W3Cr6nBNDZt1WVGAuN+7oq2bhtzj7JQP7vuivp8k2ilmwWs7Vt8h0cFsML45YxwYZdPFb7huuGJ1EZjdm62K1dZSgts0bfVUlXhuYFUVdhh10VWaibDicuoUyLGIZmXl0cqjGcejp43dkLutoVgpsRqcQqrSvJaTspTcMNxYfRTocOdbQKyp6MZQCNVPZgmcXyGyJJhIjb7Kh1OFB7NrWVK+hEUjtNUaKiMhAOyuKelbEwACydNDnaVQ4hA2F97qura1kUWtgvL+MqoVUmSO19yskzQW2KuOFsSbhWN00zj93fK4+BX1b6MMagq6dzonCQA20Xp8dQ57RrouSPtqT81GkrGM7o1Kr6yW4LiqkTOzHkEKpAIuqatboTdUVYLG4Kqq6RxHRAjBezdNfT5hqFEloM19FmcXpOwqRpyUSNpG6JI0lmirC7PVNYebgF6Zg8PYxMaOlldtiLmhJ1HcbKrxGk7jv1XmfGFGZaeYWuRchedmx2XWusptLKeqsWSaLrnAprSAVJaWkckOcCx0VLUtAcVGcy/JKMdm8EclqcLxJ7owFOnxLsoi5x08VnMUxD1yUEaNH1VPVPeRYXA6oQgDWXt8VFqngtyhRrJHQFRn3LkN7eafTykO00srWLFXQts1L7bmBvfROON3HeKjGvZKTqgzSNcgOLVHfdy9TFI48yVHmpix2xCAQWnVMe4kfqlFJ2Z8Cp0dQ1w2CJdh5i5TxEHiwAKHNRZtt/BV09Dl5KDLAWnqhFhBU+hnGjXclvMIw5ksMc1r6XV/h0Ykmuw5Xt5Lc0GLz+rdnMy4ta6pMYpmVbycthusnieDjMcoVScIynUaIzKGIttlF1EqaNjXWGiq62RkLbXsVEjcJhcXvtonGE630Cq66FoJAKhdmQ6wKI67hYotK8sdzPOykSVbbKG+RkmwAt1Qve02R4mCTUaFPf2rNnfBRnySO3JuguzAbrS4Ni0VRStjldZ7dNeaNV1EcQNiEHCHDEKl7OTRe6lvYwxyR+8DoVXQ0gM4G1zorefBXOAcW30VdVYc6EXATaSWemkaS52QbhaqPHII6XTvSKpgxB9ZXZHnuuK0EWDlzgGi4K9K4NwYPp4gG3cBYjxXoFLgZDAHXKI/BGWNmKBUYMDfuqrqMHsCbfRVFVh+QnRUGLUTWwvc4bAlZD7Me8Z2kjyXonorq6igmlBkLiPdPReqHHWvYLusehXIcco3ktme1p63R3Q01ePuXtkB5tKocWwcDNoshXUZjc4Dks/UQOnLhuFN4e4WNXI6ci7QbBamPh4AHu7eCm0PCDqokkEMVnS8ERQStc43AKnzYNExtgLKvmwyPmFXVdFGxpsAsbiLGsq3hNp5WxnVT2SBzb8kKpl7OMlZHGsSLpLC4WLx3EZLENcbLGTTGSoIfqSoFTAQSRsgMcQQvWvQnxoMExKSnnfZr7Obc6eIX0nQ8W01YxnZytueV1MqK8Obo+5KixSdo+91NfGJI7FU1W3syVWTVQaTr81VVNQJSe8oMkIcqyuYBpZcp6chuylNpSR4octNpssrxHSaNeOqoXMyJssp7M2CopXubNn2IN16Fw1iwnbHeQEkai/Nb+jgE0bSNk+oiDAdLqixNzTmF9V51xMAGybbFeTPkAkeLaXK4H3KmU4N1ZMAAummUApdqAeSNHN0KbNNZqqJ35nlDQpZS3bVWWHV4ZHqbIeI4oagBgOgUFjnyuAFyriHDwYC53S6o6ioGZzRsCq6Z4L90PMOqRIIKA7RyZIdEIPLDok6pLd0N1W46Iecu3RIweqJra11wBduvY6VzXDvJVDGOB0CrZYG3JvZA7HNyUeZhYdl2Mmx0RY43HvXtbkjxPLBe/wRmz5tNihzMc917fFDNIHsJOunJVNTHZxH1QGExuBW74ZxoCMROKv2VBgqBLG63gvQcAxOCviZGbZiOatKvAQ9pIaVQV+BlgNh8wqafC7NNwLKiraYUoLgdFjsWxwQvIus9V4sajc2RsPxGOG5e7RSjj8D7gBQKqsZIeSiCTmDujNnFtd001TR4JodnO+ieYSSOiI2HKPFdgfZ+UBPlcRoVHcS487IsWHyTC4abLowebtBluD4BT48HnLLvuUymlOD1Tn30cLFFhqBUyOdnvfVIVbIJAS69jzWsw7iGnkjayTKRbdGrYaerkjawiziis4X7YZR7VtlHk4Tmjv3LhQZMGlp5A8MILTdeo8PYcyupIpgASQLhbbAcNfR1ImY0gDcdV6RhbIa6DMzloR0R5aFoG11W1dELHRUddSlocLLOVlI5zjYLL8Q0r3QlnMmxVXRUV8sZGq0GE0v2XWsnZuNCBzC1dRUxTR3GhssljT3GNxjcboPCfFFZw9UOllLpKc+01y9Bj4sw/GoczJWtcR7Llk8eqWR5337tlR4LIMRe9rdXucAB5r1zCeGmUWHNaLaD6p+FYXJUTlrm2YSb+S0poWwMDQLWChVMrI9LqsqKxrzlBF1XSSAuNyq2vd3HXK884gqRFW6cwqtlf3rq0gxEujFihzVT5bgahUOJxgA5h9FicZy5iOSys8YE97Jr4wWlV0seSQhGoauSiqGTN93fyXoOFcR1ELo5YahzSNRqvSuFvSR6wRBWPtKT3XHmvS8LrIpow/MDcK8jqWPaBbVQ8QpC8EgAXWSxSjka46/JVUYbDfOSpbWB7e626rsRpXOZfLaydRx5o26KdHS5ghzUtht81mcdoc8RH5LH1kfZA30sqeWqs02Oiq5JMziSbotFiD6KZr47ggr17gzi6LEqYMe4MlboW9fFauoljfEX303Xn2L4q19TIWE5QbBee8Y4yI4XMabvdoAvPHD5okMZvcqyp2WAuFM2b1VfVzZDoVGkqnOboUJtdJE4aqX66ZG2TA0vOyKKRzkaLDM51BXZsJDWHKCFWS4bUB+guFaYTh5jF3i5R8Wq+wpnxs0JHJZIutdRJXd8kobpQNtUmyXTJDd4tr1XHeygvNgo7iSm5UtVIivbZESXHWXqvblqa6qc4WJQHSuzW1Te3LCbboMsxfuExr7FJ02mp2SbUmMan4q4wlkc1OZXuAF0WQsIsNfBDbG4t0CgVNAXE/kVDkw2QHYotMJaN4c2/ldWTMelZYEFajBcdzQtla8se0jZb7CvShDHG2Kodra11OqOL6GtbmEgWdxTHoMpyPCwmO4/fMAdPDosJXz9tI4nmVBKE4G3tWXPZOh1807tSedyjRPIIzHdPnksAG7lRXB19rozJHNAsUeGpdcBTWPMlrfFNL/AFeYPtfRTYKZ1Zlc2xDlZQYHeIPIvrr4K8wnDWutHl1V5Bw4XSt7gt1SxnDo6OA9zWy8vx3N2xsNFTNmkjN2usuPqnyHUm67FiEkTxckBaWhxV8zY3MeS5uq9U4Jrm4n97a7mGxavS4eHYqmnbJksHC40WexXhoGQtay4U/gShNDiop5RaGUENvydyXrVFgYDTpoiilkw2QyQ7829VPhxSGdneOR/MFAqp4zfvD4KkrrPaSNVS1MDzfK36LLYxCWSky6A7KFQUYqJszPdV5BSWPeCmtgbbUfBRp8Niy5i0KJ9hx1jC3LYeAUWbh+Kjb93dpHNZjHHzNYWGQlo6lR+DsVjw/FYHyO7hkAPh4r6RwyWOooW969wr7D6KNkOZgF1CxUFosL+KpKqMGO99VnKibsZ79FHdUHtQTqOqFX9+InkvOsdpzPWGwuGiyrRR5RdwsjRsyizfojNY5rSVnsaqwwOubrEVxfM8lU9TCWm9tkP2m6KvrInB2ayANQplFiD6YhpJLPyV7BXucGva+zhqCCtnwz6TKrCntFQ4yxc17PwrxfHjrI305DhvutnI71hgLhY2VNidGMhKzNfSFrb2T8Ln7b7qwDm9VJq6LMw9VBo6YBzmkbK4ho7tvZMqaPK0+KzeLUV2nRYDiSlNPC89Vj5ad5AsLoIpCTsnGie0ggaK1wyOSmeJGOyPbsQrvE+Oqmhw94ks+wtod1hKrjKeRhDIiCeZWcqZZq6YveS9x+iJHh1tTqU/1TKdkWNmXfRPkdZp1VPVSZpCgBccASuNnbHuVNo62Mkch1V1DNCWixHkpUMjCbN1R3EAagIJY0C5sAo1VWx0zDlcL9LrOVNTLUPc8m4OwVe9hPgq6oYS/RDEJ8V0A7FcvY2C4/cITxe4QuzN1wt1Ro4xpopTGAN6pCJpCHJEWjdBF9br1gUuawHNdlw58e4QhTOvtdRp4+zkJQTK2+wTnRBwuNiumjzNvuo8sLm8k1lTLTxZGk5Qdk6HFS14v5LY4FCyupmOuLnRTZcJyvta902Xh8uZmyCyqKrDWxuILLaKrnpbX0uFIpS6mon2JBOqrTLNK7Nd3mpQxiSnZYu2HVV9XxBK/QOI8VUVOISvvd5Khmpc+5uuCU9Vx0x5oJmubIsMmbwRRLd+qkQwmV4IuRdSJqUjXohdlYozKcuIIVvQ0ReL2+iPPhJcNksLY7D6tgd7ButFSYgwVbYz/huO612FUEb52Ss1F1qXxNjALWjZUuL0XrMbiQvMOIMKDJXm11kqml7M6CyiujsgmK+lvmpeG1BoprnVp0Xp3our3z4+yOEksteQeHJfTVDRP9TYy3dslJggyONrlZnFITQztc3uuabg9CvWuDsSix7DY3stcCzvAq4qsObl2WdxDCgSe6R5KnkwuVrtHO+a63Dnxi5OnRPm7BrNsp8VheLWNM0bxq1t7gKNhtIWysfA9vftoFoG0DwR2m3VNlpxELh3wUKomMpyg3U2gc2OLIbZlX4s4sY4kLAYywzB51N1kJ+0guGgixuCva/R9xma2ngY52azQHC+xXs2EYjG+mBDhc8lJq6Zst3EjVZvEqYtzAbLI4mzI11zqqF1YYc133Hiqep4j7KQxOkBHmhxTQ1p7upPVRa2hu0nkqWZz4XWZqoNdiNSG5Wm19FQVUb5SS9xJVbPTgBVVXDa4+qhNpyCeiDPDuCFXmPK4g6LhiC7FLJTnum46KQMRyi61XAvH0vDVcHNcTC895p5eIX07wfxJFxBQMlZI19xyKuKuLO2xbcFUeJ0RLTZuizxY+jqRIOR1C1MLWVlM2Rti1wUJ1GI6gG26t6WlzRplTSaG6oMRorg6LBcW4aX0klhqBdYJsOgCNHR87KUKEOicLW0QnQmnaeiynEdU6V7YgdNyFWQQZhqNVLbStC4+nsEBzbIJdbXdRamfK0qpkkIO2qZ2pTXyGyrpnmR3guxufENCbInr87R3XKRS43WMI76socbncbvdmUmqxd76Y2br5rNVE75pC5zj5XVpQFksABeCR1TqtrIYS/MDboqO+YlxGpXUGV/QpjG808gFNLQAUNyY1liix6FGZuu5sui49wdohGNesQVbA5h00V16zDUsGwKjSRRjWypMQYCSAqp0fmismyxhvTml9oBhtz8EhWtfvsk57JARbdB9UaLm6l4bidRQOAY7u32W4wrF/W3wl4svRIcJjmwzO0Xu1Y3FcGN3d2xVA7BHWIGqjYhhjoKcCx8VFp6NsdI5zt1mMYqhG82VBJUlzjrdMMubdIusN7lcD9LDdcI18BuSm+1sNERmg2R6WHtpg0C91psLwvK03Csp8JAivZUk1LlcQBZKCLIdQtzwphDcQizi2UeC1D+Eu0Z3W6LNY1wzJA4vbplQeHcOFbU9lIQJMwDbr0nDsDqMPDWBpIWmiwrNG3NobKlx6mMLcjAvOeJKZ4ebNBv0CxlbRFx0YqmopnMvdunNVs0hj2CCKg3AK9Y9BNRTvxerjcQJixrmg87HVfW/CrHYhSG49iw81dSYWAwhwWH4nw5pzHLoq7gzi08MYm4P1pZbB4HLxXvEPZVlDHURkPZI0OBHO6rqym3s3yKpqmkI1y2Kq52OOl7Ktq4G2OY2sslxAyIxuaDc+Cx9PWS4fXRva85WOuQvWMGqKfFaFszXtJ2IvsUKvpmWIaNSqCalLHEgWCURERLiblV+JTuqn5eSp6vDQ5puPgs3iGChxd3VBwaSp4fru2hDsp9pvVex8M8aU1ZGyMSESW9k6ar0nDq4y0sb3G4I5ptZllaS0LHY9A0Nedl5XxFJUNc5sRJHgsnNTyv7zycym8NVT4q8RSutc6FaqrEuUhureapapmQ6jUqC+gLwXHfxUKfDt9FW1OHOF9FVVOHFxOigSYeWDQKtqadzSdNlWVEQMnio7oyOaYuFoO6aY7HTRbX0dekWp4QxCNsr3OpHGzhf2fFfUuB8T0XENDFJBM12cA6FSqmEkWuCCqqtw0lpOVRMFxAUFV6tMbRPOh6FX89Nm7wF1YYVGJoXDm06olVSeHxVFiFNYHRYzHqYPY4HZeb1lAaepc23dOoRKeDTVSHRd09VW4gRExxOwCxNbD287pLWJKbDGGqUALdEyUd1V85ykqvmmyqvnkLjrqgEJjm/NRal+VthuVFjF3KYyHMEnxCMWslFThwGlk6SJ0Wo1C7LW5YSNyquUktJCUVY6HbdO7Z0vtG/guoEjyTohojTcLj3W0C67ZCuEtF0HUIpJtoie01NMfPmmlt+q9Ec0t8CiMqHsTnYk9otfVBlqc7T1VdJNfTons7zT1UVzS07IZJ5J7JHEgC91YwQySAaaqxoKAesNbINFrqPC2sY1zCvReEsXijoGQTnvXsb8k3HBTPkOUi3gqcYfGTmAFuaq8eomimcQLrB4rVGKJzG6LD4iHSPcT1VS4FjtU5t3+A6pxZ0JPkE5rMouiR03aC/yBUllCbdE51CQzQFGwZgjxKNp2O69KoKBsrQWjkrOTCTLGA1lyVnq/AHhxuy3wUA4M4btV7wvWvwV743A5Hm/kvWKHGKCTDYxnb2hFyFW4nQirYe7cHZZ+h4cdT4k2cBxyHMPNes4U5tdHGWtucuoO911oJqzG4Wtso2K4U2RhJ1KxeJ4BG8kmwWZrMAja83ss/ivD7C06arHYng3Y5tLhUjqLna3kr7gOsnwfimhmiv/AIga4Dm07r7k9HmKxTU7srgRlA06rbxtFQDbksvxRRsFO8NF3FeeUeCOfUyNLbklex8CvdQ0go5HEtYAWX6dFqauAPbmAVJV0uYHkqKvprXN9Vl8SjLb3OiyOIglziRcLGSZnVjr7OK0eB+s0V5IHlryduRWwgxqWoja2SEZuZC5UsEw008FU1MLo79FWskANgRnJsiPpjlJcdVXVFK1x1F1TVtHldo2wQIqAiRsjLskB0INivWeCa6qlw8NknL3N5OWgqaupYw2IAWWxKSWrcQ59wqafBRLm7vzWexbAOzicWjUa7LHVzXUswc3RzTcWWiw7iOKeBscrg2Xax5o88bJdRZChiDnFpCQonSvcMm3NRKjCbX7qq6jCd+6q2pw0NBuFQYjRjUBZqSmLXu0UeSnKjPiym1kMMN9U8tvyQnxEhaXgzjis4YqWxiVxpydAfdX0BwvxrLi0cZc64I3C39O8VEYGjrhVuJYAyUl2xRcOxZtM1tLWHLbRsh2PmrelqG4fUCS4ML9CRt5q2kkimbdpBBVPiUQDDosLjMGaRzQNFi8aobWdbUFQYqbS5TpYyG/us1jDi93Zj4qnfTX5KJLT5DdBdKGXuoz6oHYEqFUTaag3VbNIXG1rIJYhPadxshv0CqamQvkNuSHESfO6s6I5hqpEsIefJcaMvghVNQC2xJVdO7tBYXshtF22KWQAWsuGPmEgw9V0MCZIwWQRuiCx1Q5Hk6BBu66c3NfVFZHzKkMItbmlkCcmSbL0uSneNwUHsXFwFkQ0g1uUwURN1GOHZ3nZRnsMJtZDeA/wKF6uS5WFBRtdUMva3NayjwVrw1wtZS6vBw5hdGNWjdDw2ukhkDJNgbLbwYYX03rELr3AKz+M1dWx5cb2HRAouKOzOSR1kSvx6GSme0OGYjqsRiVnk3O6zuIMaGHqs9MLuNlxgO1/gn3IFgF0G513Wiw7DjLG1wbuFajCS1ly1Bkw97hbJoopwt8NTDI0EFrhfyuvXqSKOKnYGMvoEyXFX0UjT2WZt0V9dR1wuSGOO4Kc3A4pm3bYg8wgz4Axp2HmhswxzHANcb+a1uGsmfSRMeCXNFroVQ6akkzNbmF9Qtdw9iUBpWvLhFJsWlWuJQCng9bc4DUIWLVbY6NjrXLhosBic1RNIcuioKysyPc141vuq6ufmZcHRYDibExTyZCL3VK2vjNhlsCrLCpBT11NUxi+SQE26L6O4Pxs4Q6KWGR2RwBc2+69g4S4up8TqHMY/vBurTurzExDUMJNhcc1nsMggGKvZpctuFqYnsgcyRptkIPwWlgr2zU4c3vA7KNNFnHiqeugBabjVZDF2AArHYoy7XWWRq6YtcXAbG602CllRlc2wBCuxkjOhRO3bbQXKr8RlPZnTRYPGcSbSShwcRIDcWRcJ4uZWzlk/cIGh5FXYqY6oXZbL1TZ2RiPKQHFRGR5pGgNsLrZ8K0xBdYkW1VhXYg98ph1DdroEdNZyO+jIbsqPGKbu6g2G6844qoMpEsbdL96yyNZTSmzmnKRrcKdhPEUjH9hUOs4bOPNX8NfdwcHLS4U+OviDrgHmFKrKKPLoVVTYe1oJvfzVBitMWMJBFllaqlLmk3uqCejJlNgo8lCbbKDNSFp2UV9PrqLJhgAQ3sABUWdmui9L9FXFDGkUc7wJWezc7he6YTjfZyxknunRa2mcK2nJGtlSYzRtyOuPmsbNjldgz3Nik7WD/hP1HwUrC/SAWzMaxxjcDrBLqPgV6Ka9mJYe2URlpc29jyVLNhJnZ2xGjljMXoxUVBijFw06lQjhLgBooVZQGON1xbRZKqoS67iDfcqHJRiyr6uJrbt5qjkjs45tUAhltwo05ZrqFAmY1wNiFF3Qzuo8xDWuJ0AVSWl9zbdNiHZP72yuKaE5AWjMFNZBfS2qhV9qcabqtyOk1d8kKUdmmF2mmpXA4HQ7pzdgnBpK4uEXCA5lzouBhSbFdNcA11l1tuaeXADqlG4j4IyVwmONzZetunve4CjSztDr2CEalvVcbWMG6iy1YbJcbIT6iOTR+6jnLn02RAeWxCNST9k9wJ0OoWy4NrxPU9hIdL6XWynpm0wlGW7XNte2yyNdAIpHEDVX/B/EPYUlVT1J0aLtU+Y01fhj33B71l51jtN2VQcul1m56mVsts5sFBrMVc11ibqpqcQMot81EcQb66poBOvRdN9831TA431N7r0ThaWF2CwueRnaCDfwWmw/D/ALSZdgzAdFZt4SeQCWKFiPDfZMcLaqXwlirY5zSVZ1GjXHotLjdPTPhHZ2uVjqzD5GG7dUxmJVNG3Lc+GqmUeKz1bg10hF+q1mE4aQA+V1xutHAY8gyiyU1KZuV0JuES5r6geCssUrZ6mijp3WAba5vujGrikpIxM7VoAsszjdbDC4ho1sslNH6xI57ha6ocexJmHRG7tF5bi9c/Eqwvt3b6XUMxuR6SsqaK9jdnQrb4H6VZqKNkdSwua0Wu3dbXhz02UWE4rTVbHvAa6z2kbhe8UfpUwriahE1NUNF2+zdYniP0jSYFUtqYngvjdfKDuOi0/DHpeouIqaNzJ25z7TeYPRelYPxJ2LWlpD4Ha6HZaeHFqeaMO7QWUeaZs4cWWdosfjXdJDtFlq+lMjSW6hZ6uoi1vsqsjq6nDWuEYBB1F1Mw7itoBFWBE4H2uRCvo8Xp5o7wvDlU4lWzzgtjGhWPxDDDJMTKSSeagnBWh2hIKkw1s+FUzmsBeBrbmEej4xppIgJj2cnMOKlx8S0zZWuMrbHxXomAYlD6s2SOVrm88pUqV7H1BdcZXbKW0OjaO7cKyjhdNGHaKvrcPEmbM0HwXnfFmEvje4R3AIXndU91PIYZhkI2J5qnxOmDsr2m3iE6gxSemIbJd7evMLTYXxGKd7S2SwO4WoZjzKiEEG6BNiocC3l1VVij81Mbm5OyxVZiXqjnMeLDqo8Tu2Gbrqnui0NyoFU1rQq6Zo1VfUVTIdDZVVTiYa42CbHVNlb+67HVupJGyxvLJGG4cDqF7BwD6QxjVH2Epy1MVg/x8QvTsJ4vqKIDKe0aOpV2cebjMR2Y8btWWxindqSsxT0rqvHKWnAuXvsvfm4WaDCO4bBrNiq3FsS9WwEMYPv3NIHh4rJYfAGWDze/M7q19TY5twAVT4xQjsXNa3VZGtoGtvcWVNPTta03tZZvGGNju4GyxU9VKXPN7tJ0UcF0lzlKjzNtyN1GkDmjTS6aCYxbfzSdI0DVQqkGUbWbfbqglmUKPK3MbK4wypbDEGPNj4qU6uijuS6/kquplNVJmtZvJD7M+Ci1UZ3GqBlGVNa3XUIie1wt0TDukhEi6TRmT2ttdRpPaXAdF1w7t0Rlst0VpDguPGmiTLfFerEN1QX07ZAgS0Lg2+4UOSnPTVBdAU1sQPmumLLdMc+2iBJMQVbcKYq6lx6jLz3HPDSV7Q/EKaozNac3xWbxaFhlJbzVRUxGGMuboTvZQoMdfTNdCXEa3tdVeNYqX2df4qjdUMfe+5VVWQ5iXKvLGnf8lwRMTmxA7AldLANCD8kLK1jkaKskiBax7mNPQrZcCce/3dqMlWDLTPcDffKvouhpocbo46mke2SCRoc1zNdChVXCjntdcX+qx2K8HmGYvaLHqFTVkFZTgAPJA0CgyYvUQC0rM1uah1fENL2d5I3NcqyXiunic3s3EE9QtPgHElTK1ozksPitvR4q5jAQcxVvSYrJKQC3KDzstXSUDq6ka9sgJI1tyUaqwJ0bXEn9VUS0Ajd3hex0VVXsic45m3cqDE2thY45LAc15hxSTiVRZl8rfks8/DnM92/wQH0zh7tlGqKYltroJhI0IuuGIW2+SsMO4hr8IbankLG+BUmo4orcRZaWQklBw3FqzCqnt6Wd8T+eU6Fb/CPTtxBhcbWZg8D6r2Lhr0ouxzDoamMvZJI27gOR5r0vgbiCoxKpZG+djg428VtMV4XfJcu7yymIYBLRudkFx0Oyz9XC15Mb25JN7Hmos3DnaQB4bo4XWfruGXuJHZiydhNGcPmbFMCGE6O6LT/ZbJI8zBcEbqgxzCCWnKLFUtLTfeFrxeyFLQiV8jQDp4LG43hJp6hxy9063AVBVQuicHa6G63eHyTwUUc9JNZr2g2voVqOH+I5JGBkrczx0K2WH4019mSaN8VrMHqKWVnZl4HS5T8VbT0sLpHPbYLy3iCubWVTgyxGywXFmFGePQXIF7hebyVdVTSltyWA2s4K3wasbWXa9mV46KPi7KmmlLoRdvUImBcUTU5EVSbgnQrXwYjFUMDibqDiWMsooiJHN7M9eSwmKYzDXylo0HIhMoZpKSS2YuiP0V02ftW3BBHggSwmQ2UeWhcQSqLEcKe5+YKmraQxvFwhNiG1knQqVg8lThdcyqgJaRoW8nDovYeHuN6Kqha0yBkttWPNitPDjUcYEjJADvcFRcW9IGH08RFRKA/o3Un4KHwTxNFVY7DX9k4sz5Yw7TfmvpeLt6zCmlzWgltrXWLxymkjY4Wu7ZZetmkpi3P3SVpcE+/jja4izhv1UjEcJzMdYACy824npZYZTYOttoshW1MjGO+7cfELH4pJUVziA0tZ05lQYsFkfq8ZW9EyppRALNGyqnsLpD3boU8Drg2uVCk7pOYWSLdFGn0I0UZ4udF1kIuLqUacFuiE6C3JSIqUloFt0n0RG4UKpgLOW6gGPXwTSLGySSS47UKPI3K5Fa7LyTi/TRBe0WumxtC7KdLLgYTyRY48p1RLJrm2Gm63EdbIBujR1zhYkqypsVjc0NeLp8z4ng5SquWMuOmtk3WMarpLSN7FRJvauCgPbdM1jc1zTZzSCFosH4mlbLke82KtZ+Js1u9msUGfHBMw2Nr9VS1U4Mgdf5oFYBPFmadlTNLhKdb9V10lzaxKDLT6XsmGG4AC42F8ZR2Ql7boUtHzypgojl1XTS5RqdF6J6KfSdPwtWRUU8hNKTYX2A8V9M4bxBQ4rAx4c3K8btNwhYphEcrC5tjfmsDjtBHTuOawWJxmSmjjJLmgrFYtPA9rixwIWYeBVVADNWt/NWuHVFZRAdi9wWmwzj+voHtErGytHVbSg9JtDUxgSkwPtzV7g/pBijnYIqwFl9rrZR8b0NTYPeL+eikS47h0kWbO0m3VYfiHG6ZnazNc1oGouVjZeLqbGJBRiTK/kTsUZ3CpkZmDL36BV9Vwk4D2LKpqeGHs91UWKYa2kIzHUclSSSMBIvr0Q2t7V2ieaY21H0QJILeB8EWhwuqrpAImnLzcVs8G4Uh07UF55kr1X0fYVHTF1I2IkE3Zpp5Lc1mGz4JJHWU5dDIw3sDoR0K9h4R9IFDjGHQtqJQKkNAcCeauMRqaL1dz3PZa26+e/SnxU2GpLqZ4HZHQtKn8McdDF8Fia9t5ANxzV7R3rwdr87KeME7lyy48kWnj9UZke3NHyPRRKjsKpxZax6qu/u9GZC5o1TocDa6QgMHQ6Ki4k4UD4pO5rbkvMMQwNzSQW7GynYVnpaR0B7zNbeC7gteaTFmte7K0m2pXqFD2UrGuLmn4olfilNQN7ri5/IMKzNfjFVW3+/kDOTc2yrGQS5jIZH35d5GrIp5KIggPcRoSNVi67ApauKRvq5DxsQFTU+A11DOJRE4W3BG4V/YV9L2ToSJLW25rNV/BlbDmksHM3IG64xktDTdyUjwKp6/tau3aOLvBaCg4Njkw5jg0GUi5PipLOFGwR2te6rK7CpKIl0d2nw2TcPqg6o7OZnhcK1r442tyxsJ8bWVLN2YOWVpbfZx2VViWFtkYSCD0VRJhbmNuj0eDumkF26DVWDsHc7QNuux4Q1h7zNl2ozxsIa5+nIErOVjqiOY5naHZb/0b4xFCaQy9408gL28yLr6ywfiWGShjmglZUQlt25Tt5qqxbiClkkLnRi/S68r9IPH1Bh7o6cvYZ5D7INrBWvo/4qNdFADIHNBykdPFemSvc2Oz25mdQVguNWsdEJInA8gvMquZ0c4LtWk6hQq2eKO7soN/BU9Ri0Q0LMh5KK2jmrrvDCGclxmBuaPZ+iTsItu1Z7E6JrZiAOfJV0uWMG+igyODnWGt080ZsCnMjA0cEeOEAGxSDGueBe+qs2Uoyg2RTTiRuoVTWUgMtrXCq6qnaxrrWBVX7RuupJJIcrc1lxpDd0nSAhAe7MUu1EYTmgvddSGtt5pyS442C18bC5FEThpZO7F2hXcz2dUWKpI3Gqa6TPyQ5RzQC43ta6ZKbBEpqQzR5radUJ9M4P0OoTuylj6lcdVPYbahClry4228k5k7msuBcKE2cCbXQOKmSOjfbKO8gVLX9noE2kGd4DtOSuHYZZodl0IUWmgcJwLaHdXRwYSwkhtz5KHPhHZtAA1UafC3saczbeao6uIwPBAsRzV3w76Q8V4eqWGKdxi5scdF6XS/2inNpezmis61lmMX9K8uNz93uNKo8SxJ9c0EOJvvqsziLpqcG7jYldwuqDHWPtePNaujrIOy7w73RDmqYZZLWsisp2VTQWWPJAqsOnpu9GS0+CWGcWVlDVNimqCRe1itYeJO0jv27ttgqPFcVlqmlrcxHUrOGCYz5gS1zdQQvUOAeOXMa2jxE5yNGPd+q9Njp6WviDmjfoqvFMFjZG4izRbcrxDjWYGu9XjfsbuyrPNgaNNyrTAsOM1exjtiDZag8KSVMrYoYy+R2zQFZUXoirqiZgkhLQVvcP8ARk2ihjhjhzOOgAG5XpPDvoGbDGyoxBveOuQ6ALYxcF0eGQhsMTYwPwhZjiPDnNuMzi3oSvOK71nCqoyUszon/hGxRarjPiSahLZGyPjtbMAV55jOJTVOftrk87r0H0PYa5rXMqGkmRueNh3A6L1Gn4exCke6eEN7ozCMc/BXXDmPMxSqbR1UHq0zmktv7xCnYtgzwCIm5r81mhhlRFMe1j7t1atw+aKEFrcw8U/D4P8AvOR8eVx1803G6Eua77tecY9gLdSGgG+6ydTT+rZgRayyWKB7pi5hII2Kh/aOJl4ayWQt6NK23CL5aikkdKXuc02OcrS0+EVNYzOyEMadiUdnDsvaxh4s2+tlo4eGARmeL9AqvEcHiiqT3bXHIKvdhpJIENx1Kr5MCfJMBHFlPgFVcTUc9E1rWk5ToVia2ifIcjWlxJ2XYOGwwNfN7W4AV/hX3Dsp9norCeaG1slyqWuqqMEh9mHx2WHxatihry6F12g8leQY9Q1VMDJMyN22psoWICnqWZY5GvvzaVVyUMkQFnXHRcDo3kAmxGmqsMMZlnaQ0uB0WvpMEYW3LL5vBDreHowbN0J6Kvl4XFibfRUeL8LfdE5dlRwYfLQyh8bjG4cwrKbjHF8KDRBNa+9iQoFZ6R+Ip2FgrOxG12N1+ZWNrnVFZUOlnlfNI7Uve65KuOEOMMR4XxKN8dQ/1ckB7Hai3Ve90XpPr5qJoE7XMI00WVxzjyrdUHKc4ce8CVlMb42k9ltK9z7bhUdJxqXzdhUiRmb2XP2HgvQcEwGGohje9gke/W51sthS8MsytDRcLtTw02LWwAWbx2KGCNzIcr39RyWKqKFzy4uGyzVXS5pXAC7Qobog1+trq6ZRB9O0jYjQqK/C3l17JslE5rdtSo8VI5suYA2BWlp4BLTh22nNNLAxjgBqqqraQ7bVUtewOYRa5OiqHUr27agIOYXtfVI7JLqY54Jyg6rj2tDdVGedDZNZG5yIKeyPHZrfFP3XUk1/slbOnkbccrclNYWOO6kRxMfbX4Ls1MOSbHTC/eRvVIyO6FGqKWzTa91EdBY7IFXDqLBTMOqGRUj4naOumOkYXXPJSGVMBHeHyUSpEMty2yr3RNzXuAmF5boNlDqmdoQ7QEIZqTFlcNVb0+KU9VT5XWDxonxRRkhzbXButDhk7awSRuABY2+vNcioMtQx+WzCVrYcKLo2lo7ttdFExHD2w20seqgVjqfsbOAuAsRi5hY5wb81RPyyP7mp6Jj4XOA7p03XGgRuAsr+lLuyaRqChYjSuq4zpbyVVDSuhkDjyVpESzK9ju7zBV16i2ojuHAm11HNPNRnPE4i3JcxDimZ8UbOys5pFystPI+orHy7G99Vv+DcRw/FQKWZ7YqkDuhx0ctxT8ByVly1mltEB3o4n7R47IrkPo+mZK0OiI16LaUWGYjgdEAycloGztVjeMcdxh8To4jYfiC8y+z6mSV7pQ50jjck7lWmH8Pl5Dniyu2YG5mV8Xde3UEL2r0K8PvqKKora2ETS5uzjceQ5r3DC+GKSaEPMQafELV8G8DUz651fJECyHSIEaF3X4LRYnh7TdZLEaTJmA2WJ4gpAWkWWb4Y4OZjWJzzzN+7hOVt+vVaLE8BpqSF0ccLS22txuvJ+IPRuzHsch9UAiBOaYDbKF6DgHCbcHDHNaRI3ZwW4o6/sTHdliOXXwWVxDF6WDiEyQOjEzJC9rTyPML03B6iHGKIPMIicd7G6dVYRTtjcOzDr9RcqtbAyH7ss0aNLqHVRsztkY2zm6ghCqamCqh7ws/nosVjtHGS6xsvNcfiMMxAs5pWSxKnLyTaysOGuHZKpskr2ZW8rra4DhEQw90bGjOHEuW6wuhaaSOwGjRonT4a1pLk+KszRBrz7Ol1GfQiZ+cAOTmYcCCbZR0XJKOOCMusLrKYvhja8yNcNCsucAZSSEEBx6kKPU0rcpGVZ6p/7nMXXNhuqurxKR5OWTL4LOYs97ml8khNtrlZ+aTMNrqpqW5na6oUQljeCyRzAPwlWrcSqjGGulcVY00naRAq4w3ib7OkayeNpi/EBsvQMAx2mxeWNsJBiG7ui1zcIp6x5yuB6cilNwsQ24F1n8W4ecyN4LbaFYDFKB0T7Bt/FZvEKcSzFrtCNLKtfh7mahQJqVxeTl0QXUfUK1wzG6ugjEDR2rNmg7hXlNUmUFz4fvHdTsodbREXeSC46lZfEaT7qR7mr0z0aY0K6ggaZMzmDLqdRZeqYRiLXyWPLRRuIqepxDSJ5ZHzy7rNtw2KAuiqQWsOoffUrE8YVkVJUNip3BwtqQdgslLiMFOLF3eK419NVNLwQ4nkFoeG2w1cHq+0jdg7mFpaLhm4e92o8tEMcHmpldkYS0FFbwYWuyhhy+SBUcPCjBbqG72VbNQ6EtCp8QonRg6bqgqqQ9oXEHXRR5KEuaRrqs9XU7qadw38QhMGfmjLlidz8kJ8WXVqA9523XWjqjss0ohcAgvcQbp0TwbhFSQ5X5QVqWu10KkMmcN1IjqHG1jdTInvedblScj+lwutDxuEyYOt7SjSNIKjS5nJjKcu16rstIQND8VBfeO4ugubIW3BOnRRZHzA+0gmtlYd9fJAkqXSHUnVDDS9uhsmAuY7oVLhxOSJw6Kzgx8xHO12VxFj4rScL4t9p1bYqiQdm0Zhcr1l2M4dBRRxxuaXAbqmrquCsabODj0WSxOnMjyALDks3XYDLJE55FwdVRw4cYKnM7YclbxUkUo0sUCow1rXWspVPhk8LbNaS0jRWFNh72wuMjbkmyiS4PI55aWEX8FU12GS04IBLUDDMYnoKgNlJdHsfBbHBnwYmyVxcDpoFW4rhbKcF1wQsvUFhecgQ30E0cQmbdrhqCNF7f6FfSgyaanwzEyGkEN7Q819RUnDNLUtMjI2va7UEBCq+EYiSeyA+CoMawGIQuYGLAYpw7T6hzQVRT8JUZdcWCq6/A2Uo7uqmYJT09dPHELHrbkvffRRhj6ilFDRwGaS5NmjbxK9wwLgd1NEHVr78+zadFpHtio4BHEA1gGgCosQqhrcrM4jUNIcevLmqGfAJK0uklf2TTyG6bRU9NgscjIzcuNyT1Wd4kxMew32nGwA5qx4W4bjp4XTyjvv1Jdr8FMrYBC4lrgbKhxjHI8No5JZHd4eyOpWLwvhOTjLFGyuuHuOaSQHQC97L3LhTBXYFRNjL3SxNbZocdVLdi1NUVTqdxLJOWYWVRjTmwPY4OsdRvuqY4pF3mvfY+Kq8RnFi5jvEELL4pVvIIJusXjTe0a4ndUtJRCpmLiL20AK0dCewp3Nb7RGykYdVOo5iQdXbhafDuI46ABszw2PkTyT8V4qpnRjspmuad3A3sj4TWsqYbxkOYTrZaGOCOJoNxr1Q55Gsd3QC3mQqLE64GoDGuuOYCivg7QXA0KosYp+zc081RVYYyJznm1gsXiTxUOJ2HILNYg5kMtnOFiLqgxGpikOVhzKuaWyZhmGigSU4bISSuBt3WtopjIRkUyk+7Frp9W0SstzWi9G8WV8rRKWOz9V61Q1LKRoMkpcRqCmUfpOpvtd1BIS1rdBIdirrFq6nloXy5gWkaW5ryziOqaXNYGgOvc2WLxKD/vD5LXFr3VPTVAkBaXkC+xKlB0AFgQT0CDIYwdW6dQrLBsIZVOMgFxsr9uE9kzlblZVtbTBzTcW6rL42wRwFg56BVODYjVcP1raimO3tM5OC9DwP0qUgktUh9OTvcXC0k3pNwqOLMMQYOeW+6wPF3pXOIPEdFezTq+1gVjsSxt2ItBa1zZTu4lQqQtLi6c6DdHw6uy1Ze1uaC9j4Ld8NR09fUNkgkIe1epYSSY+zqHBuXYuFlKkxCGkHZxZXOcdLG6vsNw0S0Pazaki5udlj8TqqOqq5I2tuGm2bkjRcP0ctIHBpLz02WOxyhZBWvY5tg0XAKyeKMaZGBuhJUeqoHRR3zXv0WUxdjTUFt+9l1VQ37pxN78lw1JJsG2RWyaAlOLmlt76KKwZnkkeSMYtE5rNNdk17gNtUzV67ktsdV0SuGiRmd5LrYy8XJWn1CIx6PHMAOhUuCuDDe6s4cTZltoE41zSN9fFAdVBx0KE+TPuUxzG9UO9jobKPLM65F91HfTveC4aobSWSWKsjhEUsLXteLkXVPV4V2bjYqtlp8rtdU21kKYDcckuyzgEJhp3ArsFRNSvDo3FhHNWsPFFUG5XvJCu+G+KI4MTgfUPJiDu8L6WW3xTGMOqWNkhc2zhdZmtx6J0whDhY6XUiPhCfEIhLFq08whf3UrKR9g0k+SsBw7I2AvmZ3mjay3HDfBTq2jY5zLkjQIuI8GOpg77vntZZ2spHRygPYLjmFkuI48hOUXKyEsD85JbohxTVFC7PC8t8k6fHa2duWQ3UajjfPWRM/G4BbSXCu3p2xluUWsSi4dwjJEBUQkxvv3C3QhfXHoj477bBoRV2c8NDZGncOGhsvSZMQpMQjPZOAd+E7rK47TuANmfReaY/G6Jzi4EBY6vxuipGDtJw0jSx3KpZ8ejxI9jRsdLI7pyWz9Evo9q8RxoTy3ZTD/EJ2PgF9tejnhGk4cwgGGJrJZwHvIGtuQWiqXBrSqHEJ+QWcxOfIxyqKeLvGaTf3QeXio9fUuc0hqrHwCKMucbuPMrNUlB9qY6+Z3/AIem7oPV/wDRaWrxAQR5WiwAtos7WYrJIS2O7neCo8R4cqMVympnMbb3LRrp5rTcLPgw0sghGVjB3lqKri6Kgp8jiA0DR3RZOp4mpsz5O1DidSL3Kpq/F5quXtmveQBZocb6LG8U8TzUTLukIubBrTz80/h/iSYQhkhMrOQJuQrWpqIqtuZuiy+OERxkNNyVTUNUxlEbE9oHG6taKlqZI+0F2NO5K6yb1ebLYyDqCoeMYn2jHOPdGzWrPmSZo1uAeQ5rScKYvURB0TpMuU6C+tluYsddVMEfakuA6q4EgkpGuMhPXVV4jiM9wHFx1vupcxy0+ZgaD4lY7iGskDC6ze781gMRxueqeYWxloJsLm5cfJUtdBWRMzvYR9VksUiqKhzj+apXzHKQ5uUjTRQ/ZkPJPbEZ5ms97qrBmH5WfiKcKYxNcXaN6lVc+KCOQtYdR4pkOLvkk1Fx4K2wXGX0NaZWusw7jZayq4xFRTf4xDgNgFiK3iR3bSPu4vv3XN3Cn4P6S69oFPUyuczZp3stM6Ttom1IlM0Z1dfdZviLF6arY6Knks73gVlPWXObYbLsDJc47MkOPRabDOGcRrAC+VrG9HC63eA4G2giDSbv5kbK7noA6H6lY/H6mGizAnvdFiquN9XIXu06DooU9MWg2VLXDI4BRnR5rEJBtnAObodLqwZRAAGy6aA1Lmxss0uNrrmK0v2U1sUI1Gpcrng2rdDUdpIcubZzdF6CcYnq3R0kUhmvuW8vitPg3C8kUsbi8kkhzh4LRcSY0MHpGxtNjJ3bKBFw3DNTsIvnd3i66kVD2UNKMt8rRYA9V53jdXJWVEz3ubcaXXneN8RsgrOy0cW828lV1XE08jS2N2UdSqZxMhc8uJcdyhym7dEyMtbqdUVrg47WCeGttoAUFuribWRg7u6prnE6DRcDGt1JuVwkXvewTMxJ01Cc7MbBoSbCSe8niK2xK0ebkus8SipjnWKQncDujR1Ztv8AFHbU3G6IJwuGfxQzI4lMcHOOthdOa57BYbIcxJNyNUJlXLB7DiB0TZcVe8WLdfBQJJQ+5UZ9+SDIbtTo5nREaXCsBUU729Cq+rewvOQ3Cjh3jfxSzWIIPyUtuKvbEyM3LW6BR5qoyS5gSD5r1z0Jcbwvxf7LxV4EEje493Jy9yruGaOrYXwOa9u4I1Q5OGqaqjjYWgPsLgjdaPA6CDBqJ0sxa25sLqk4uxqiZGWsc10hHLVeePgZWTSFxyC1+9zWbxDCGTyOAs5UGIYM2FpGTVUz8Kte7LBQKjCmsu5Aw+DLi1NYWGcar1HBcLNbX0sBaSHv10Xqg9HuWBhbHlNtgj8P4BV4PiA7J5a0nVpGhK9KGIxwQNdKx0UgG9rqqxHjEtYQJTJpsWrAY/xDWYgXNhgY0H3nBYuXg52IT9rO4vlcbNB2F1uuHPR9T4PFmeGHK3NJJbVeucMObHFTUdGwMuMznAaL6M4aqmVWE0j2kWMYB8wNQpFcxuU2Oiy2JyWu1utllsRbI8lMHfhHJQ5GjW6pMWqXdm5rL3P0TKOEUdCxjRbS58Sd1ErJC5pN91WxuJcQ1o05lEqmyOjuXA6bBV1DU9lUyAyC+W4Cq8brCIXvkku6/NU+Hucc8r7uB2TXcR0uGzZJ35Wu68l576QsdgqZo4opATmL3ZTew5IPC3EuRjIpDctNg791s6mukNI6SMltxsCsnWY7OXkTPBZtYp+CYnSeuBk0jbONweS1FfxLR0MAjbUNMh5O0sqvAagTvnqe1EsTnECx0+CZi7GVU7TGRlGuitsEwP7VfHnORjtMxGtvBa2o4IohBeFpa5o9o6381X0PDXq1aJQ2Qlh0aCbO8/BaarqGzUDoI4BC+245HwVHO6rw2Bjw10ttyTqVGfxEx7HOJIcBqBusxjVb684ljiG8yVnqeARzyT3vl0F+SsZ3QVVLdvNv1WDrY2TTSOb3QTtZZbE6V7JnFsd2nnZU725HAv6qXSvEFYx2XODoQFo6enieO0BHldBxIROaGG1isjLh0bKxzpAW32upMNCy2hAKNTUfZyhjtjsVV4kZI6h8YfYDoVQ1kxzhrXnTdTMKnidIO0sCr1mL1EML4onHsjpcqv7O5Lne0Uo6YA2Gp3VzgEcfrsOdthfmvUcMw3NI3LbIBfL18FfUclNIXRhgjlboQdCoHEWLx4XSuJs6R2jGDmV5XV9viVYZZTc30HIJwoyW7KqxJradpBWYqX9u8u6JkYuEnE9rGDtdXdOMzbH4IscOVwOxBuuY1GyaFzwb6I3BeGSVwcx7yxrToOZC9P4Rhjpa5tNHHncNScuy3TpPU2SykG9tFmhNFj1aHVUzAxhvlJ18lpPXqeWPsWTMjY3TKCs/xHxRS08Rgis4sHwXiPFePPlnkDJnNLjs02WSeQTe9yhOceWyNGO7rzTJHZTayFu7pdEyubYX0RGkNFhquFpFymG97D5p1zayTYhuU4sGXZcba1jonjwXU1zrclcuda/VcMx+SXrBtbmuGe53vdObI0nRGYdNB9UUEhEDj1Ts5B6hdzjql2oHNO9YFtwhyStcEFxBuo7huhOZe9h8kLJZpJ+SBIwW2+C4WjIo8hTDqbBINOvNcLCDpqmk5dwQugg7LsUskEwdE4seDcOGhC9J4K9MuJYDDJTVczpoxbI46kL09npmocTpaaWCZkdRYZm7WPNdxz0gPrcJkAq2g20AcvD6n0g4nR4k8md00QdsSrnFPSeMQo2NgBilA1PincPcfRRk+uPLXdTqFvqakhxOCOpBDmvF9FOk4OE0YLY7g7EBUOK8HPaCMhB8lUu4OlgMcrYyS0hwPkvZ/R9wuMTqaSqjbl7Nvabc+i95wzDYq2Bo7MNlAs5o5FP/ALpQ08hdJGCbqsxvDWyHKLZAsrWYG1wNmBVknD4yElgUJ+Ftpp4pC0ENcCtHiFGRw3GY+9JWTNjGXchem8DcJOo4A6VuSQssB0Xq2BUvq1MyOM5Ws0Nuasal4cwjms7WwjOQqyema4EWv4KrqafsttlU1gLWnkqZ0HbyOuiyN7luirZ4Sc2ir3tyG2yFV1LREQSBYWWYY4yVmVgL3nkFdOwBroA6dglfa5vqAoL6djCRluV5x6QcnaxNaLXve3TxXl+PUUtIQ9ovG7n0VZS1tRQzCaN3e/CditbR8fy+o5JOzaW6d8lVD8T+0ahz84d0tt8E+SYRMJOyrPXqipLmZM19ATuAtZwRWMoaeSkm0BcXNF7bqyxXGKPDXdqZmsA3aTYlbDgXjTDMaqYHMl7MAWyE2N/FessrqSVsUTLOLjYgfRSoMJJje8NyjlmVBiQNPKQ+zbnQ3VNjs3q8EbMpOfpyWFxuHNMJY5jE4jYc1V00spjc2XUjmFFqpBFE6Npu52pKEHubASSWho1Cy1bXCN1y0687KpxVt4u1Y7MLLGVkj5buJI6BPpMQc1jWEkOZsVfU+JAxAvtcc77psmORyPJ7NxA28VWVNS6pJJbbzTaasdD3ZBmb15hS3YrDCwlgc51tLrO1eeeV7yTdx2VW+J4JJYfkhjuuHIhGjrpY5W2ebHdT/Xc5Bc7tBy6hHo6vLUN3I8Vps0UlMDGcrud9CFPwvjOopbMMuUs2cRe67iXHs7i57XdpIfwi31WZk4gr5aszySmRp9xxuB5LbYHDDiNKJgRqNR0Vq7A88OeMhwI2BWK4gwSafMWDQLH1dN6rqRpsVEEzWnQo0B9ZltbZXdHSyOkYGtLm8z0VjLAyljc+Q2NtlkpsYkDpGMALCb6plBjlZSVkU7HlojdfK3S69LofS/T0MQdFTXqXDVztAPNSK30qVOL0D4XvZG92zolAwCdrXmSscX5vZsd1ZV/HuG4FE6KPM+qdyaL5fErA8QcYz4kwsgBjad3HcrLF5ebvJcepTXgg35LgmuNkWB99CuuIcbrrWBuvinG3mm9s3ku9q3qhueHEAaIrWgeacuak+CFK3MdN0hdul9URrrrhf4XVwbg7FcOvJDcLck1wvYdUm3ab2OikwT5bAqaJ4yNtfBMfM0bFR31ZamitJAv8101Wv9F0z6Jpn+SaJieac05vNNdG8F1tigOa62pPkglpcdtkxzXN/ohOaLjwSaBay6B3gnuAA2Q0sjSNdEww2Nxe6b2ZduU+mJY/KTbxCmPlma2wldbzUCeMvdcnVAYCw6KTG3M3Ualb/gPjF9DU0tDWf+GvlEl9ul19UcHfZ2M4dF2MkckmWxF7lLGuEchMmVpao1JwtTV1AQ1rc7CWkK74EiZwrjDI6oZaOU5Mx2YT+l17C2mjoKiOqZrEbB9unVT8QliAJc4OadiFRz4dHP3mG/iqypw5rSQbXWfxeB0MTsjMx5WWaq6WSaN+uXKLlTPR42pqeJKeKXNNFA4Fse4BPvL6Twugc57XvaGRjYDmr+J7Yg7KNOijT1GdpLTYqorJsx10cqyeV47xCjSRmoaHbBUuJR5WlVMLxHPldYZhouVPcuVFErHtI59FVYiAzUC6x2O4oaUHmOWqXCMgqKl9QTe+l/BaivxylgpX5pAABv0WIxTiNr43GklB5kjVee49iTsSZ963I/3neHgsdjWIiqa2ljaSwauf5cgqsGK1tAh1NICwuYNCq6OpNI62paOm4UyLFWVEZa46g7lSqSup4bnNcnmBdGdjNPmtlefEDRDFIcfmbFAySQDfI0laD7P/ALi08NWaSQVEpFm5bkDqVs+CONcUxbiOAijdDCdXue64Xv7sfhZBAyVzWA6eapMSioZpyTaRx1uSsniM8c9RIwAhrRYXWOxd7KipLWHKGndVM4dlyQuIeeYUT7Lle8ASFzid1Okw6R9NksCLakDdZvHcIMDM+XS1isziFRDFD2bi0EDnyWTqYhNIS0d297pkWF9toL6aqYzD3Ftrk2T3ULm8igSQFt+ajvjJNrckI07jyTPViD7JuuuoyG6j4KqrKZgdcCxCjdkBfRMyFpuE9shBG4I6K8wyvZM3JO0O/iKsS2FozNIA5AaoYMRbqASeS76g17c1g1Ew+oqsIkc6F3dO7HbFWGH8czYdNIyaMOjf7oJ0PgoWO8ezVUD6Wnp2xX3lO9vALKuqXzNtIMyC8dGhXHC9G+tqHNEYcRyWwdh8tLEbgNsNgFkeIK3IXRh/aTHe2zVmi2+6VrJLtyNiR5Iraudu0zx/qKALklzjck3JK6SBuh9kCShSkMTQ05bkLna20bqUeIbEpz5L3DRdCaSDqhykgGwTI7u32RmBrdb3KM2RuXQ3KeDpdDc5ztQbA7J7G2GupTJe7qEHtLm/RPdLpotQWNKY6IHxQsgsm5Mutl3IOi5kaTdSIhG4a79U8wxH3ggz07bXFlEIEexSMgHMLnrNhYhR3z3OyTJSfFEZOQ69z5KQ2uFtUu0bIdh8UjDfYphiy20NkJ8YcNUF0QbruE9sbXAO6dE2Z4I0HxQWuB3C44Ai425okIz2/wB2VpQYSZ6hoI7rtE6s4ekgldZugOiF6tmaGluoUd9C4ciEJ1E8WKcyieRmSkldAA0hX3DHpCxXhedktHUOGRwIaT9F7vwz6bHcW0oZUPEMw0c0lel8DYrSSVdnyAiXunXS/Ja/GcLZJG7ugghQqT0hHh2kNHiEoMbRlZI48uhWR4p/tBYVw9E4GtY8coib/JZLAf7XdEazsDGY4ibAvXqOH+kug4jpxUU1bHKXf5YeMwKkxY3PVzshyG7yGtPiVu8N4FFVGIYohO+SxkcQtTw/6N6bhyYywxkzPN3ufz8FvY5Yo442NbZpamyHKNFXyzBl+qpa+ozXsuMla+AE7kKPHVgNcx4yi9wVXV4ZOXZSHeRWcxCExa/JQTW52lrtwq6qnMTi4EhVVfjDWss94+KxtdGzFpZc0hDRtZRoKupw+P1ega6Q7Oda9vNV+O4yTRmjY5naON367LMGZ8ZIY86DW2igVbZasWfJmGyrn4RrfcKuraAjQs+NkKngcIiwAm3VZjEpclVIwcjqoJnfHctI16rQ8G8MYvxfK9tGxjYWGz5nmwHgOpXoVJ6Fpg6MT1psTqIxy+K9VoeDMN4QweJ0QbfLcuDdvNZHieiZiFdG+iqXVLiMthtrvotBw/hNNwtTNmqLuJ7ziRYXULG+J5MQqQaeQsib7PJQftGqc24qXt8QVW1GNyxSvY2RxdbXMdysviGIllPnY94lzHu3Vxwa1lY18lUe0ePFbelwfC7vnMmrW3yOdoq2p4lw6m7SAAOeBcAcwsfjGKvxNj2wMDQdNQvM8ewuR9S1tzobu5m6iHDtsrnXHO6n4NhU89VbMS0giy0rMAawWDLnqUyfA8gvbVVUuEue7QX8U6Hh10pAy/RWA4VDWba+SA/hsAE81U4jhfYMJWZqMMkeCQNVWyUxaSHCxCC6EhCey26NRzCF9naeKs/WWhlgdUelIMgJVnC5zpmh/scuifiteyCJojDT1Kxr6k+sySvN3XNh0QjKZHFzjqU8G6Nka46qbhtdNhk4mpn9m+1uoKNiOOVteSaipeR+Fug+ip5LX0UR41Tg0AWQr3JA5JFwG5sk3XX6JE280thqhyPs3RBERlFzuhSOJ0uiwxXIPIKQ86WCaIjvt4JCK51CaW8g2661mYkEAWSEbS7XZNcADYC6IGi2vyXTIGbiwXc4toboEsuY2uhhuXZcAJPQBaTtzfVdFRfmUu2bdODw51jojtpe1BypklK6MHRDjhsN12Smfa7SmMppXHvE281x1CSbJzqLK3UXsovq2Z7uS56n39Tp1UyOiia0gOCiT04YdNVGkGXTMh5i3YpCrcw6koza+4sSnesNOt0x0rS4EahNzi+hsu6W1OqeImOicdLqPk10OidTyGCZrj7IOq3VFSMfG3K8APs5hBVnJH93llbd1t1DiwmN7XvIss7itTHTyuYLHxVW2rBO6MajKNAq6qkdK/ogta4a7LjcTnpZg6CR0bxzaVp8E9LuOYI5ro5u0I/FzXr3D39rSSakFNjNIWOAsJ4zf5ql4t9M+G4kx7o5nSk7Cy8XxfFHYxWvmkJsdgTsoYytG4VlgPFWI8MVrKmgqnxPBvYG7XeYX0P6OP7TkNVimGU2KULxUGZjQ6IXDjey/QLgSppp8PjlaRnlAcbjXyWmniz62CpqmCSAu7N5IJ0B5JQPLorPccw6ndRZXAl1zrdU2IzMhY5ziAOqq6TGIqqQQtftp5qwkbdobYbrP4uGxguacrxtl3VDNjI9io+DlAqZ4g27HD4FZvF8aggDs0rR5nVYXE+ITM9xYC4X3VG7H6tlQWQ2bm0udVPZjs9PhroYWu7WQWdKd/Gyy9dTFgBAOdx3J1J6qtklnpn6OMg535rWcO4fDjlIHtaWyDdp3CuWcMRxXdIN9B4qrrMNhjqTTSsa1pGjjoshjlI3BWVEtxZoNr8+i83mjdNI57tXONzYJ1LhhrJHtzZQ0X03Xs3odfDhmFuppWua25fciwPxWrn46p6asbThgfrYHmi8RcWyimaAQ9lrFjVn8MxplE31h7HZ+QLbABGr+Kvtx/q+tgLkDYeah4a+mlzNkmBIvZoR5KuGNhY45QNQBusfVzOfXSSEkAm4aVVV8tw5wcSdzoo+GcR1OFSyPYwuuLWOxVmeIZ6+LO4Fp5gO5KLiOIFsGZoDSNQSodLxR2YaJG2HIqS+tpq2QSuaM34lDxCiDak5G2BF1a8JwgV7GubvcLfswtj2izNd9lFrsIBae6qiTBgDo1SKLDu+NNkWtgyt1aBZUVdPuyNtzzKpp8NdUEl4JKgVWHNp23LTbyWbxbDRm7Rm3MKmkhDVDnjzC45IFs1rIrxlAOxUqkrLWEmnirWoxiN9OyIAh494bqM8l1hIe6dblVNRh7wXPZ3272G6hFpB0XQ4t1vZGilvzui9uQmPkzc/mgvlA21KASTuuOc74eCaCATZcDA5xJ1Xc2W43Q8zr6BdDy7dBc+77ck7NpYFcZFndpopDYgBuT5roAbysmuma0phmzbbfmmuOXnqnMcRy18U8HXl8U19uZ+SYXho0Ka6UuTC2TlsnNiJN3bpxjt4hcyk8ldmJ4Oya4uZy0TWzXJF90VstvJTqaqMYGVGnre0bYjVVstZlPQdUm1rtgUVtc5u9k9uIMa7vWKM+tilGhtpsoUstibKNJUC5udQg+uPvYFckmc/ndBJd5oZkc02cmOdmQnGy6HnNa5TxK4eKeJ3HldFD/BOa/oUrlIEX1U2nxiahcwsebM2BK2tPxnQ1tPH2uWOQjXzXa2uhmpiYZm2PQrH11EZbnOHO6KmmhdTm+YtsplLUCSHVwLghTSd5BMzG6FyiyR5nEtKC7uk3SbLoQmONhoh9u7MAdutl185eQL7Lj5HNHVepf2ccPpMW9I9MarK7sInSMa7m7QX+Fyv0u4BrZJaSKFosGAWlO1l6a2qY2JodIC4i+ig1EsTBcm4OoVRiFaGt7oJPKyhU9X6wSHaO6c1VYrAamTIdbclVxYWIaoG1rjUqXNVywe9mA/EFmMVqz6wZjudwFSV00crS8EZSN155imLSslkbTvORzyB0HkqZ1KZxdxLn31LtbpwwOaZoyNLs21kaPg2Snp3yyj715Fh0CsKDh+FsJY+zng66KixbAbVz8mrW7AKPW8MuNGZmMzNAvpyWi4dw+PCuxkay7Ay2iJxNi+RjBBHY5r3PJUmLYBPjEIla92cjM03WPqOB6uokImuADtI7RSKHgbJmAEeguSNUHEuC6QSiePPDUD2nDQW8QqvDuKfUg2GSVndeQAzS4V++akxQRzRW7Xk0pj6arqKpoe8Mjby3UqZ7pY3xZg7KNLBU9JiL8JZPCYc7nm5f+ibBjhppAXwDLf3RqrCPFYal2YxujZ/EiVGHMqW9o0i558lR1tI2MFjiB4dVlqmoLa4U8bdDrm6K2oqZpZZzsrlFqImVjuwjOYk2J5BS28F+ttBkJAGzRsU+Xhr1KLuC1kOGQbSAXGmqsqCVlNK17SBY3C3lFjdK6kErnBoA1R6aupMRaeycHfBQ6qAdtkA3UqnoWsj6uPRDqMHfU7jRV0vDFj7KaOHw0ewR8FEq8BilY5paD4ELEY5w2aMuGphds7m09FkZcMySEEZgotVgrZRdoLD1CqpsInpzfLmbvmagmHMddSl2QtZEijFtgnSSl/dJu1ugUuhe15DdFDxbDgydro9nqvqaCSEXvdv5KGRYp7Jcu+oTXPL91xMDwL3KDJPzuAEmvJ8AniUOFgulwbra6HLOLXAsUwOzIbnZZbJxflSFSRsNFx0sh6g+CI0vtqkYw7XUpzGgNJXAdbkLpkJIAGieQ63s2803sHO1P0SdALc/iuxxA+aNYWXMgTXNtzTVpXMkYbbqPNG46FqiOityshuaS22vwXY5ZItjceKI6uedCEF7y83001sjRRMmFwQ09EyVjmm19AgEcrobS4G1yuukcBubJnah2+pSIFtCm5iOd/gkJxexCG8lxJTNiuGMv1B1TxE7KugEDZEj8t0+9txYLhIHkh3dfQm3gU1z3AfqhG50uhnNra/mntq5mAASOA804YjUNPtkoUlXJN7ZuhOnMWxskMQeWnNchD7cyO1Fk8S5Odx0TxJ2lr6BPcxtrtI8VHNz0CReA2xCHGwF+uqIYjyWw9EEFXFxvQ1dLKYjSu7V1tnDbKfA81+ovok4mp+IuGaacRCGUDJJGOTgvQpqNlRG1zm5rbNCVBh7ZJXOIuwf7spFRQwa2jaB1ss/iVC2JxfDa4+BVbNXRxyNdK3LbRxC5V19Iw3jIe7wVHiGJUz7tbK3N0O6yuIzAuI6rJcU1vqtIGMdlc48liKh12AtNw03UmOx15ELe4VQx+qxuaAbtABCm4lQ/8AdxeNzw0akDRZWonpaCazHB/a7gG+UqOKftZyHt1PM81JpoG08paW5o3aFq7VMipDkjsG2uAFmsSyzuuTtuiYbj0VHGKaYbaNd4dF2pk9dzCGwJ5nZZnE8YOD2jhzSvcdZG7XVRjmITVVC4uldO1w1aw2+awTY4YZs4gN7+8runrHyhgY4xu2ACvIKispodQZhbnuolJWPgqDd+UuN8rkEYmyoLiR3rncIUr4omdo94NtxfZRGYu2RwGuS/JXpxWOnpc3a5QB1Xn2P4zVVWICaKR2VvsoOHipxCqzH2gbudzWmFdHSlrZ7tHNwWg4Yp8MxGQvp3smc3lfVXmPVDsHoJJI4wZdhcLzSpx+qY973TvOY94O2Kivr5J3HKTrzAUqjo5ZzciQ/NbXhXhefFpRFGZGA2z3vay9Gdw/DhVK1kcWQMCg4awYliJjLSC0LZU2AwxxgkLsuGQxi9lWVMERdYWUR9EDqFW1dB981w0vuqTGcJbPBI1zbhwK8rqKF1NUSRP7xabX6oJpCTsmSUIcNrqixHCDHeRg23CqpKe1zZMDcrUCQG1rJjHOidcKWK/tA0SakbJtdO10R5aKkey1juChk2CaH9V1zw0KuklOc621QZ5baWN05s/8Vj5roqQwb/BcbVGQkXsUKR8gdodCiMLy7cg+Cltiv5rj47HXTwXezaQE5gDbWCKA0bp2VhTTZoOpQ3O03QXzW2RIpy4d5SGStIFiuvfl5hCMhbYgaIrH33+q452ujkNziTYH4rhabXvdb19DZ128l19G6Rvs/IIH2WSDcKHLhlgdD8FBmonMOiEYSLXCY+AO20Q3Rlp7uhQpM7d9VFdK5N7Z3Vd7QEG64D0Nl03F7FMJPimhOvcf1SaSDsiCwNypUL2OGUi/iF2aNoGgN1HDg07Lvagbgrombl2TBI25ICbnzbN0S7K4va3xQi2xIKG9l00x7eKY6PK5MezMEEuOzdF3M6264BonWsOd+qc0kjxXQ3W5N110ecahMEQabgkIgNt1q/RzjrMEx7M4aSssL9Rr+6+5P7L3HjMTmnpZpGtJka9jdvNfWOXtGNeBcjkNkSIhrDfQkqJV1IbcXWbxOoe65abWWTxF00rstwATa6jVcbaWGzQQPNY/Eqoife1juqbHccAaI43EPG7uiwuK10lVLmfI5wbtcqraamUF0d8vMnZTYcUFJT5Z2udk2Lei9C9HeNeu4fK0ASRtf3b7hbXGeIac4cIsgY62Vx0svLvs01T55Iwe682J6Kzhie+hZfR7dCotQ2amH8bhcE8lU1Na4yN7Ua2sSFVVdSxxcALgcwVj6zHWRVr2OfcbgrR0fEeGS0zXmXLJazhyVa+to4nOLpGyx+6Tusxi2Oxumd6kAwt3AboVQ4libqiPP2Y8Ra1lFosQkaALHqLDULbYPjPrMTbgOIFiFGxWWOllJe3MXbO6eCp3YlBQwEFuu+irDXeuwvdawedAuR1TKaMMfpJzvzVdXY0HP7PP92OiqZK8iS5N+itMCxfsp7hubOQA0am63uDcCTcVPM0zzFTfw+9/ReocG+gGGFza3O6kA2DSc7/PoFvm+jbCpMsc0LJiOb2l35qNjv8AZ+4cx+ACS0UrfZMLchafhuq2m9AnC+GgCqvYf8OQgn4lSncHcIYWy1PR57c5Hl6iGTDMLcX0sLYf5VRY1xHHJ3Wu7/K52VbhmNx4bUtmsHOG9ua1LvSFhhg1zMf+Gygw8fUFXP2Vyy+gLtijy9nKc7TcbgpzGHYG6BVU0jhfoqeuY4M1FrLAcSYQW1YmaO6/dUk1KYxcjRALR0UWqYx7TcaLOVlKInm3s9OiqpW5SQOqC6O+qjTuDARuVG7w1TZpC5mqilxIsmP2UZ0uU5RuhSSuv1UR7CX3IuN04PFj1QzBc5rXKG+It3ToTra2i60nOSRp0UlpAIN0UTjXqhumLibromOwHxRA8tsSdEjOAbjVL19nMa9EM1eYXB0TDVAi91FdUHNpsix1FxtpzUhkhcQW6LrnEm7jquskc7S6KJvFLOOqY51je91x01vJew+rg7i6JHCGkXC6acO0DQUvsoOae6q2rwYW0bqq2XA3BpIafkoL8JLCbtUWaiLVDnpiW7KA6Eg7XQ3QgbiyYYwBubJFgIsExzS06hMcQDzBSBBvqUmudmRWkack8ZXHVSoYWkAtNijOvHo/UdVFlfFfTQoJDD7yayI3uCEeKmJ5JGENNk0synbRIhrt7Ib4xa4+KE5lkJw16ob2EjTRB7F17rvZHn9FwtynwTr8kx0mXkk2oANraorHh2t04oD5MjtPknNmDSHAkEHQjkvR/RT6Q8XwHiOmbTTXBN7nS1tV+k3oQ9MVPxnw/BHUu7PEYxaRhPtdCF6TX4k2Jt2kOJ5KirsSeWl3Z38AVUjEH1NR2Bp3NuL5swKj1OGuDu0e4NZvuqLGquNkbg99vgvPsaxGJ0jmRZnSc8ous1PSzVGZzxYcroFBgIxCrDHC7Gi58VdV+DCngsxlmjlZY/F6UCJ7SLXuFdejylqDh5j7F/tk9oBYLaSULY2gyd4jWyVFTdhLKXx5WPF7lT34WWxNeLAHU6clCxFsWzwL8tFiccngY8uDm3buF59xLxzh+GwyiwL2tNgOZ6Lxuox2eure3Bcy7tlpcDMs8pvL3S29uRUmmgfI7K+S4B7tj9FY09K6AOeWZ3AbWVdXNdMwjs2MBG4KBRYXPU90NJjvrbmrDCYTh+LBziGMPcc2+g6LV43h0FVQB77EuGlisZV8NyviIhcZD/GbhV1JRSsLu2ys7PQZdlT17Jp6t7aZklTKTYMjaXH6KxpPRjxRitMCMN7IHZ0zw36IFd6IuKqSMu9TbKB/w5LlSeBeF61uJSNrKOeKRuga6Mr6t4S4Zjp8DpHxxOytylwyG69LwV8E9KImOAe33SLXT2wiOtcDa9iUCuAaHW0KxfEHavcRGDuqhmGTzDWZjXdHBVuKYFWZTYxvHVpWTrMGMRJeDmVPVUYbexVPVCRoNnKqnnlYb3V3gXFUxAp5ZCXDY33CvqXiSopqlrHPNibDVaEcSnIM1j8ECTF45twNVRY1UwGI3AACxNdjNMS5oB81VvxGJ4s1vzUGpro2g5rtCral8crLteCPAqonaA86hQKmcNuAbKtMpc/U6dSiiUMGp0UaSpbY2Kj9sDshF5zHqdkPJYlOcRlGyiyGxOiA5wcD5pNkLTZdfI06ErjcgO6fYAac1xrMunJGY5pFjZcdGNwRZIaCwKViSu9m43FkM09riyjugNtBolHG6+2nVdfT2sbrsdo7ghdFSb6BPD8wvz6IfrGU6iy66ovsdVxtTbdNfVE7C64BJLvoF9LRYO1zfaFk/wCxR+ILowyOIauBRBBEBugyUcT3dV2TDInNAH5KJNgMEwIFsyqKjhMua6wuQqmu4YfAzMQqObBCHatUCbC7aWN1CmoHMvYKO6Bw5IRicCmOiJOyYYLcrJrYze+qmx0ccjb5spQJoRGTY3TBMY7WJRHVjpGgXughhlJ6pxiI3Tmwv3aD5qXEHt1vcdEQHtdC2x8kJ8VuajytLdTt4IZeMoBummRuw0v1TTYk3THHTQXCa4A2sLFMcCmnupuhTCDfZIx3CLDTOc0louOa6+F4aQFGfHIDqEzZ+2oWm4IxOkw3Hopao5InAsLz7t7ar634Ir3xQQVWFPMbWjuyM2K9nwT0rV9dK2klMcsjWC7tnXW4osSrKilzytAkcL5W+yPMor5HvdHI2UMkt7TdU1tDPVsvLM+R/J11m8ewmrjzMvdvUqn4V4RkxKtnnfrC3u68ytNW+jvt4S5jwBbQZVV0PA8uHSve4MNwLttqpdVwzHWNEYbbNpfooFN6PsLppJZJ42vjZqZJdSfLoobaaFhmjw7SAO9rqoz8Pn7QSPP3Y1J6qNitU6OIkNzW6Krxbiv7Lw4F7w+YDWMFef8AEXpSpI6cvdLlIHsDUryLG/STU1ErzC0lrtsx2WJrKiatldLM8vc43JTYRlBK0nDzi+B5vq0rUYFg9ViVZE2FjnMc8MIaLkknYeK+osD9B+Gw4VFJisQlnLQRTs2HmeZVFxX6LcOp6V4hwpsUNt2x6tXhOIVNPhGIVFIHZjEbd1Vb+1r5RDAwl79A0auctrhPo84pmwxjDTQujA7ollIcB8im4pwxj2B0Dg7CXSdewcHf1WIw6hqeIcfjw+P/ALpI43la9h7o57819FcI+j/CcHo4WRUrGvOrnAauPUnmt9Fw7Tvha0RsItbQBSIeAqaQ5powGfgG/wAVMh4NpaEtfT0sTAPgSn4g5uH08hgDIJOo1JWExbirEA4scCG7ZgNVBoOKZ6WrjkdK5zb2OY8itFPxIJYCcw2voVVx4j66c+hHigYjViOMkxBxH4SqP+88LXmOQOadtSo1bV0lWLg7rOV9NA69ntWfraFp2cD8VR1eG3/oqiSAxSEjQjYhS4sSlcwNkN3N1a5WbeIHdnd1rt5IbeKQQRb5FVmI42aoFhuG8ll6mQNlN72KCXG+Zp82ptREJ2XBVDiNPLTd9t8l9SFVVVc4NsD3ioL5iW6m6gy1DgRqmmoJ5lNEuY2R9m3AQm3uSjO1agv2so8pABPJQS8X00SExO6fmbudCmZ+9oEYS5QLhGYc4vsjwhvMAp8mRo0bZALh5BFjc1wuEZpaNk6wPIIM2UaFALhsAmkDnqmlmZNEbWnZOcQ0XAUSasjZoWpMIe0uFhfquFzbp0Ra113IrqhubTUL6LhlqYSAQdFIdiD2jUHzKC6vJ1UaWqJN1xuIBm6OzFWvI3uk7EWtv3j80WLFm21I2TKmsZVNymxF1ANFC86hJuCU0xu4DVQavhen1yi6oa3h8Q5jcWBVJU4e2MlQHwC+10zsARyCY6nPLUIL4Hg6XHghOY+2pumPaALELrA3ayQzNPVPjfmcbiymQVDY3APALVZ56SoYGteA48kKXDyNWOuocrJoSbhcbJHKLSNIPghTRQ+4SfNRJYLnui/mguhcNdQmZXXXR3b316IZvfZDeT0XG31uEwyuDtBoiNs+52Rop3QiwOhUiKpz6OFyVHqHEXsFGZJd+oF1qOEuFv7wSPklDhCzk33l9X8M4DDhnDdFS0ELoRFE1oAJA2/daPBOHKrDJo66p7SF7/8ADDRcG/U9V73w7M1uHRCeN2YtG/6qYaNk5f2bS3Tfk1SqOPsu8bu0s0dfFVld/wB8q/Vg/vSbj8I5qc2liwij7OmJjaN7cz+6ssGrm1HZxX7QPPNWldh8RLnWAPRZnEovUw5zW3A1ssZjmMSzxuhjFr7gjdApGR0WHthYbvzku66qj4mxh8N46Z97d3TmvPOI+IpoYbdo4SA3IO3mvNsSxeuxGV7IXSXedS03uqY8D4hXuuwC/wDGdPmmH0bTRH/vRz+DNlXYvwcyliLomlrh12KyMkTs/ZMYe0BsQtFwjg9XVVzKdgvJJy5AdSvqv0McCQU1U2Zw7R1M3u6aZjz/ADX0DQwGolfdh7oAFwuYzhEUtDKXtaBlJN18V+kz0WYjJxZNX0LMlNUSEukfoL8tFovRn6MZqGZ1dUVDHyA5W/d+yPmvc8LossH3rRlGxA3UTEcOZiFQY7NjYdMzh+SqpvR7hdO98/YNdVOFvWPfA8D0WZxB1VgM4jkcXRk9yTkfDzVjw5xi417Y5nEZRcarfUfFIldfNdrR15oWKcbCMEBwv0sshX8VmZ5JcBfoqepxVs2YF976qkrqxjBubb8tFGixhmUjtSQNtVKwrHmxSGPtedxdXclS2riAuFkceoyMz2bjWyzTcXfC4sft1QqjEL67qsqa0m3esqyeuNvaJ+Kp56t7pTZ3mhVGJdmy1xoq44w6Z9gfAp4xJsLdSmDEmSO33UyN9PMzvWzKJVQsF8hQaeMPJbIfkoeLsZFSykkZQ03WDkfcklRC8knW2ugSazM251KY6KxKUbLXKI12hvshtdckDquyOIFgoM9c2J9jqoktaJDugumFvErjJRbXdFDg4Xuuh1k4PFlIFS3LYJ8VRqeS4+cyGwKJpYBca7KUYS3T+2A3Q5n35oHaDLcEEphms49F31htib2Ud9Yy51uUx9a141NlBldndcI0EnZtsTfzXJJrklqZ6xrqmuqrEar7hqeHox7gKp6vAGkkWsq2bAsvJRJMGcPdUGfB3XvZV82HyMvYFQ5YJmA6FRi6Zp6LgrJWb3KMzEyzdSYsXtz+alxYnHJufioGM/eNuw3BWQrL3seSgv7qFcjVMced9VxzrsNwg2CE9mt90F7bLmbwukH2IO6PG5srbXHxRm0DnDM3Q+BTWYhPROs4lzQraGvpauDOZAHgatKiev08UlntBarmi+zatuhAd0KBW0sENywAqme+NxIIAUd8DL6fRRZI8rt/oguCC+XJuEPtQ42F/gu35WSN2jZcEhB1NvNdL3sIPLqCmvqL87+aZGNc269u9DtI2pwujigIdPUTZXX1y3dovsfA8HpsPoYqfJ2jyLEu1N1fYThRqTTRSNEjmP7oIvfyXoVNw4ym+/qZnAW0YzQKNX4pFG3s6dt+QA5oENe9rHCQZXEaWVbC9smKNmBtlvmPMhXL8QhrXCLK4sG4A1HxVrQUVJQGOWM2cdQN7KbNX5x3wD0J3VDiVbGb37yw+Muhmq4ywBhBNyFn8TxWPCxLKZGtD+q8qx7iyVld2rD9yTt4Dms3Vvkxmoa5zi9z9gdgrmhwaGkYbC7yNTzK1nC3B+JcRuLKOmJY0/eTO0jZ5nr4DVbF3oroqSMmsc+sk5+634Bef8ccI4bFTSiOnELraOaTcLDcN/2esex6Z1dO6LDYpPZEoJefG3Jeh8M/2dsQwWpfKzE4JXOaLdpER9QV7V6OMAm4WgqfXZI5ZJHAjswbNAFtyvR8HngMb3A7nVMxd8UkRGYEcwvKeOaSOShkFgfeFvBZjh2QSFsEYv3ze3Rb0uaynAvyVdWvZJC4Ef8AVZSXimow+V0UjTJFtcjZV2NY5DXUj2yQXBCwkVWaWv7VlxHsW31t4LVYdxJEyIBjySNwTqh12PCpa7Lr4rOV+JvjdYk+KqpMYle6zXEX8U5z5ahha99iqWrbNSOIzXG6hfajmHNms4bLR4PxmDH2UzgHDZ19CrGoxNtQwEOBB5rGcSB1M/t4z3CdQOSp4sZNrONwmTYgH3soFRVtIPVVk1U1ozE6qjr8QBcWg6qCyoLDcOXJapztSU2OqJPtW81Z01cGi7pB8FKOJMLe7qeqhuxLJc3uqXFq988TmF1weQVE7XcqKWWJ6p0TtDfcLh1uSFwPu3ayFIbeSZ2vZt6KPJXtF+8CqeolzyudfdBMmqfn2TXvIIIUiObKE81At4rjJ7X0TPWS12uxTo6gAm5uitrGh2pTnVjdCCu+sWFw5JtdlOpsiNr840NgmvrCRb81GfW9kTz6ILq3MDcoMtUXe8giQ3vfZcfOTqCuNnN0+SpuN1xlRpumma7knTNB1K/RySivcFQqjDAeV1WT4Te+igz4WW62UObD97j6KtqcLBvYWVXUYYPwqtnwwfhVdNhrelgokuGaXAUR9C5p0CAWSR7XQ31EwFrnysokwEt7t73VR34dm8kKbCnAbaeCiPoi241JQ30jhsFGfTvHJMdE8DZAcy9tEwtIHgmO31CYWX20RGVE8PsO0Q5aiWQ94BR8jibi4XSx/wCIp0VXNSuBaT8EV+OzEWdf4qG+ve83siRV9tyQpDatkg8UyV3hoo8ttOS4GAC4Nl2xItYFOAdYXCIaeOQd0i6C+jNrh2yiGwNrojC3Lqtb6MuJqrhbjHCqqGQiBs7XSRn2XBfdmCcRx45PRPZUHsp7EWNt163hcUWGymrJDYmDKCTsAtHX4jDU0zJHuszJmzcvBZaaeoBMlK3O0+GgTsOklqKhzKhxe8gG3RXLsAzSN7PugjvvI28leYVhUMJbk2Z7RPNHmrIoHODfdFrWVFidcHAEXbfosnjWMCnY4B1yAsRX44Is0rneDbrzXi3iKSvky7RMOg6rGY3V/dNO/KxWhwanFPTiVw7+QADp1Ww9HfCs3G3E9NhzHlkJvLPIPdjbv8Tt8V9PswWnwagjpKOJsNPGLNY0bePifFZnG4nMidovJ5Jaev8ASBhWGTWcx0naOB2NgSB87L1LHMPjjwpwc2wNvmsdPiuI4HF2lIfWYRvC+5I8ipOEcVYnxE+ONtI6OH3iOfhdegYfUuooWRyd0ncXT68unjc5kunRYHiSCSSnniBu4tOVYXhCeSllka82e43C20dc9zdXm6BWTvyOs7RYrGq0tnBA8/FZ+vr3FuW2ipZQDcjdKnpKiZuaIGw946BTY6eqabvkYDz03Qa+N8bS5wDwdyFXdwchm6BP7drW6FCqBHVROY7cjQ3WQxKHspHNJIIO6q3TuafaUyhx6ekNi7Mw7gqwq8QjraU964cLFvRYueZ8Erm30GxQXYg5vVR5cQfc6aKvqq7Lpmuqp8ueQuTM3xTS/qUN7tzyXG1GU+CleugNtdRpsQ5DVQpakyX0QB3ggTWzKFLU5JgL2SfVaAdUmv0F3fJRquZzQCHWCqqivLrga+ZUYzvPNMJK6F0m43SJundrbTdcExXRNouOkuE3MAV0ygapesAeSa6rI05ITp3E7pzKkt1uiGsDhqRdRpagl1kwzW5phlXDIbdEJ0xGxSFQbbpdtcrol1XRJbmkZAea/T6rpJGG5CrJ3uYdRooT6kKNLUNPK6hyvjcTcWUOo7I7ADzVfPDG4bXKgTUrbWy3VfNQgn2DZRZKFoF7KHLRDoFClo29BdQZqYDdgUKWNoNsmyiSODdgfihioOxsQmydi4X5qDUkgd06KP22Qd5t/JR5qxh0DCD5KE+VrjqLWQzY87phsb7JpI8Eu7fouOa0G9ly19mphak2JrhcpGljd4LjqSNo9rVcFCHt6DxTThwB0tdBkpXHmR5IZppeTr+aYWyNNiy66Lt1LSk6oO26YHFzk9zJCLC/zQXU7mu6kp7GuboW5h4LV4HwViVaY587KW1nNzC7h5he58D4xiXD1JT00kxqjG8GMsYbjw3X1RhVfWcScOUs7qZkMdm5mNdqbb3U/AWVuLY02nqHsbG52WKIOOg8QvW6Lh+kpKRkbgHeA5qO/BKOmmM4jyOOgsVIy2prd3T3iUFjo6aBzS6737kclWVc9PBG5zLE9brJYpjUccobfdYrG8Shc5zjJusDjNayaVrWuzXdZY/GGh9RLrZoKzFRJ61iMMftNBvfqtq0f93aB+EL2X+zc6KkZjuIy2BtFC0nkLkn8l6fNxW2eaw1be11Bx5+eI6Wzc15nieFzUnElDibImydlM0uIAuGr07FWur8PeGHlcErJOp+wdY3JPNXnD7fVoyGsaA43JAsrLELSNDtb7KgGKy0VQY5HHIfe6KsxmpkdI117jbZYOva7DsTkLDYE52+R3V3R4l28LXA7hF9ezAg2Ky+PubM0ubu03tZZ+RrK2PuECUbt6qvZB2tSyI3FzrcWWglrKWjiDMwBtawVPiNc7su0jaLcgXAE/BUP21L2gZKxzCTazl2vhMDu0bo0hUdVXuhBN/koUOPOdKLnQHqucQF/dk91wvdZ5/evrsgvmMaivxGRmzrBRpKxr9XKOZmE3v8FGq57sNrBVTyXnUpp0FkN/JMOyFe6DIDob800uJGpQ8x8kyR2VhKHHJe6DUvytcVR1MuZ2a9uie1+do10ATZJ8hF72UWpqC8EN1BUItN02xC7lSuQkHdUi6+yad11Mc/Khvnt5obqhNM190u00XDLpumZ/FNMtvFc7UJGUBN7fyXHTeKGZCfBNvzulcpAkJZz1S7XxSM+m6/YatwFsgNmfJZyu4Xc64a1UVZwnNrlafkqmo4YqmXswqDLw1Vi/ddbyVdPw/VM3aT5qBLhlQy4yKJJDLFu0/FLLn3A+KrcQp3tJII8FSzMe06u1UKZ4bvrZV09QATyUKSQHko7ww7i6jSQRu2Ud9EHHQlAkw9/JRpKCTqfiostFI0ai6ivpXtvohGB4vcaIboSEzsTtuuFjxrYaJlnEm6exjnA2Gya8SWsRoEMSlpRRM3S4sVx0rB7PzKe2oYbC9k8TN6rpsdCEwwtPgmGAA66ropo3bbIbqIWNgCgPpiNA0ppjkGmU/JNc13Nu3grXhSmilx2nE1soNwD15Lft4N4hrKwNwF0svaOIs52VjPMlfSnof9CFZgdAyq4irm19bNZxijH3cY6XOpK+icMfRYVgkcET2MDeQtupGEtpqmtZUsa3t2/wCaBrl6LXOxRsTdeSgVeKOmBIOYBUddjopW5SCL8rKlreL5X2YxoaToqes4qdDG4SG7SNDzXn2OcVmrncIrt10JWaxDGnS6AnTRUklWWyl5OypcVqzMZDmuCblUMTjHWxPG97LYU9YHU7dbm1l6HwHjQwrBqykY6z6mMTNA5lpP7rS8McTetVjaeYkEEE3XpUsrauja5uoBssjjOZkxjYzO52gaFpMDmmlwzLILWFtVHqMODpmvOynNblboLAJ73F8JG5CoqukbVRuDvaHzVNN2rY3wyd4tHNZLiRvaUzJ2+1GbO62VHQ4saaSxPdO46K2GIBxzX3VTiMxbNfdh3WexGGSNxlhvl3OXcFCo8VcZmmUNlsDq7Qj4oFVWdtI54bboAVS4ix1U4FznAgaAHZNhqXRxNZP99F4+03yU4VzKqHsr307p6rHcRSvpmOAvqbKjgqMoAV/VVT5MKY12oaBYnoqWaxjD/mqyaQDcqBNL2jtBdQambswopqSfJMmnJHgo/aJpmTDJdMLvFNL/AIIMj9AhlxKG91ggSS3YfJMhfpdRa+awtdUjvvZPBH/w7WuVGnJJvrZMF3AJZbeKE9pCYTZcJNkxcvldqnAlNdKGlBllDuSjukAugPkN03tCl2htZcLyeaWY9Vy5K4kkugEria59ttU25PNdD7DVcdJcJlyuEr9xXUsbt2C6C/DYXjVqjSYHC7Ztvgo0nDsbuiA7hqMDWIOUCq4XgeCOzAv4KhruCYjtHr5KirOAe0JyxqkrfR1KL2i+Spar0cVTwbA2VPV+jutiuchcqSp4Cq3XvGfkquo4BqGXJjKrJeDKhrrZCPgoNRwjUN2BHwVfNw3O33UI4LPGfZKg1VFUwn2SoUkc53aVHeyUbg/JBcSN2oL3M2IshvijcNCEAwAHSxTDDc7WTXwkdEJ8RtYH5ILmPaPaKG2NhPfBvyITZYmj2QT8EAtN00ghdDiOoXRVEXBcl60fxLhq9d9U6OrLToQpArgGi41T2VTHDXROdUR2GqEaiM6W+K0vo44LqOO+JoqOkcYo4gJJ5h7jb7DxP7r7g4F9HVJhdPT9qQcgGVnLzPVeguiBqGxi4FrNa3cnwVnBw9G6I54nEHUhzifyUilhkopgYYiyIe0Cb2V410c9O2R8oDSLm5sfkqzEMaghOQPvbkNAsvjHFmHw9x7TM86anQLOPxamfKZATG0eKrq2SStBlscmXK2+lwsdXFlPKWusHHYKgmqgap4Gyp8Rq9bbfqqOpluLXIPQqtlnLJGno661uCPZU07CSLdVsMEraamq6R4fd0V22HMFek4Nw031oVWdrBKcxN9h0C3gmENF6tB35HaAqjqKerwlrpKlmad+uboFNoMaY2nFxa+4CsfXGkNdlL2+CK2rjlAYNCeq61pN2jmoctO7tHAix8Vm8YlfTVjHXFjdrlnMShEr5InDKHhYCridSyvjdcOabXKBFijmXj3HIozMWbKTFMC08jbRMfK6necpzMPJBdTUla4d3spTzbzUKtweeiGdh7Vh8NVUVDnts0i53Xc7oad2VoudS7mq2SvyZSPavqQqPiOo7ebIPesVHgo4o2Bzrabldq8ap3U5hFnX0VVU1zQwxxt06rPVNW57zY6J0FQ0MNzqq+tl7TQFRGu6lJ7r7IDjc+CaSuXQy9Dc+x6phN7LjjlCFIbhRKl1mWG5TBJkj8VVVc3aPIvogsI5BHAsAuSRZm7KP2RF0J77b8kHtA4E7FMzDmmvkaExzha6aHgnVNkmy7KNJNcbobpL89EBz7rgtfVdda+iakNQhlxvukXHqkH25pwkunA3Xc1hvYJjniyHmC5m6FcvdK6bn8E1xuV+56SSS5lBXDG07gFMdTRu3aEx1BEfdCE7C4Xe6os2BROBsB8QoFTwy2QaNB8lQYhweQCREPgFnK3AJGEtMH0VPPw3cG8X0VZU8MNdf7r6KqqOE2G4MX0VbPwcwkgMsq2p4LbY3aCqmp4La0/4d1U1XCrWB14wqGu4Ybc2ZY+AVPNw3a+l1Cl4ftsCo0uAzWNgQPBQJcJqIibXUZ9LUxk3aUB4lb7TbnyQjLbdpHwTe2A90hd7RmtxqmPyO/dMIj/EUnRscNHAphpLnkmGityv5IfqpbsEwxWO1/guZL8k17dNlxpttsuEaX7xXuH9lbiTDsKx/EsPrHNgqKsMkhkfs7KCC2/XW6+7uCsHdWURqJQWkj7vMOXUD9VZ1cGV8Za7I+MGziNkd+Keq0oa5wkmy5iANVl6jHqv1/JI4t7TQNBspVRUywsHevcai+yzOK49DSh4z9873WTlq46+YuabkHfxUiJhp/b+8efk3wUmrr3NpPZAsLLzrFal1VUveDcDayq5btYQT397qkrHuu4k6qmqJnOO/wAVCkcbkk3UjCsZfQPse+y/sgrY4HPWcRT9lhFDNLKTZzzpGzzcvevR7wpW4RRt+0Kr12S99+7H4DqvWMNwmFuSYd++ocVKxHCo8QZ3gPAhZeuwNlA0gx3v7w2UYyRiNo9kgWQHyhgve4TqPFjDUMDz3CQPJW2IODfvG2KzmN07ZWtIFwdRZUFdGHRMcRdzdCsdxNhnav7ZgNrarNSUTWDTVyiVAFvFB9fa2Msk16FBpsRjc9rg8GzrWV2MRe1rstnAjZ3JZ2uAfIXHcnWyrK2rfHHlZuPBZ6eufE/XvX5EKJUTxTPMkjdRtqqfEK+Sa7b5Yx7oVe14PPVclkczW11UveCL7HohueQwhQ5JLac0zMLJZh1Q3G9ymbLhPjZDKETcriY43KFI6wtzUOoPeUWoluMjfiVXTNDTvqU6nAvt8VNjaxozONwuve2TYgDoVDqZmxtIJF1US1QJIJ8kNtSAOpTTNfmh9tY66IUlZ4pnrVkJ85vcoTpbnqm5ykXmy6x1wk51juuZgSEnO8SmZlwm4TXGwSadNd09rrFdc+6Ecx8ExJK5S1Kc2Mu5Jxi06L9zEkkkkkkkkklwtB3AKC+hgk9qJp+CC/B6SQWMLfko0nDNA8f4LR8FBqODKCX3LKorfR5TvJdHoVWu9G7HXuq+u9GObQbLLYt6MKlhcWtzDwCzdX6Nq4kjsSfgqqb0YVhdrA63kos/o1LG3e0gjqFUVfAZYbNGviFUVXBUmoLL+Spqvg5zCbtcFVVvCriO6dehCp5+FJh7l/goM3DkjL/dOuoM2CPa7Vrgq+owyVuwOihuo5R7pQXQyt5FcDpGHcj4rvrcrRvdc+0Xt3F0vtG+7EhWNcfZsnGeO2o+aPhNBLjWIwUNHGZamZ2VjQvY4P7K2P1WGCpZXQyzG14IozfXkCV6T/Z1/s6QYdx1HieLve6TD4nSNgf/AMTYXHh0X1/w7h0kP/en1faRu/ywLNA6WQsZqIz3mNaX5tG39pAcGxUwdUsayTc3WUra+AVMkm5Gxdy8lS4lxSY4XOLht1uvNsXxp1fUloebuOmvJLDMTbRVkbXG9zYDxW2pals9OSTqNdFFq2SSQuZ2l2uFrWWYraEMfYAeSo8QopH3I0I+qztZRS6g6XVZPSljbHVVtTERstB6PuBn8U4g+afM3DqfWTKbGQ8mj9Svo7g3h+nkY2jpmspooxpHELBel4fgXqTAwtzctlYR1L6NwY3Vo3B2Cm01b2moGUHcclytibUMc0gOuNli8boH0ji5t+z/ACWdlnkabXUKaocBmzEG6uqPH3VFJkeGucwWvfVQKnGO2DohfOw6BV4qe3bIwizhqQVWVL2yMczKbWsLhY2qBZUPjAOnPwVTVwkAm+gWfrpu93eSgF3ZShzNb6lWdLjRZZjxoeY5I0tWx+x+Sq6izs997XHVZ+uiF7nbdU9SL3IGiqqnVx5Dmq2erEBtfXoEH1uRw5EIUoDi1ztDuhv0bcqBLqfFDAKQScUJzrnwTU1zrA9UxCdIBfW10CSoDOaiS1wG2pVfNXZ35QR59EN1SyNthqVHdKHHMQl6wA299FGkxRoFgT8EF2IXdoTZAqKoOBJJJVc+RxcU0SOHNIzuHNMfI5NsXa7pBrrpGIlcdA5u4TS0jfRNJtuUwv10SzlPaTbVdJuuJpzapve8U9o08V0gnZIRm/Mp2QpzYyiCC/JL1JycKct5BL2dLBNIuv3DSSSSSSSSSSSSSSIumGO6Y6I/9EF8TvFRahuVurgD4qsmrDHewB81BmxfIdY2/ABQanGYnD/CF/EKlrXxVTXWDQSs7WULcx7rXeSrJ8PhN8zBfkqurwmkkBu2ypKjAKUOJaokmB0x3YCoFVw9CR3W2VVUcKCYaRghVs3BsRPfjyqLNwFA8HLoVBn9GrZfZeB8FDf6KJJL2cCqmt9GFVC6zWZh1VDXcGT0xIdGQVVScPTtv92R8FEkwaoj1yu+SjvoZxplPyXqH9nHB/WOPHumYbxQZmnpdwC+ra/jluHVMFPC/sIITZ9h7X9VveFcbpWwT1pb2bi0ZpXjKbeStcK4nllmMDe612gHVaYRROjjle60jL6WVDj+IsddwzOfbQWXmWN4xUGSRpJDeQHJedVvEEjal8biSc1lmsdxOfD6p8wuGj2VUU3Gcs9ZT9q7K1sgJPUL1/BeKY39nGwh7SNwrSfGWm55qqqcViLzfQoTJ4a6IuYRcc1SYgGHMdLqvpcCrMbmMVDSyVTwNRGNB5nkm4j6N+IqcXdhE7m9Y7O/Ir2b0O4HD/dh9JU078PqybPZUNyl1uYPML1PhDhWPCKgvJLnbhy2NRGQ8WFxzVRUvJqXDKTbTTmp9Oy0IFtSLpskuTR3wsoFc0VLHNIBvp5rFYphMkDnFpDm9OazNa2UF3dJsqCqxWfDpu0ALbb32ITBjH2s8OjnMLvkjue6lf2skri8b3O6tMOkixGIuy5R0KhY5h8DqYljQ2RuxHNYfFKOQNOtwVmKthbdjhY9VUzPEbSOXJQmVLo3k3TpcalYMrWNHVx1UdkpnzySPe9w2A0VY6d8U5zax32UWtr4hsFTVtcHMIY3XqqZ4DySdSo8krmHK3VLtc5bclJ8l9zoo8krQ4W1uuOsdtChvBBQXPI05ppcAmF5KaXBo1NkCSoOzQoFdVOYzQ7dFQVOM5ddXFV02Lyy6A5PJRxVOjNw5SBWZwCSmOrHNBsgmseNzp0UZ01zdO7ew3CY6YuTCbri5kHLRNLCdLpzad5F2gkdQE+N2Q3IupcEj6l2SKDO7qEf7JqZJMronB3SyN/dmeR1hG5x6AXKi1XDc8Qt2b2Ho4EKpkpXQvLXtLSOqbkXbJWKcGEp4jCQYAnZR0XcoC60XOqeGDolYDkuFxam9o7qmkuPNN7y6My/cRJJJJJJJJJJJJJJJJJMdC124UebDYZRYtHyVXV8OwvvYNv4hUGI8NO5ADoQs7W8P1Lb5cw8lS1HD9cNQCfmqyfBMQB0icfgoUuD143hd8QhfZU+0kB+ATH4ZGwawuB62UGanpmXD7g9CoM09OzQPA81Gf2Ejb9q35qFJTNcSWuB8Qq6qp5QTa6rJ3zxHuucSOihz11ebgBxCrqllU/vPiLj5KG77s9+kv8ABNaaS47Slt4WRbYM4EPpLHyV3wJxBg/B/EArWRljXxmNxttdeh0HFWFyYiPWnNdE6748x0cSd1t8J42pMZe6GkcROO61j9vNavh50rYaieV//e2czstHw1xJPiEUmctL2nK4kb+KdilTE2J/aZWmy8n4qxZhqTHERodx0WKmoGy4g4NddzgDbmpWLcHmtaHmN21ibLA4/wADmja58TbOBvpoVr/RTgFZitVIL5Y49O0O3kvS8U4DxKli7VkZmZ4NIKxOL0ckJc17HNcN7rNnGJcMa5oF27G/JLCat+P19PRRPyyTSNjaTyuV9Y8E8CU2CYVDS0kBdYXcQLlx5knqtnR8Bvnj7SYCJp2vYlQ8R4OZStJY8EjXvNVC3E5sMmMQJY4Hbl5q4peL4zHlnJDre0FJocUp55TeRpc83arhkoftY3UWqtl6lVNRP2ZN7EfkqipnEoOlx56qpq6VsgsNWlZ/FMMicxzXMBaRqCFgcVpo4HuEQDQ3kp1Rh09cIjGSWkC4vyRHy1lAQyFpaOYtumnGp47+sNB5aclUYjWRzAlpvfksbjNayN+U+0dlTPc17SSVV1DwH2BQnvFrnkuQyNlOUEXCtGYA6dgc4gX1tbVRK/hQSNNrE+G6xGLYccPqDE8+IVS9qjyR95NMYHLdCMffQ5Iw22lwhvfrtYW5IT5nDVBN3m6a6LNvy8Uwxuv7WyaYS7d1z4pkkNhvqoNTAZIys+cLaXEnkea47DIw32Pihuw2IJfZrXaBpTX4Sb6NJTTgUj7HIbLp4bk6Ln923jVCkwbJoQhfZVztZMOHHNYNJWw4C9HR4he6pmjc6BrsrWciRuSvbcN9D/Dr4WdvQCZzbfdE90+aj8Q8AUjAWU1HGxzW6MaNAF4nxZwFU01VI+GldEbjMwN01O69a9HPonp8PwuOpkp2yVD25nvkHsjoFoMV4YpaZxaaSN7iN2hR8M4SiZdzKbK473G67ivDFPV0745oIydtrW8V4nxpwuI3yBkVpY9QW+8Fixhjzs0lPZgkzzpG4+QT/sCoAv2bh8Ew4NON2EJpwmYbNcfgm/Zc9/Yd8l37NlA1a75JnqjmnY/JO7A9D8l0U7yNAfkutonu5FGbhMj+Se7BZQNWaeKjOocrrWuUx1E4btKZ6rc7r9u0kkkkkkkkkkkkkkkkkklwgHdDdTRv3ahnD4DuwFL7Npv+E35Lv2fTW/wWfJClwekmFnQt+AUKXhSik9wfJRpOCKGT3R8lTYl6KKGtuQcp8lmMR9A7KgHspWg8lnaj+zxWuecsrbcrFAm/s/YlG37qYl3mosPoBxl8nfmsPEq6h/s7ysiDnVN3+IQXegqthdoWPHkuu9DddTt1po5B0slF6IXSG8lA238qkD0O0Mh+8w4Ec+6mVXoKwaVutJkPlZUFX/Z+wx7nZYi0FVs39ntvdEM8jWt9lruXkrvg/wBD+I4LjdO9+Yxe64r1Kq4HDaqSGNxAlj0N9yiYPwJX4ZTS08D2mQa5zqgYzwLWPpnF8j3HdxJvdeRcQcKYhSYnc6sJvryQKTC3UWKxyStJvZoJ5Beq4Lw6zGYwGNuQ25VRxl6MJJ6cgRjMdGkDUHqrj0McBZXzN7P7uneGlxGjncyvY6/AhJGWta23Mlec8X+i2HFIXuDH9qRo5gsvEuKfQhjLXZYpIrPPdLgdfA2XfR36Acf/ALwUk9U/1eKmlbKZYe8HEG+Uea+zsKoI6GiY2wis32OimS4lGyFrMw05XVBidax4Oq8+xl7JqwuuBlFjpuqsPjldlABuuVsLY6e0LnRPGzmnmj4NxxJTWjqX3I0c79VozxAyZoN73UCsxphBsQFnavHWUr7k9wnVTqevhqIgWPDgdRYqpxacEWuOYWPrSyWXI1md7tMoF7q5wrBqqKnDZo3AbNyjYeKlVdA+CIku7x6jZZHEqRwc65zeazOIQOjBIG3RZjEGtnFnt1aeSqaoiNttiVUTWOt9VArpTG0WNidFAgmfHUNLXEHqFpYMTrJIQzti0dRumvx6rwlpMrfWG8i791ksSqn4pUmVwy9B0UKSmzMOljyVe7faxQ7d4k6ITvauhzDuqM5ccLhMfbyTOaYQSTzXcmm64+MW6oZiaeSkUeAQ1DC49ddFOZw9SsbYxOeeii1nD9MDdsAaepKq/VGRyFp7JtvFOFHE06SNd5clySljbYuI16FMljAGYC45KM6Qa3LVHbFLVylkMYkcBfRbPgb0VT8TxGpxB76OnJs1oFnO8bla0+j7DcNiEJgEbI799vtu8yp3CFTQYTako6QyZZC/Le4dfe69Amr6iWlHZ0JYWjMQ0WIUKOpvJ21TG50Tt7DMWnxsp1bhNJVw9m5jJI5G3aXDUKRgbWYJEGuaagWtY6BExTEsOr4hMyECRuhDyBZUs+IwRREl0TB4OVJiGI0tUCIamNxO9ljeKsHjkiZI5oGts3VY1uB0sbnEW3R4KaGNxHcsnTxwBty5nyVPVywQu0ykeS5BNTusSwKSJKNxN4wAmyjDXN1Fj5KsqfsuEE5Mx81DdUUrjaKlHxK46AvbcRsZ8FEdHK1/sj4IzSYxdzw1Anqu17vbm3gFGMbGG/tHrZJzWub/AEUV0QLr2C/alJJJJJJJJJJJJJJJJJJJJJJJJJJJJJJJJJKyS5lHQJZQOQXHRtcLFoKUGCOrc3ZxNI6kJtLgzqetzlgZlBBDxcFOraG9T2ocHX0Y1qE6iIlZI915ALaK3wWgkmqy8mwta1+SnYrQhkJAsb6WWHxDh2Gul+8jBKsOFfQvhuJzCvxOHtI/ajhJsD0Jst1UcJYdRhhpKeOmcwWBjFtFQV2GxzT2laCG6EFW+CUVNhcLIYIhmlGazRubq6bh92Z5Ggc7E3UCSKB9QRKbWBs0qgxTBKfEJLMsWh19FY4ThzMOhYxrQLdVGxatNNcg26gH8lQyYp2tyHEqnxDEHAEh6x2K1rxIXZzZyq4cTdA8nMlV8RBzD3rrKVmO/fvNwLqxwXjXs2eryPPd1aSeXRWVVxO0s7rrk7KixWaonpHydpY7gclR4HxrVYdMSzM9gNjG7bxXolBVDHaJlSBlDx7N9leYFwmxjhVvsXn2QeQV5UQiNthpZZnGX5QdVisTkLibLOV9yFksTuJbtVNUwON3X73iqeeQMLhz6KlqnuqJc1srG7XUN84ZJG4XJB1C0OE1scxAadeh0VxW00NdRPjdY3GnmshHRmOR7HCxabJstLpoqCvpjHOTbQ6qO69lGk5EJEZmkKI4WTTsmONyEMmx3XAbOK7mtdNLgSkHKww+oeG2BtfkrWGne5mYu+ar8TmbGCLXNlny6VpzWADv4dVH7UsJIJHWyBJXZLEDMfwqww/D6ziCZkFLA+WRw0jjFytrwb6Ccb4rnafVjT01/wDEl949LL3LDfQphHD9GxraVhnj1MxbdzjbW9/0UbFIY8Gpg1sYjibcgDQLDY3U/bZMbGZSDvewIWm4Ewynw51mMY0jUutsf1WqxLjDCcNc6F15JNyGi5B8SsZjPHFJQzuNPCQ52oLdLArOScYltW193OY292tCBWcd1k8Z9XaA0usDK7UfJRqrEMtGS+pzSnV2QqkqMVzNLTK53S/6qIcRe4js35SNrBV1fjFZJ3ZbuaNugVRVTEN78mUnWwUSOctN812+aBW1fd0cVUvMszs2azepR2VfZgNDszvBGMszgDcNCafFxcfEpN7IavaCmzFjm9wZQEBs7wRcuLV2Rrpx3XEfBRzSO967vMphhaw3cQPBBkmZewN0zPmG5Tch6k/FftQkkkkkkkkkkkkkkkkkkkkkkkkkkkkkkkkkkkkkkrCiqBFELvyIFZX9s8iMl4/EVC7N5cTndc9FdYRhXavzvF2j2R+qu6SmFM2QggdFVYtJM6EuAdYbmyjYJgFZic/aOZlhG7naX8F6EKb1aJrbgWFgANlVV82S/wB5e3IrK4vWQtdmv3gR7J3WnwujZT00b/akIuTb6Kc+oa9pbexHJZHHXNjqSdbkciqiTFZqNpcAI2j5plFxhJXVPYGLKR7190XF2GeI97XksdVNmpJXZX9w626KrrayQA7rJ4xWP1FtCs3Nikgv+6rajFtCSVRVWKsL3anzUD7aDJw4O2K0vDmINr6kguzZRYBaXFpBT4e4Xs9wsPNZKlwQZSc5J53W64NmFNhzos93NdY3XoEOMNZAwA6NaAotfjYiiLjoOiyeKY62Y6G4KzlTVGa+UX56LO4jXta4tJs7oqKZ3bPLrWHRRZ6UvadPistiMfZV2V2mmihyQMkkygCxFyAq+rwwRPuLhp+iFG11OQ5hs4bELQ4fWulgGfUkaqBWyNFabHcXXJYw5l78lQYvHYA9Cqsi4KBIwapjNRZRp22ebc0FDO6a5pIvsE3LquluhXCzpqmqTQkNkBIJVlNXtjb0v4qsneZLuJuoz2F2mW6iVNGHt5glRqLA6nEa2Omp43TSvNg1guvp7+z76LKKNlRXVQzvDeyMjzqwnoOS+kOGeF6LAcPcZQIjE13dLTltffzXm3HnF4Hbinb2FPHcmTcu8ui8LxLiyrratolOaJriMrySfmp0dRQGG47gGt22OvmojuNPsp0zYez1N2mQXKx9XxXV1U7iXA5jc22UWtxZ9S5t7WtY3USTFXWs02voVV1GLOz5c1vJNnxglgAdr5qJ9pmziboBxsEBovm6XUuDtayzXv7LNt5IuK01JT5fv+1cBsCqF+RxIADR13TzDGWWzBpPNV9VTxMb/iFx8FBa5sTr5ifNMlxXLcAfJR2Vjnkm5HxRRWZdyfmnmuD9LlcGIMYPa+C79qAhR5cSe7RibCXPdeUF3mVLDoAPdao8srBsb+SF6xY+Hmv2rSSSSSSSSSSSSSSSSSSSSSSSSSSSSSSSSSSSSSSSskBrYK1wrBpqx1ww25notPTUTqSE2aGkaAX2CkUlO0DNIQT0KFNBHI8EgE30B5eKs6WEMhDWC2mwUXFamSnjLjr1Kx2J4m+V2Vly47ALJcSy4jSUplbDkZfvSEg5R5BepcMVTazCoCb5iwOzHZ1wi4hHYEjQ9QspiLpHSEOOYjclZrFQ9+hNgFWRyCk77SA4cyr2kqzXQteDcH6KHX0AsdnggjUrF4q4NzZQWFpsQSsVjdbk30WLxDFQHO8CqOrxIyAMjGZx38ED7MmmGZ5t4XVfWUBjaS1r7jpqrPgSrNPxBCHusHtLcp5r0fiSm7Sna8PAcDcAnQ+Cz1NWZDlOh6I0dbNBKXQl4J/DrcrS0OOVMMLGztzPuCb6W12WhxGRs1GHbZjso1Fwo2thMs73NDvZa3fzTajhiGhieY87ndXuuvNcVonT4tKGRlx0FgLlJnD1TuYsn8yiV1O+iae1ZlGwI1CwPE8zfWI8trm6raOYCQki6nOkbMyxFiqupphdwtlPgq2aqmogQ1xHRAhq3yStcTc9VoYm5qYE635qmxOndI1wAuqF7HR6OFkCQ8kMOsUGoF7FRX911+SblPmkCbWskxo2O4XXMvqE3LbfROaY7i5RGVkVNdzY+0PTZQpcZfPOGyQxRxk27u4Wmwvhp1ZT+sZ2mK1w47FSxwpN6uZgzKw7Fw3VLPgc80uWKlfMTpcheuehX0T1L8UbJMYoaqazBE/k3e4P4l9L8M+i1nAzJnmV4mk7z3u1Y4nlYc/FZXj3iuvZVSUVVOxzG91jYtO749V5lxRIzEYmMhOUbloduvPK/C5S85tG35KFK51LG5jRp9VR1TX1N8wIvzAUb1HsWF5uDyVZVMmc7UZegA1soVS10MT3EHQXsqiqccjSXanVQHVfZuFnXTJqt8jSc1ui5BOIQHuGY+KnM4l7PVrAXDQG+yjTYmZ+852pUSStY3eT4BR3YsR7LtFGmr3P2Kjmoe7cpzXXF7BNdc87eSC/xKaATsU0tc51kRvdGpXc46rvbtb731XHVjGjldAfWg7Jjau53X7gJJJJJJJJJJJJJJJJJJJJJJJJJJJJJJJJJJJJJLoBcQBqTotThXCz5GNLwGk9d1bx8I07XAuzE8zsrVkEFHCI2NDWga66qFNVwxnTS3UqBUY4xgsLE+CjjGIzchl3K5wet9YpO0Dd3EWv0UbG57wZb6u6rHRR9k95uXPuQSU2qpzUROa5wDT11KVPjP2bFGxr3FjNNeilTY8JInOJNt91QOxSWqLi12Vt93bKpxOpmJa2N3aOOlgN1TzxYjLf/u5IA1J0DfipfC+LiGp+z5S3tX3eHA6W6K4xF75LtboBuLcllK7DQ+cyzFzQeh0KxnGlFT+rGSAZHNIuORC8ixOp+8c0OFyUqXLGCba9UZ9SRoEakLZ5MpFwEWvwWJzBNSgxVDDcEHRWOH4lVVVIYq7IHtOljcn9lIpMJhqJgXl+ZwuLHQ+a9L4U4ZpG0DJOx7WZ2rcxs0KZUcPUZlfNWUgeW6hrL3PxWexmWQxtmpQfV2e472grbhjiFs8NntLclhc8lYY1iVMaSV+UAtaTcHcrK8KUME0lRVzssHOtc80TimliMBkonZJGnVh1Dh4dCsbWUU81O7O0OHnrZeZcU8PFsr3h+QtNwDqFm4qYskaHO1J2HNXETIcnedZQMQpnN78ffb4bhUVc3tIiTYgDdVcALQLHbZXEGIGOMDla26JDUCRxzW33JQq6hjqGXaO8s1VQmB5aRYqK82sUntzNUVzbi3NNCS47SxG652oBFwT4JzntlHcab+PJCdTSF4AF7ncDRaThng9mMV8dPPmIe4AW0BuvReLf7OT8Sw1v2PE8VMZvkEbRcbWBvqqnCPR/j3AEow/HaIiBz80bCbFx6W22vpde8UHo5w/EcP8AW5aANLRlLHXyN06X3WdGA0FBjEdOKTLI9+Qdm05G6bnp5Lb4D6OcTlrXVEMFpBYQta77xp/GOi0uKUHGAiFNLO5gByh5323vyWGxvgTEGSdtKTO+2UuvoCfFZfFOB62ljMphuSdm8iqSfhur7WNstNa+l263KHjPo5qqSFs4Zd3vMy2KqYuCJ5W3igJFtXFt2tUuT0aNbDaV3aTuaXWGgGi88x/CzhlNO8R5yzQAAXJ8VhKjFXzxuzwgPtYZB+az9W18jnEm1huqmSwfYa+KThkbqNfBCkkfKzLawUR8Tmc7KNJK/UXKGI5b3sllv7X0XQ2w0KZI+yCZXA7rnauS9ZDd7Fd9dHQLhqiedkx1WRzuguqiU31h3Rc7UnYJti7dOayx3X7mJJJJJJJJJJJJJJJJJJJJJJJJJJJJJJJJJJJJJK04epTPiTCWkhne20Xp0MAjhBbrogzSljSqDE8Scw5W6kqmlLy3PITfpdRG00tZJZt2s3JRaylnpoDZoaBsL6qXwfLVCCRr7hjn5gHDdWmLiMwOJI0131uspUO7MEgWVdU1bsp1J8lncUmqI2FzmOa38RGiHLijG0pYJcxDdbG6ZR1/rUULImvcBo4gaXWvwrDw+mfYFjzoHHeyA/DJqudkDnkQblo2J8V2q4XoXSWiYI5BvI1uoUafBYGBzhM98g99zlR11RSQRuh1kIBzG9hdeXcWFnZTTNc4Mt7J2XiMFPU4liPYxRl8l9SdAPMrVjAPU4miR7ZHnfWzR5KPHA+le90jQWjYjUWVjTCOsMYaNXbFo1VhPSsa0NZJlftlfzVU8NzuDXC7eY6q64acat+VxGcaEL13BJaOlwyIPldmtYkGwVnNJC1rS2UPjd7x5eCy3E9HHT08s0bQWvF3BvXqsdh+IeryBgdePXdPrMVM4LQ7u311UymqzBQ3dpfUDwWaxfiJ0kxYy5ANieSh0+KOkkAdz0sOayvFcJp3PaTmkcdGb2Cw1c2WCfK9oabXuoJr3g2LrEciieuPczR1iqmsqHkODoterdVWtcWN1BC76xyujRVOXY6q2wyrazvvF7bC2nmjYpWRVlOWPY12mmmyxk7A17mjZDY7SyFMzW6AdNUzOuWLh1TmssVNpacW7w+amsiDcttVsuDSBiNFmdr2rfZHivo6q4uOEzs7EsLmgPaTy8D4qp4jn/vzLGyoLg4StcX5rZQDewXouGvjlwyOijkfVVUrsljzsN3HwC2nDPBtAaV0phLap4sHSakkaF1/JabD6akwAhsDcrToXP8AadYclW1+LQ10oEzMpa4uaf3QcTbS11PBHlhaLBwHUrI47EHHJGwNe0EWcBZYHE8PfTzRzOsWvcDdulvFXj8Io8WLKrszNGRvLIW2+A/VDromUgeylg7NjBYte24+S8t4nxSYzSfcZZnd1pabNA8F4RxbiZqoJYYIJGuuXyPPS+w6rAzytaw6EeN1UVjXSA2JsVGZQXvfTzSbCGO72oCA7s2AkkXVLVV7ZJbNAsEMSgm9rqRTzsJOYWUasqYr2b81B7d3kE0nMPaQnE32umEydEzI4+6V0QyHZp+Sd6rMfcK76lMfcKXqE2+Qp8eGzv2YVLiwCpktZpU2DhOrfa0Lz8FOh4Hr5dBTv/5Sv2hSSSSSSSSSSSSSSSSSSSSSSSSSSSSSSSSXWtLjYAk9AuvY5hs5pB8QpFNh8s1nOa5sZ2Nt1YjAXSRXbG5oHvO0XKDA3Mmzz2LB7IPNanDomRG7Te4tpyV26Ts4tfoq2qqg4HVUNZK0zWBvbmmdmKp7WjvPOzP1PgrSCjFK3O6zn21A2Cq65vbVjRYuJ1DeSk0JdRTEO9kjbkuVtQxwc0a3FtVlqgkutYgoUpdDTksiBdb2jqVnK04hUwyMETHB1x946wQuHeGYKSoNVWubUOtYQsPc+J5rRScRU8JEUUccYbu1jRt0S/vIWsLmN7Nu1igfb5MjXB1yTqdgFOdjMMDLvcC47qrxDGKaoie3MATp3VlcVqIKWmdExuZo1LjzK8X434hlkz0rA85gWhrBYWVFw9C+Fokke1jgMo5kBTq6J84LmPJ8Ap+E0j8UtTbN2ykfmrWPgWfDKd1QHC3It5eSocSwbEnB8kWYuGtjqT5LLx0eJTVpjfG+IPdq46LVYJgdfSU7pmxvk1y3adXeK02H/aNRE2GON8bwbWc4WCNPi2KUhEcjXAA66KR/edzYi2VzXaah2t1ksTr6Vkz5ILxhx16fBU0uKCGTOySw3sea1FDjcVRRsdM5ua1sir8UfSzAvhjDX73HPzWf9cklmaIAMwOpOzVExaopmzXll7apcL93qs/WcP1uLzGdtO5jALAkan4LJY1QGjLiSLtNjZQqfO9gtdON4zruhvtN5qNUYY4glrTflZVszZKd1ntc34KVTVzmxgI81Wez1VJPLmlcQguJBuPkmukzCx1QHgm9kPXnuiN9nqnstdTIX7W1Uph7w/NarhKM/aVPfNbtASV7HV0jaaXO5rp2uf7JcBcLdQx0VbJA4QQ08JjBsD7LgOaHVcRv4dmow7IHOkHYyE2EgOui9m4dmxHE+Hoal8fYyG+odctF9Cn1cmIzNabtIboXaXFtvmoVRSzyQuMhtL+AakrKVszcNqGy1Ti94BDY2XcCeW2yfg2E1lVBVVlR2jWvdkOdup62VrT8OU0lJHTziV0rZO07bLlaLcvFU3E1U/DJTDS0bXg3IlY4ZifFZ2eoxV9G+dkWancbSMeO83XUlZur4Wi9djrq+draNpLuzLrC/lzXg/pHbhlFjE4wzMY2AkZhz6BeYVkccjHOLBE1xzaCwuqx1MD3hq0KP2ec2Zr8ENlKHh5kZkaNyQs1irwZXMjHcbyPNVjaJ8pJDD8l11HKG2AN/AJseFVTn2a1/lZWdLwpU1Iu+neb+CtKL0Z1dW7/AAnAHkVe0voeqXtv2Rt5XUv/ALGawi7YXH4If/YxiBOkDreSkU/oWq5DYwv8dFYw+hKbS8Rv01VjS+gepnIDKdx8mkq7pP7NlfPvCW+bCraD+yxPIPvJGsVthf8AZXiDgXzMPhYn9Fq6L+zDDE0WEY/mZZXdH/Z6pqcjMYjbo1XVN6F6KC14mvsvplJJJJJJJJJJJJJJJJJJJJJJJJJJJJJJJPhhdPK2NmrnGyv4KFlEza7uZ6oTgJpg0Nzu2AV9Dh4igaHn4BXMdG0RAEaW2UeajjOjhcdFHhaylHd6631SqcSs0rN1+Nd4xscN9TdU82KObMyJvflcQMoN1sMKphRQdo9t5ZN3KNi+Kdk0sabOO56KE3HILhrCBKRYkJ9VVPLGuc4NafmqurxQlhuTmCpzjEUeZ01rgaEqpreJBI/JEbHqVUVWJyuOryT4I9JIbC8jwTu0hOq+0LT6sxrJOZcNSoLW1b3/AH8gDR7rdQjNkbG8OsXW1APIqPXzySnN3iD0KhNY+Rha1rrnmTsqrifEqjDKLNJ94SbXbsF45xHxCzEGlogyOadJR1Vfg7paqQRNJJJtpyHNbmHBmUlM0vd2jnC+p2UWmjfDPIYXOa2+uVb7B+JoKGkZHM101tud1Y1VU2tiZMxoa4i+Vw2WGxfD/V610jrG+vgQrCgxSGnpvumiRzRq1x0HkEhxQZHHuNZYWFlQ4zjMrqd7xLcg2A3WKq8dkbIe86/REpcaLYruIeTsHdFBrsYbY2tb8JVa/HpWygB2UDUgHRXOF46+WMzTEFvTwQK3iSGCneIWNJmccxvZZygxOngqjIWSOnDtGmxF/wA1u6Xi8U8LI2aOIFwNyVVYzVUtdL2zoY45j7WZg7yxnFc9ITTspoRDMDYlgsCuTcKVIwllVNJlzahl+98lUUsJoHufNlNtgf1QHcQFpLcoAvsE11W2uzMNibE2UT+72JlnbR4dUGLfRn6KC+Q5S1wII5HQhQLa6812SPuk8lG52K48WFxr4IRGhJ0SY0jbTwRmiwUmnaSj57OGpWz4TrooXRukcGkOHxC9jwLG34uTGzKYohcuLb3W5bhWGYhSRVMNVFPWwt7SanJPfF7A2HIdCtPh+FRY1JRvxYxvip39q1rWC0Tm7XNtLBek01XS4LRNhpMsUUhzFp1bY66ePNQK7G3UzfumNc0HugC4+Ko5sbdilQ5hFntFs3ieSIGRUkMj6mIaNIa91rC2qBhnH0GESZJo3F0h7jm6j4fuqrF+OpJ4pZRIx0TQWtY8Wv4XWMxri+mdMz1WovKwaxuBIZ+6z9XxxVxQmkiqI45ZAf8AF9k+HgvLeIOJcWcXh0zgHCwax2i89x7Fa804hIa4HQZhfRZOqjc6Qh5BF7906KVFh5mjDYhcEbqVTcOshjF2lzjuU6XAWiwyEnpug0/oxmxWqDoqc9/XQLZYF/Z9r6/ekeG/yrb4R/ZbZJZ08RHgdFr8P/s2YRQtBfEwOHMi6uYPQXhW4jYR4R3VhTehfDach1nacgwBWMfozw+Mf4bnfRFHo4pHHu0zreF1Ii9GNAHd+nLj/EVMj9HdDGLMo2uKmU3AwjN2UcTf9AKsY+FJGi2TKP4QAiO4Se8aMN/iiQ8JyM3hzfBTYeGqho0hyozeGKl25DR5XR2cMvb7wPmjM4acN3t+S0CSSSSSSSSSSSSSSSSSSSSSSSSSSSSSSSnYMwvrQRyBWnfQOkb7zndAh4fhkkdSZC3W9gCryWLO5gOmt1O7Voba+vNBmsdR0VPWT5A4RtLnDVUj3S1cxjlc5sYaSS0WVBiOGVBcRTgydLbhWfC+DsopHVNY4STj45VqKivZFGQHXJ5rIYrMZHm2tyq2OSKlN/afv4Lk+KSStLbmxVFV1FUHHvkN+qrJJS913XefFKDDJJH9pKMjTqBzKlCiYHaC3iiiJjRpouPIA3UV58boLihukDUKSeyqsWZHWUzo32PMXXnuK8NULpHF0Ajcd8ul1HpKGGiIEENraqRUxVFaQ2N2Q+I0CtcLpoaCK05Erug2R/WaVhLmQMaUKbH3D3tFXVuMtnjIeWnoeiz9TiboDdjrDwKg/bD84Itv0UKrx8CfKBmb0GxVRVVkJkI1F9dQoT6tgk1dZvXZU1ViGeRzQ++tgeqrXyzNqR77eYupba+SGExtJsVWVtdU3blF2X36ITcffELMy5iLEotLxDMyTMTf4q3Zj007BmfceKgzTiOfty7vjVruig1vE1U5uV0rpLbX5KFTzy1shdO5xj/CNz+yNNQx69nHlafeecxCh4dTTUmJxvkc3s2ODgL3v0XqOIcd0sWEsyhnrDm95o6rybGK8YjXSTktaXHWyjRMDgbEEjboFySqbGchcCT0UOQXeSNAVzM0DV30QpJGe6b25pN7xvzRWm9rC6NFLl3KO2Vua+hPRT6SRxe2Vr8pbazeq2WDcYz0TJPVZHdqWhtr3F/6La8C499kvqxUyZKyte2QVPaHNHbl0svcfQ3i1Ri9DjUlXO2WmbUNbDBILNa0cx11uVvsYxSBrmPpnAgXu0tty3Wafj7mdvHUZc0n0Hh4qHw/NRy4nnlkYx0Xea8u5Kz4krKfEKV0Tpy0B5uQR3h1XkuMSOw+czR1DrZtO0FtRtY7fBYriHjyegjkjaXSS1FhdzSGgX1NllouJ5u2bKWmSUkgubchp5WRmY9Vtu2rp3OIeX53O71uhQ8Q4rp6h0HZQx9o9xaGWuLeJOl1jOIcFmdiE1Q57nNdawcbN8vgs6/Dy95vGSQSLDUK0wGjlL5Gdm+wFwC29itNSYPNMQAw722WrwX0czVsrDM0xtOunJercE8GYbhJknrQ5sEMZPauHdurqD0g0GFxSWjbPC02D422UBnHUeMSudSl8bQdnt1XqHBT4sYp2MmYJHMb7XRa1uEUzdmp4w2nH+WE77Pp/wDht+SXqEH4Au+owD/LCcKWIbRtTxEwbNAXQ0DkF1JJJJJJJJJJJJJJJJJJJJJJJJJJJJJJJJJJJJFgpZKg90afi5LTYbQMoosw1ebXJWoaBHALbW1QKNzZJnt5jvKTK0XJ+qr565gdlby3QTVmxu648VEayapu8EtZytzSewMgLAM5QDhYfTtfncxxF8ttlXij9XlL5JHSeA0CDV15O4PwVXJKZXHQ3QPVQTquupWWQX4ZG897W6aMMijN2sbfrbVDkhsdVDmZl10USUkXUKRxuo8spGn1USSpIHtKOauxUeau03soU9XcaKrqZg69wD5qA+Zo8Co/rGU3BsgSVJaCbqOaxwB13UWerLwQbKBJMTe+oVfM69+YOwVfUsLYyRcHkq3Jl3PxUSodaS5N2DoqLF6oOPc0VHJPIXWJU7DY5ZHuNhbkSUaWF2fvushTOY1haNdOapqmkAfdjtOibHGGblSBPlboUKWqLhYm46KK5zQb2ATfXXN2KbJiT+Zuo8mJP5FQairkedXG3gUDMN810VkpeC0OykobRlN7XS7UA7oYdY6m4TXOF+iLFZw56Irqk5Mre60DYJrJgdNQl2wHVTIqiSMttqDy5q+wOgmq3vMbuzzaaq6dFWYZU0VRUzPZTNkyF5GYeR8Cvon+ztTzYvitTVyzmOkjGWDpKfev4L2Li1rcIAORrRsBbQ/FeY4i2fEJju1p1sPzUAUdVTztdEZHtzd9zxob9UGdskkkrZ5dW94NDjr8VncfxenNOWTuc0DYHY+IPVeZcRz/AGgHWnbnFgCNTpsqTDq2WkndC9zXt92w01UrE3y1MZa572gHUArPx0ZaSxkgzOdfVy1NPiFB6t2MzTOBZoPTqrOlwvCq2FgpKOQyHk3YeJK0fDPCz8CmfOXQSMkN3NkPfaPCyu6iiwqdr35Gtkcb3aOfghYHjEUGJxxy5zGDlLmn81psZpaieWCm7VraI2eS9246BSJ8SpHQCNtPB3NLsaNVI9H/AAxT4pijDIGsF72vYBe60v2fhEDIBNBCf5gCSrBr2vaC0hwPMFdSSSSSSSSSSSSSSSSSSSSSSSSSSSSSSSSSSSSSSSSSXSwhocdjsux5RI3N7N9VpmxOhiBDO7ZFo5O0nZG7a97K8Mr5nNb7DBuShxsZTTdqXEkfkjuqWVN2sNndFBkpRmDY2GRx/CjxYQ0EOmdf+BuykSdjGwNDRpyUOapAFgQAFU1NaSXd5VNRV2uL6nkojY3znW4ajMgZHyzFIxAnZcNM3ohvp8oPVRni22qhzblRJh3CqyoeQFBkflBUGaW/l0VfPKoUtQGqDLUalRZqjTU2VbPUEk6qG+bMTrcqNPM5lwfoor6g2so0lQQ5RZJXOJQHzZTbc9FHfJe19/BRaoksIN7BVVQ5wbdQpY3uhJuMuypaqmznmobqGNjiSCT1JRWS9gzK0W/VDlqL76qFNNY+KjvcCNTZRpJRyQu08Ux0tuaE+S6C59kB79UJx3QSMx2uh8zdIHLtr5rrZC0WSbYk33K47cp2QEXT425TcDQrskZdtZcZGLW95J8LwRYEq/4dwOtxCojHYOe1xsSBsvTaHgmWjpY52TRhrnDK3cny/ZaGs4MxDE8OkZUxARg9o17RqB1Wk4Oxyn4QoYaVva08kZBijz2a++5I5kla2q49rsTLZpJwWR91sbj7RvvqplHxvglZVNgrZWQMlkaxjwLBh553dPEK/npRNhjjhsDqpov34iHBuvM/FVmJYdhNFh75pKlpqIW2kY1wN3ncX2WFxrgGv4kgdMwOpoR7Gdnec3qRy8FnKrgAQQOE8TY3xj3We0sTjfCOKUcHrFLS9sy4BMTbkearpfWYKd76iBjnW73IqgL46iQsjicHF1tDe6vsMwSmjqfVXyGWqyh2SPUa8r7LWUeF1FFRSQMeIZCCQ1zxmb8lL4fpKypb6kYnPmm7gkPI9VLxbCK/hOpbLVVhyaAANuG+Y6JNDqkNqNZJHG4ew5R52WhmxKtqoI2vhfJIGgFzugVG6aq7a7Iy1zTuStxwFjPqldFNWB8zb6hlr2WzqpaSoxSOZ1aYaNzrkuFiAt7hvFOBljaekrmThml23cfjor1j2yMDmm7TsU5LdNdIxhs57WnoXAJwN9tUkkkkkkkkkkkkkkkkkkkkkkkkkkkkkkklJiw+eaPtGs7p2uVx1DK0EkD4FTqTCojCHynM8+6Dso32XK+ZzGDug6X3UqPAXBwEjzc7BS34OxrLOc02FgLIVNgsclQM3dIN7bhXkhp2symfbQ3CFTSUVO4SZwXeB2SqcfgzdnEC+Q7MZqVLpKOaZl5Pus2pG7lZU9DTUfey5nn3nalFfUAXygBQairIvqquoxFrb2N7KmqcZAJ7yrjXPqnERgm/NHgpbEF/ecpjaV7xtYdE8UYG646JreSBJv0Uaex03UJ/NRJiDcqvnkAuLqrqXg31VfUSZdBuqypm0OqrJp7XuVAmqANSb+Sgz1Ftb2UCoqcx32UCap5AqP2hJXJCJOdvNBdGNggGn7S4vZAkh7I2F/NQqiMuOg1QRG7W/VdqItNNdOSiOpO1kDAL36KJiGDPp9HGwPIKjmpDmsRYBV9RHZxCjPiUOfu36qvkOpKjyHRAfuhPOoCGShvcQbIT3G9kMlcAuuWsmloJvaxTCLckk140TW6kJ9yzbbou5yeVk5pkcDbQdSpdNCM3d1d1Wt4QwE4nXsZJGZLmxaBqvfeEeDHHE6XDqCkywuc3t3yNu1g3Nz5X0XrNf6NcLrsK9XqHU8MGcuDQRmd5fhUqrpeH+HcCgoqcwvZGyxdO+5J8SV84ekKGQ1wq4GWibIQwjUnpboBbdMhxZmL0IZK6QPY3UhpaSfis5SMreJsTgw2iin9dkcQMx0+PgvpXBMJq+EOC6fAGTB+K1ETXSPuckYAN7W1tt81kamGKCCtw50MuJYvBlqjFGbNNvZB819BUGG0Y4dhfNAyKodE10jHHNlJAuL+C8340weBjM1MRGSdbatI8lg4OJJaOtnoZKFkoka0WjYdXdR0FtVXY9wJhWIYfPU1j30VZJK4iFt7EeIWGwLhaio6401NA2R0sgYJTqNT1OwXtuBegB0+GmRzwO0u5s7Y7PvsDZeecX+ifF+HcUhlqpG1FNI4htQy425EcitXwhw1V4fW0skr43TyizHOZqzwcea2HEHo8l4ljdY9q46WdGP8AdlgZPRjjNHj9LSUgEjf4hlAA3uNlN4gw+p4XAbicQZI/utc0XY74hY2oqvXZJAwRtLRrZT8MbV0EZe2MTC1w0PsiPxXE6lmWR/Zx2uG32+a7wlxRU4ViRzRufDfvC+69OovS7FE5sRbKQfZAF7LQzek6kpmMbmE0rm5iL2LfArL4l6W5K0yUwa+EHYxC5+ayTuJppqxrZqmQC97vOq9J4W9ImH0sTaepnJB2yjNZeg0lZDXQNlgeHsPMIySSSSSSSSSSSSSSSSSSSSSSSSSSSNTUktZJkibmPM8h5qdLgT4WXdIM3gNEXCsD9YzPnaSz3QDa60GaGnp8gABtbZU73gzkMAcVKkimiiLyLC3IKvoZw1z3F5JJ0Ke6uLS51z4KI/E3lw71wCuy4zkaXNIzWtdZrEeI5hUdmwGQu2aNyrjCMLr8QaJKt3q0X4Qe8Vp8PipqRwjp47u55RcnzKvIBLlzSWiHTcpk9XFCd8x6kqtrMbDAdbKgrse37yppcRqKkkQsc+/Pkn0uFSzkGd9/4G/ur+kwwMYAAGjoFPjpWtGyIWho0Cjy79FGkcGjVQ5ZQLkqBPUjU7Kvnq9NNFXz1tuYCrp6sG9iqyoqwAe9r1VbUVYAOtyquprNTY2VZUVNwddVXTVJ1UOSbMTcqBNNZxCjOlA3XA+zb8kx0hc4W+aew2Gpul2jdcurkMsfLzsos9O2M3zXPRBD2ZiHWJTXlhGwtyQmvEJzj2gVCqpn1OcuPeGqo8ReC219VUPF731KiTvA0VbMbkqDJqo0hQHID9XJh3QjuhO3KY7dcQ766JZyOab2txqlmBOiRGoKQbY3XURoA8UdjQRcqTC8MaTsvRfRVS1tRisDw/LCH3Nh3j/RfStdi0eAYMTHHLkprdo+N2XvO1VJg82KcYua+mkmBYdQ8nvEi4AGx80L+52O8R1eX/uwMROcVV8wsNQGjn9Flca9HnEEzyC+OKnjOZjs2hF+nJYTE4amkdKwBzHxuId5hRuCKieHiITvkzPJy5Ddos64cb+X5gr64bj1PPhThh1PI2urYGRslPfc3W2UeR362S4a9DM1HPLisla2J9UGmRzG5nyvAtck/sjcTNxGjiOH0da6WrJAdJIS45fGyxTMYrMSfUwGnmm9WaWyljLZT/0BVngmH0eKVxFM2RtTGCLGQC4uNx1sRui1vo2rW1LvWqlk1JmzNa45pIz+oULhn0U08lTPUSSdt2chywMH1t/sL0o4hiGGReo4fTzCNzbGokADW/yg+KWK8J/3gwl0dXK2KoLP8UbX+Om6+b6iPinhbimqhq5JZpPWCIXxWLAOUhB026dF9O8PyMxnhiORsge8AH1gOsH6a2ClMoxTiOYwNc5oyl3tXWZ4twhvE0LoJKYSR+VgDyXnWMei2npI+1hi7KoA1HtB3yVTS8HYoJ42U3Zzu1+7YSSUHH8LxCnYIJ8PcHjuuYW2B8bqgocMfw/Xid8ZdG4GwfqArxvFD3uysi+7Gvs6BQcSkM7nzRSNtvaNwCp5a6EkZu0jcR7Xiq3EMVdHI09pnJ5kKu/vY7CqkSuc9xGoAGi2HCvp7ZROfHMyUM2FrCy3uHf2k8PYy1RG+T+IkAhX1D6dMHrHXjq2uvsx7ACPiFK/7WKd7i712niZyaW3/VFl9L9L2ean9VnI3Ae65+SHT+l187h/9ntaPMlXNH6Q4JxeaDsvIlWMHGVDUeznPkr5JJJJJJJJJJJJJJJJJJda0vcA0Ek7AK7wzht05D6kljfwN3+JWjipqekiDI4mMaOgUOeRmexaCPJAqsSLQA23gAquoxCWU5c2qfh8rKS7/wDElPvH9ApFXWzvYeXms+2vEL3HZ19kKTGXDTPqoU+LOLiXO0Vf6zVYhUCGmIcSdS7YDzWy4a4bio2iQResVTvakfsPJaUYexus8hd/A3QIzKmOmYcjGsb0aFDrsZDG+1ayoanFnzHug68yq+Z0kx7z7LkNJFm0aZHdXKzp6PM0DTyaFa09HkA0yhSwwNTXyNbzUWaqaOdlBmrQOar568AHX5qunxC/P5qunrwbklVtRX2JIKrqnEBYkkXVXPiHiq2euvzVfPWeOqgy1INyT81BqKobXVfNUgm11DkqRmOqhzVIcdCo7pwCCTdN9avdt0+OUAanyXXVAYNdb+KC+uDRcc0M13dPet8UB9dmIHNR5KqxvuTshMqi5xvp4p0lQ1oGZwAUKpru4cg/qqGpqLuNufXmq6WW7bqFM+wUKV9wVEkfZRXuugvfbVBJTHOtpzQnOsPFD2TFxxsENccbBDSSXQ4hOa/qixqTHYjeynU4ba1r+a9O9FNdBSY7Rmpd2dOH2Nzovd8ZoWca11RE6R1NRDXtBp2hP4W/h0votT6Pfs2mbDQurA4B/ela5xa4k2A1+AtyW0xHC6erqXx5o2OZsDYu+f7qsxLDKaCglEEIfIbixOl181+kGlmwmqqO2pzE+Vxygttc9ApPoc9HtPjzcUdjEBp2ygCKcEtkbp3rcumv0W64dwKsw7EaampTWS0dG90cb5XXJDjdpPTnovduDw+mnldUyyFgblbA912tPMq2raajbXtcGxtzEEyuA0CoeJuGsCqe3nopHZ35e0ij0aT1I6rKRR4Pw7WCOACllc4PllaO9IB5+KHjuK9uXTQOc3Me4N9LfNUXDHGVLgNbUR11VJJI9wtkF3XsLjwF7fJavjLiKDEG00sGaF+YNkjuAddviq6owPiDFMOiqG1VPTYe0uJcJMzneFh0WTxbgedkjKqHF2SDK7PFJfmNTbmtvwrjsbMEp6N8kcbIxbKwagKxquJu0aYYKi/gq2TE6to/xi0+ehUCTGDUkxySkPGosbglZWHiHG+CuIxVwsbVQ1BAdG65FieVtV6q+R3EmH/94jDWO0ezfKV4X6Qqr+7GNtoKxzuyl1imI0t4+IUrD8Llrqcy0lZAKcbhw3PgETh7h3CqeolOIGarzOPda7I0fALSScCcG4i5rzRSAgatbUPHz1Wcxv0d8MUbnerNqWg6Bna5mj5hUjPQVFjjxKzEjAz/AIbmgH5qNU/2c8PpXl9RjD8p5Mc2/wA1Xn0RYdTThkOLAMvY9o0OKtX+h2qja19JXUtUzfugtdb8lvODvRZhuIUPZ1dE81Dfac92n5rbYd6JMFofZha3+RoC0FLwlhdIwNbSscfxOGqlswSgZtSRA/yozKCmjFm08bR4NCML21+i6kkkkkRdJJJJJJJJJJJJaLAcLLWiV7bPd15BaNkQaze3gECZ7Gb6nxVbPUMa4kACyoqyvc9xANgq9rnumsXb81axTx0jdHDMfeJQKrGYWNN5AsxieKQuDuzJL/AKn9brJ3WhppHE87KbRcF45j72gvbSRndx1NvBekcOcC4fw9TNEshnlG7nlXUtfS0zMrCxjR4qorOIadpt2rfgqmq4mgBAD8yq58ddO60cTj8EyNtbUkZYy0K1pOH6iWzpHZfNXFPhMFP7RzFSw+KEaWAQpMQY3ZRJsVA5qvnxbexVfPitr95V82LC/tWVfUYrf3lX1GLD8SrKjFxrYqBLiRfzUCauzO1dcKHUVtxvoq2eusN1BkrfFRJq5utztyVfNWFwOtgoM1ZYWB1UOWs8VGdV+KF6zrqdOaY6qa03GgTXYkADY7KP9qOOm6Rqy8XJCC6p71jzXW1IjBJOh+qjOrrvuSPIJesExkg6dLoYnD75tAECWcFrrGw6qmqqht7DVQpZhbUqJLJmKhyv03USR1+aA93igvddBc7khudbzQyU2901zreaHukmvOlkxJJJJOa4BEbJ46KTFUPY4EOVthuKzU8zXtcDY9bL3/gLj59Tg+erZNNLGAGPbID2dhawHl+atsF9IkWD4hTS1MVQ+CMvMoawOF7kt8zsvTaH0x4PiE0UkEYjbK3O/wBZADm/wq0r/SlhzKOSVk9MHBtwyQ+15LyTiKrouIsdbilQ9klK1oZGxzzvf2rfPVa7gbGMJwuvy1dQ0wAZmQxHOx7r2BtbfqFtzWYUzEavE6apbTiYWyXJJd5W0WzwjEsLpqJ0klUyFzgC5+a7hp+azfEnHsbHw0dC1jo8vell1J/qqSm4qp3SEyy9nNHq4gXDmqLWcX4XXStEzY+6D2c4AJPO2yposbpamaWSQina/u9rr/sKjq+FoMXlGItq207WkWL2HM8Dc6JmO08mC11HikT3V4kGWRhaXNDbW0BU7C/StDUQR0zqSpigpwWAWyRjlpZBixSbFH5IaxkcBc4XlYHXJ90nf4rjpPVn2jyktNnGN1irjg/FqN+JPkxBzo4h7Db6k+Kn8YcSBlPO2maHttdrmEArGYFxa10rngTGbk17dW8lIqMRnqqoSucYnNOYAnug/uiVmP4hHC6RmLtbIT3YHPy8t/FeY8SVGI4hBK6vrHVD8xt2j75fJd4ExeqE76GvmcaMsvGDpld5r0OCipqdjJmVj2tO0ZduqrEcWkppstPLJmBuEWn4mqZiIpWB5O5bqrZ+KSU7WOkkc3TTWxVXV42ybOXyOPMC6p/tNt3HvHpbVS6Pjynw+pijkqMmmxK9v9H2NU2IwtfFM14PiNVvUkkkkkiQOaaZGj3h81wzxt3e35phq4RvI35ppr6cf5rfmmnFKVu8zfmuDFKV17StNt0KTHqKP2pgEJ3EtA3/ADrpn96qH3XOcfAJruKqUe48/JBdxhA02EEhQX8axt2pn/FMPGpPs0rnFEj4nqpBc02QdEUcTys/8rm8yjUnF83ajNSxtZ1Kv4PSQ2kZYxtJ8V13pRjdfuNaoU3pEbLe1reCiS8atlfa5t0Ueq4lZJfx5BQG447tSQHkfRPkxiaQHSxK6Ktj2ZXRnVS6eaMs7lOCepCm081QSAyNrFcQ4pUwRhrX2PMhBmrKyfedw+KiuppZfamcfilHg7HO7zi7zKmxYVTs9rKFOijo4Nco+KN9rwQ6NDUGTHx+LRRZMf6FRZcbLveUObGx+K/xUGbGm83fVQJ8ebycq2bGgSSX3UKbGrjdQJsVcb6/VQpcSvu75KLLX295RajF2tbpuq2XFNSb2UKoxa+hcq6fF2tvqq6bFy46FAlxG4vf+iiPxG50OiA+tud91Glqg43vZRX1gB32QPWySTfn1TJam97H4oMkptbNouxutcuN/BHEwLN1HlmGbdCmq7gC+ihyVQbfVMbiOXRNmxaNrOd/zQRXiZlr2KhSSBzib/FRJXqK99uajTSbhRHyILpNUF8oCE6TVDLwEwvHmmGS/NNzhcLzyXC4nmuJLl0sw6rmcJZwlnCWcJdqOpThUlvvFWmB8VzYXUaSvDHbi610fFb5A1xmc4HxR28UyZ/8Ypx4mmfo6Z2XzTpOIakts2pcbaWRKTi/EKLvR1Dr8rqc/wBKOORMAFa7e+6kU3pp4jY23rrn2JPe1uVaU3pqxrs7Pe1xPvOGqnQem3FI3Ajszpb2Qo83pqxIvkJiic888oF1Fk9NWIzPcMjQ08gFJpPTTiFGQ5tup5gqXT+nOsmcQ9rDYG2n6Knq/SZPO+zWN73K2yLS8dVrgGtc1rjucvJcHGkzC9xfmedCVxnF00b8zZntIGwKfFxfVyyE+sSuvplzaFXdLxtPSQ5XZHDo5gKh4j6QpXttE/s3c2N1b/RZuXiCpqawVMkmZ49nWwARX8TzmRzjGyaQ7AqxwOorKqvZPMyKIciXXt8F6DT4ngtPDmqZ5aqoI2As0KFPjuHta4MY5ubndV44uosPa9/ZEkDfa6zlb6WWVMuWGidI4aaXKqK7jyvqZAG0T2HYABKnxjG6tmWOne0noEWDgjiHHJ2uMGTXQnRem8I+j/i3DzG6CoMQ6Aley8Pni+jiayeeOYD8S1lFU424ffxQ/BWsUlQR342jyKkAk7iyxh4nqn6+yhux2sf7xCY7EqyQe04BBdUVJGsjh/qQn1M343E+JQTNUOOmYppiq3m1nDzKIygqXnV4F+pUtmHPDQDMAB0SbhcL3XfIbc040dFDs0HxJSfLCG2AFjyCYHRcgutfC3ey6aimA1AKQxOBnsgLhxxjNkF+MF/MIL8Qc+3eI8UJzi8i7zr0KQgb7xRo3U8Q7zh5XRhW0zBy+JT24jSk6kFGbjNOwWblXRjcJ/CU+PG4RyBUqLiBvKylM4iaBa4A80RvEUY976p395YhqX/VNfxbC3QOCE7jBjdnAID+MQTbMhScV5hcvsgu4mLvfQncRtG71Hl4rYz3goE/GAN+/wDVQZeLS6/fUOXie5/xFFfxJfTMo8nEF/eQX47/ABKNJjzebhZRJMdH4lDmx0fi+qhT4+2xGdV0+PDWzlXz45vd2ihS4w0n2rqO/Fcx0KZ9q90gm9kE4oM2p080J+JgmxNghSYq0i1/qosmIgjTZA+0dedk/wC0ARuka8W3vZcFcHHdG+0ABb8lFmqzIT3tEx9WQMoOqg1FVlNiVFNSXndRKmtINrrkVcM7RdSPWr6BAdPmvqocs5110QHT6KHLMb7qO+Y3QzKfJDdKSm5yuXukkuJZgOa4XjkmFxK5cdVwuAXC/ouF58k3N4pZrrl7LjnaKOXtL91osKmjfFbOfAKyGXk5dBzg2dYKTEHNb7Y8yU5odf2x13TmQ9q/U3un+o964dYeCL6tpbtDoux0xAv2nzQ3Q5ne0V31drdfe80N7S51mxu16J7KYsbfK7MuNgcx4c4OCO6rEbbNLr8zZR31r9gHW8iiCskcfZf8lYQVc7GgNjI03IRvWKmXcElOyVDhfsiVIipq2YACAgKfS4LUveC+MMWjosLZGwZyS7zUoYdGTcOI+KPTYZFGDu4nqivwSjnN5IQ/qLp1Lw7h1PLnjpw3wU+PDaEOzmmBd5K3oHU9M4FtOB8FpsO4obR2tCPkFpKD0jFlgIQbeCuKf0lNt3ovorGH0g0shALLXU6LjKkkF7EKSziejf7xCyDcRp29CUjjELdg0eSG7GWkckJ+LxjfKUJ+ORsubBCPEwHda0BMPEDn3zPA8Lrn94ANnpj+JWjeT6qNJxU0f5iiv4oudHJh4ldyTHcSSHZ6YcflcdZEvthx95NdjLm+8PgmHiBo9+/xTTxKxt+fmUN3FpbsQhu4ydfQhCdxc93vkeSEeJXuOshXP7x7AvJThxF/H8k9vEhO0hRmcSAHV/zKcOK2j3v3Tv73huzk1/GZHvoL+NncnWUc8ZSl2j7+N1wcUzONy86ozeI37l5XTxNbdxTX8Who1f8AVRZeNLbSfVRJeNb/AOZ9VGfxcX3Oc/FAdxPn3cgu4kJHtH5oR4iF7F31TXcQtG7ihu4jA2d8VGl4lA9/6qHLxMTs5Q5eJHnZyiPx+R17FRpMYkdu4qPJij98xQjiLre1ohmvA1vqhuxO97FRX4i4n2tUx2Ju6oRxE2tdBdiLx080J+JOA1dognFHA6ELgxWTwtZd+1pRbVuvgnsxeVoPs38kjjU38PyXG43MOTPiEJ2MTc8ijy4pLK3XLtyQRiD2jcfFAlrXOcTohxVbnTAFWsZ03TXuykqG+TNcqPJLbZRnyAIDpCSmZvFLMOqaZAE0zeSaZtVwzHqmmUrnaFLtCuFxK5mK4XLlylc+C4XHwXDIQhvqMo1sFGmr+lrKFJiBL+7ZWFFi0kVrBqshxBKB7o8gVz+8crT7hHkV0cUzN2EfySHFkzdhH8l0cXztN7Rj4H904ccVLf8AhfX9108dz2sWxO8wf3XG8eTs2jh+IP7og9ItS2/cgI/lP7ro9JNUNeyp/wDkP7pw9J1YP8un/wCQ/ukPSfWD/Kpviw/uu/8AalWf8Gl/5D+67/2p1o2ho/8A2z+67/2qV19IKMf+mf3Xf+1fEB/kUf8A7Z/dL/taxEHSCj/9s/unN9L2Jjanoj/6bv3RW+mXFmjSmov/AG3fuiN9NmMNGlNRf+2790RvpyxobU1B/wC2f/kjN9PWOA6U2H6f/SJ//sjt9PuPjakw7/2Xf/JFb/aD4haNKPDvjC7/AOSK3+0TxEz/AMnhenWF3/yRG/2juJBtR4V/7Dv/AJIzf7SfErdBRYT/AOw7/wCaPH/aW4mH/wB34Q7/ANB//wA0dn9pjigEf/ZuDnw9Xf8A/NSGf2nuKWH/APxmD/8A6d//AM0Zn9qXilv/AN24KP8A/mfp/wDvUqn/ALWPEsOXNhGCPtzMMjf/AO6s4P7YmOtt2nDmDPH8Mkzf/wCxVlB/bNrmW7ThHDnm/uVsrf0K9FPF41vIPmnDi4W9sfNNdxjYaOuhO4udJ7Lkw8Sutq4BNPEl/f8AkUN3EzrENPxKC/iKR28lreKAcdBJzSaeJTTxA0e+TZIcQNGoeFw8RsAsX3+K5/eaIe8uHitjNd/ihP4v000USbitztc31USTiZ+b27DpdAk4pdb27fFR3cTu5vv8U08UuOgdZNPErz/mfVIcSSD3rnwS+33DVzyPjZd/vPpbtD80UcSho0cfHVL+8w/GQel0x/FB3Emvmmf3md+PXqSuf3hcTcvv5lPGOEkEvv8AFEbjrG7vPxTjxO1uzyUN3FR5OPzUaTig/j+qjScTE+9dAfjzn+9ZDONOPvA+F0hjmX3vqunHTvmJCY7HblNdj3La6G7G77uCFJjbfx2QH422/toL8ab+NDONtG2pQ3Yz4/JCOLX1uUx2KD8RBQJMUOupPmgvxRx5lR3Ym4H2tEI4mSd/ql9pdSuOxKwuQU12JB7dD80B9aXc7oYqj4hI1hbci5XPW/EpCst/1SNaOhSNbY8/Fc9c20N0z1v+EpvrHhom+sEg6FNbOWPBsdFc0leyQC51R5HAsJBUOQaXugyMJ1UOZhY5R5X2NkIvKaXFcuVw3SSJsm5x0XM56LhefJczHxSzJXsm5lwyAIT6kN53UeWuyg6/JQJ6xztACUFsc87tI5D5BTIMIqX2PZTfAKxgweq/4FQfgpIwWscP/C1Th4AJwwOsI/8ACVXxAXPsSrB1glb/ADWC79iVuwhefJzVwYBiBOlNKfi39k48N4g42NPM3xuP2TX8LV5G0o63I/ZRpOFaxp72f5f0TDwxOB3i/wCR/Zc/uy62uf43S/u7bSz/AD1XP7vt5iT6/skMCjvb74+ScMCbfecfJOGAHS3bfRE+wXg/5/0XfsZzNzUA+QRGYYbgB9UD4NBR24a5u76n4xtRWUVjbNUX6dk390dtDIdmzOHjGP3RmYdr3mOH80aTqONu8ZNukY/ZdaI2f5APTMyyPHLGLXgZ/wC1f9UcTUpA7mQ//wCuEnPgtpI0ecDP2TczOXYu84Y05srL6xUvxpmH9VIjdTO9uOmHlSD9HI7Th4HeEH/6dw/VcdLhTd+wH/puCb2+Dkm/YfIrodgp3ZC7yH9V6oMRmI5FdNdK7nqutqZyfa1KK2qlG7011dJzcmOr39UN2JP/ABFCfiTvxlCdiG93IbsQB99DdiIH+YhvxRo98IBxlrffHzQn46AP8QKPJxADpnUZ+P22cfmo0mPuPP6oJx48/wA0x2O/xJh4hLdQWlDdxK4jcDyQncRyH3yk3HJHe875p7cWlPvWRY8Ulta/zT/tKUn2j81z7QlPvFObiM190T7Smt7SQxOXquHEZBpmKQxJ/VI4i8ndN9ceTq7RI1ZHvJjqt3IpnrTupK562Rz1S9b8dfNc9c6fkmvqnfi+iC+sefe+aGamQn2yhOqnj3voguq39b/BDNU/qR5BNFQ9x9tEa55Or/oiFxO70PNY+0hySgc/khGQHdx+aZmudCfoiDIN3cuo/dItaDoQfimk5NczfK6a+o/iZ8EmSB7hchSPVgRyv9E10TWDcW891HfO1u4FyhNqGOOhaLc7roqW5dcpJS9YYXHYfFMdOzLe+xSMzTzv8Uu3Hx56rhmaPLzTRUZT3RY9EVuKStG9x5ogxmws5u6d9uNsO4hTYxHKLFllGNbE420B8UhPE4e01OzRkbtXDa2lvgU3RMc6x2QnzAA3QDWNHIlNNcB7pTHV5Hu2UebFHM5ILsXeBsmHGJD7pXDiVQ/2WFcEtXJ/luHwXRHVuHslPZSzk6hSooS22ZgU6GqEQ0ZdSW4w5mzPqn/b0g6/Nc/vBMNrrv8AeOYe84/FL+8MpO3zsl/eGbkAPgE3+8E173Xf7wz/AIj81z7el5rn24++5+a79tP/ABPB/nXRjUl/8WT/AJkQY9KP86REHElSBpO/4gLp4nqj/mn/AJQmniWqJ/xT8k8cTVA94HzAXHcTTO3LfgAEw8QSH3z8Cut4hkHvvHk5PHEsh0L3/O6X94ndST4tC6OJHA+zf/SE9vE5/AD4WC6eKHco2/8AIE08SOcNWN/9sJn28TyHwYEhj0g2cR/pCX29OTpM8fBc+3Kkn/Gv5tCX21Od+zPnG39kvteU7siP/phL7Ucf8mL/AJUvtR3/AAWfAJpxK+8bfkFz7Qbf2B8gvYvtGXbLfyCcMQnHuH5JrsRncLWPlZCdWzjr8k01tQfxfJDdXTjclAfiMvUoTq15QjVybAEoTqmU30d8AhOllcD7QQHyyfxeajvkdzJQXSOI0B+aZZ5P9UixxA0N/NM7Ik87rjoHHn8k31FzuZPxC6MN5kkf6gn+oRDd1v8AUutpKdu7gR4uRGspRs5vwKfmpWj2/qumenB0Lj5Lnbw7hryl6zCPdf8AMJpq4+TXWS9aA3uB4hcNS08yfgumpHj52TTU+Lv+VI1I6vI8GJwlDh7482JF4/i/5U0Tt5h3yTxK07AlcMjOYTTI38ITTI0DYX6KNNU5SdAFFfVPOxQ+3lI0/JDe+e+xt1sgyPqANQ63khh1Q494PT8jwdS8J93W3d81yz3HQXPif6rnZTH3Wnr/ALuuerzO1Ab8Fx1PONczPOyGY5Wi5Lf+VMd24O2h2Nhf5JSPqLAW8tNShmeVoy5QSeQCY107nFojuR5WCPT1U0LnNdFmjOhd08lYUuIEM7zR2Y6m11NiEVSC4uazo0uR3YZAIC58zATpq5UeJYN2TA6KZrmE7g/NU0xLJAMw0F7i5TI5rvd94Baw9lObJcOHat3I1aiNkDog7tGk6Fcldksbi2yZ2habGxB21QzM/MASdNtU31h7rge0NwSmmeQtNtubTe4SbI4tudR1F7hOaCddLdeS4W5Xai3x0K5KCOVj0v8Aqhkyk2FwfPVOZJVNOkjvK36KZT4lUxHvNbI0brWcM4lgdfUtixRhpWu07UatC9AxL0V4HJRRVVLiMckMmzmnRYuv4JoaKsMPrDXZhdh/RV9XwpBTi4Nx4KFUYHFEy/xVFX0cbJMtvFRPVI+icKZgOwRGtDRoQnB5/Fol2jvxFLtCfeKXaH8RS7R34iuZ3fiSzHqkXX5rnJLRd0S0XNF3RcSXQEsq6GnonAO6Gy6GOPVd7I2S7M9Sl2PS5+CXYE+675JGA/gd8kuyP4SkIjruEuzPUrtj1K7e3O3wXL/xLt7e99F3N/F9Eg/Xe66HldzFdzf7ukHJ2ZLN5L6k/uvTjcj/AJf6ph4bpgb5h8kN/D1L+O3x/oguwKlGgkF/NC+wqc/+ZaEN3D9Odp2kfylDPDUR2m+TU08LN5S3/wBJQ38M5fH5hCOAsb7TR8037GgA1azzuufY1OdAI/mkOHIpNGtjKc3gp0vs07Xf6UQejmV//lAPmFz/ALNHnenA+LkRvovJ3YB/qKKPRY2w7o/5lx3oxZELuytHVzrfmgO4CooyQ+opx/NO0fqgy8GYSz2qyjB8ZmlRn8KYOP8Az9E3/wBZqC7hrBQe9iNMfJxKaMAwNv8A5qB/k1yQwXBgLhzXeTCmuwfCRzt/6dlHlwvCWjvPaPO37oX2ZhG4qI2+bx+6e2iwOLV9ZGPC4K453DzR/wCIB/ljugPqOHWnWSd38kQQX13D9+7BXSeTWD9UB+I4UD3MOq3DxkaPyCH6/SOPcwuf4yD9kRk8BvbDnD+Z6cXwOGtNG3zI/dM/7vewih+f9UVrKW/eiiHxH7rpdhwAzdi09Lm6G6qw1twG058w4qDU1FI86PY3wbEo5qYGCwkBPjGFHfWvbqHRjpsCo8s0817keecBQZ4JT7bmgeL0JkYhG7HH+J3+yiid7Pcit4kAfumS1jg3VkbR5foFEkrDb22gfyWHyQXV81v8V2XxFh8kJ1VI7V0j/wCZ1/oEu2ee927hb3nE/kutkkOomd/M4lObndr2tur3O1XRG540lDW/ic/UpvqbnDuvaGdQ/U/76rnYOt3XNazqH7o9LXuiBHYQyR2td4uT9dlHNV2sufs2hgOgbsT+yK7FXz2sxjWN9kjcnqhNxCaUnv3YNB+pSjxOc9p37tvlA/P/AH4KOagyOkcWje2nghMcHOkOUe1b6BKJ+r7t2eU6KazHNy7OITWzF0ZY4A27pXGuMjC1240NvzTg7tIyDo9p36FNBDx+F7d9Nv6JCzrkHK4aEJDXVvdeNweaTTe9jlI3aUhzA0PNp2S02A23a5IEE2Av/C5dzAm1r/wk2KQcAdrnoTYpZ78tfE2P9VYUOO1dHC6Fk0nZHXJmIsVKdjLpXxSdo7tGuBsTYraVEsUuH3tZxtodCq6rfEYI9tdOixeJSiSskI2BsLqITyXb/wCyuJErpK5zS/3qu31SSSukErpLq5dK90rrqV0ufJdXb/7uug+J+a7p+JdAH4kuXtLt/wCM3XRK7/ikDzKXau/4h+ZS7R3/ABD80u2fc/eFd7d49/6JGd/UH4BITn8Lfkl2o/D8l0SN/CUu0b+E/FLOD7qRPQLve6BLvdAlmcOXySznoV9WF+J20p3f+6FxsuKtNhSud/6iT5sQ3fQE+Pa/0UaWplF81CB5z2/RAdiYjBvh4+E11xuO5P8AyRaOpkXH8RxN3jY3/wBRBdxVTjdrT/rUWTi+lzW9WDvEuJUaXi2Np7tDB/qH9UD++RG0VJH5sB/Vcbxq4bS0o/liC6/juSMf+LgA8GN/ZMHpGmj9mrsf4An/APafU/8A4yod0DTb9Eh6VahugNU8/wAT/wCiBL6SsUnaRG+aMeDtfyUGTjHFp7l1RVEHl2hUCpxWqqv8Rk0p6vJKhOlfv6pc9MpQXPkcf/B6nnkKC8zN9mlI840LPXX7sdj4x2T2uxTfsnW8GkJF+IHeF1v5SU1ra1zu9Hp07Mow7e/+CR/LGU4Cdp1gkt07L+iK0ynQ0Lz5x2/ZObhckxzCjLfM2H5qXFgNWWgh8cf/AKo/39UpeGMSkA7PEGtHhI3T80E8EYlKBfG2NP8AFUgfkolVwRWwgmTGqcjo6r/TVVU3Dk0ZIOKQ+edzkL7JfGNcVj/9t9vqmOo3sbpiTHDwidb9kP1WRxt9oNI8GH/omuopOVew+A/ZDOGzEa4hG3wza/IIL8NLfar4vmfyCC6jEf8A5wW8iAhOHZgkTZh4d0IYqA32ZD/p0+qZ684GzZneTT+qGaognvWPRup+aaalzfey36akppqXAXzlvidSuGY3vqOrnbpnaOcbtJP8TlwPJOhLz+InQJZtfxv+g/ZcJsRcl7uTV0ktF3m55NCRebZnmwHLl/VLM6TV2jeTTz80sxm5/d//AMv6JF5kcWg9waOPXwSe8ud2YcRca25BclcQAxpsXaDwHNKR/ZRd3lo0ePJdFoY97ho3ShBETAdyLnzKbAe4T1c4/VdiPelH8f6BJptPIOoDv0/RL2Jh0ePqP6fkk85Hh3I90/of99UpAWHtBfTRwHMf0SeCbPbq4D5jolpI0PYbHkT+RSFpBcd17foUvb0PdkHMfmEjqQ1+juThz8kjuBJ8Hbf9EnXHtjM38Q3CR2/G3kRul7Q/4jfHdc3Fh3h+F24SvfQH/S5dzctvB2q1NPjURwmJsszY5AbOa432UKrxNohsyQG1yLG4VGSXXO9+Y1C5y01/l/Zd8vp+y5toN+myWx10PyXdvD6JbeXX/okNv2/okNdvmEgUuaSSXJLdK90rpBd28ErpApXPJduuZiu5iu5yuZiUsx6Ltz0SzeCWbwSzeC6D4JZl3MkXeNgu3HU2SXbjqugjqF0OHVOzjwXQ4fhv5Llx+FNzeB+S+hTj9efaDB/qTDjda/8AzGD/AFOUZ+JVDybyC/m4oXaTOuTleP8AUm2e427NgSDKhxAAv4LpwySQXcMoPUFJuAQuvmkYPIf1RG8N0p/zwPAAfujs4ZoX6Oe53y/dHZwhhrhqL+brIw4Nw4jSGM+JcT+iHLwtQ04v6u3zEZKiPo8KhNnljbf/AECmF+DxjTtHfyRAfmmPrcIaCGU1VIfgPyBUV+J0wP3eHyA+Mv8ARRn1FTM60NC4k+JcfyC4+jxgtv8AZ7mjqYnFcjw7GXm4pXgeESf9j4s+2aNw+ACIzAq8WLnFvgXNH6qTFhNYz/OY0/xOapLcCqqm16th/lkH6BSDwect3y69TVgfRRZuFoG3D66NnnVsUObh+ljH/jwR4TAhQn4PTN2rC7+VxP5BRnUNKw6yyu/lcf0THQ0jTo6YebrH9SnFtPbUzO83kD6hcPquXVtx4yOP6WQDJhguHRh/8LZSfoFGmrsIhNnU5Z4GQt+gUWSswV/e7GQ+IeWhRZa3CbEMp5b9Wkn6lQpaykJ+7hk+YcVCqZmu2ic3/wDNd+gUdzza1mgeJICA4uNwHEj+AWHzQHMeNnEHo3U/NCdG8akW8SblMLH7lp83/suDvci/6BcO9ib/AMLV0nKBcho6DdIXsbDIOp3SBubtFz+JyWgdr339On7JOAteQ3vs0f71SILhr3G9BukDmFmDK38X7JGzCWsF3c9fzS0jGZxzOOl+fkEg0khztxsOi5/jH/6f/wDL+i695JyNNjzI90fuk5whYABfk1vUrsbMjdTdx1c7qU2I9oTIeejfAf1SPfmA5MGY+Z2/VKo1jyc3uDf3+iJexv8AFCpv/DR+LQV2P/FmHiD9En92eM9QW/qPySnB7PMPaZ3h8E4hsjCN2uH0XInOLbO9tpyu/dcZ92/s/dOrf1CT/unF49k+0P1XXt1DmkZh8j4LmkzeYI+bSkDm7jwM30PklmMYs45mfi6ef7rtiz2O838PTyXGgO1YQDzHL4paOP4H/n+6Tjb2wB0cP96JOvaxGdv1XRct7pD29CuA62acp/C5L2f4D8wkdDcj/U1L2tdH+I0KXtcw7wdukTbQm3g7UfNLUdR5ahIeG3Vp/RLQncE+GhSOm+/iLfVI67/Mi4+aWpHUfNIHkLeQ/Ypbc7eGy7t4fD9lwa6/1Stfx+q6fH/fzS5a7JW08PBL/eiWyRHNJJJIpeSQXeaV7JXSCQXdktylr4Luq7rZduV0PI6Fdznm0LucW9kLocOlk4OHRdDl24PRe1FksmnYzD4ropZObHgdCURsDhrlt5OTTI8Gwd8yn9u9g1N/IpwrhzBH/qoseIRe8+P4v/qpceK0zLXfD8QFKi4mpotAYXfytH7FEHF9EN6btD4GyY/i2jcNMPaPMkfW6CeKIXHShPwlP7IUnFLSLNpwzzlcUz+8BeNYQR4NJ/OyJDjDCQTTO8xC0Kwi4lome1S3PiGf1Tn8VU+UlkLI3cs7Wfqo7uNsShafVJWNPLK4j8gFVV3G3ElYSJaqMjoXf9VVS4hjFQe/LH5ho/UprYsVlv8Afkj/AH5Bd9SrtnVTGnp2gB+i46gmGrptf57JnqMz9i53j3j+eiY/D5CLEuHkCfyUSaikjBtI5n81mfrdQZGzMJIqAPEC/wBSoks7r2dVvv8AzXUWSpe3T1uUDoX2+gUd9VL7tVMB1Gg+ajvqpi7/AMQ5zvAlxXDLU85Xf63foiCSrtbO9zfBtghESO0t8GRj80x1Prd0ZHi46roo2P3jlPi42CX2fE4aOeT0YNPndNODtAvcMHjumOwlt7g38Xn9EF1FGbjP2h6A2CFJTtjGr2MH4RuUzsiPZDWj8Tt0MxZzoe0PidB+iY6ntrJIB/C3mmmAn2S1jfLVMbE25yDMebjt80nQNb7bsx5C35BLsS7d2UdBv803swRaO1h7xGnw6rjo2xG5dnedupS7Au1fa34b6Dz6rmV0vsGzfx9fL90i3sgGtF3HZo5+KTYS27nEF1t+Q8kzKZ9SPuun4v6J0hIIa0Xe7YHkOpXWxiNpsfEk8/EpkQMp7Qg22aOg6/FdlGciLXvC7vBv9dkRwaxpN7NGpQ6dn3eZ1w55zEfp8rJOaHVDGg6MaXHzOg/VdnblgkN9mk/ROZGWsaByAH0Q2NPrEw8GH6FcqGlrGu5McD9bfqi5SChU4Ia6PnGcvw3H0SeOzla/3Xdx36H9PinSRGRltjuD0KUbzI25FnA2cOhTAOxdl9w+yeh6fsnPY6+dvtbW/F4JC07P02IP7pNLmuDX7nZ34v6pZHR3LBdvNo5eX7JFokAew2PUfkUjYnI9oB5dD5Ltns5Z29eY/dcDDbNGRY8uR/ZKwe6xGST8/wB0nAgWe0EdQP0XQ11rtOcdCf1XGsubNuw/hI/39F0xke00g/ianCCRwHdEjUmwSHQb/hcl6u8bsLPEbLpppL3yZh+Ju64IXv0He8HDVd7B7dLOb5i4XfVn2vkNurP2SFM9x0bn+hS9VfzBA/jH6p3qkgA7hHkbhIUb76AHyNikaJ41Jbfo7RJ1I/8A694LnqzraEH+U/oVwwlp5A/JcMJ31+Iv+SXZF22vlql2dt/zsudmR1Hw/ZLs77A/DVdyX0v8P+qWQjfT6Jdn018lzJ4/D/qu5EsnTUeCQYEuzHO/yXcgPU/BIMH4l3swOf0XRGDtql2NzsnCE9LJdg8ahq4WO6JFhHJLI7okGOuuFhSyWXct10DxHxXu0+KZ7gdpbxfZQZKxwNw3451Glr3G+jb+LiVHfUyEaOa35hRzLVE6PHwBP6Jj46lx7xvfqmmln3s4/Arghlb/AJZP+/BP++Frwu8yP3Ro5Zbf4Lj5J3rDxszKfMJOknIvl06lv7lcbPUjQOI/lbf8k8T1Y/zpGfANXQal41qJXeev5lPa2bnUEfzP/QIggcdTMweJ0RBE3/8AEwE+DXPKeXCP2quNvhlI+gRGSst3ahx/ljt9SitMcht2rnHyLiidi63+JlH8dmhNaySM3ZUQ36Nb+pTZKyrboammB/icCflZRpqmskFjVQ2/nyj8lDkzuP8A4uG//wBNuY/OyjyUz3G7pISOsv7ITsO7Ubwu/laWhCdg7WnWSmYegaSUJ+D3sbwnxkdb6If2YAbdpG4dIzYfNOFHHBq4Rs8c1yuEQ/hz+LnWHyTHTwtNjkv+GMEphmjFy2BjP4nalD7Zsm0faeOmVMklcNHSMiHINtdAL3+7p4u3UWVziSL9qeg2/ZAlEhF3ObG0dP3UfK7/AC2g/wARH+yUN8Lh/iHMTs0fsuGF7t+4Pmf6IXZtaSIxmdzP7lMfFlGaRwt02C5Z7/Z7repGvwC5ZsRIDczzy3JXezc/V9iPwDb49VzM6TSO1vxkaDy6rhjbC0kk3O5OpK52DpdX6N/B+/7Lr2kuyMGZ/js3zSZSGME7k7uPNDEBqLE2EXL+L+n5p0jezA95xNmtB3K5HSlgJLszz7Tv98kx8PbSGMA5G+2ep5D90ZzOzY5zgQALkpkNM8tL3Ate83IPIcgmz07nmOL8Zuf5Rv8AoPijerk9UCCBz5Jni9i7KPJot+d0qyneaZ4sbmzfmQFINK+580EUrxVSaH2GnbxK7NSOkie2x1aRt4JRM7SJj7HvNBQ3RZKlpG0gynzGo+l0SSnzsc12xFiuU7HvZZ1y9pyu8+vx3XJqd8Lu1scuz9OXX4fkiOo3SNLXNJB3TYoJA7s5Ac4FwfxD9+q7JRPac7GnNzH4h+66Kds0d8pc1yZk7EhsgcWnQP8A0P7p76UXLmNc1/O+x8/3XGxMlBa5hBG7Xf7+qXZdle93s68x59U407Hd5hIJ5jUHzXOzY7uSNyk9dj5FPEBZtd7eh3H7rradr7lhyu52H5hdMdhaVgt+Ll/RPEMjfY746Hf5rggu6waY39LWv+676vIQA5mYdWj9F1tLKReN2cdCl6q9upa6InnyP6JPglHtR5x1G6a2N17Nfr+Fy5kLSS67D1adFwtJGpEg8N0g62ge5p6PSNxu0jxYmXzjQtfbroUtf4m+DtQu9k4a5DrzYUsjnbkOPRwsUi0t3zDz7wXA2+wB8WGy4W3OoH+sW+q6YiPdcB1HeCaGDkNfA2KRY33rj+Zv6hOEQI0cbeHeSEDb6PAPxaUQUYdu75tv9URtCD79/AG/5p4w9g3JHwskcPjOt3edgfyTTRM/4nw/6pnqbB/mW+FkvU2u2ffysV31YX9r9PzXRTgdfl+y72bAb6fRcLmDn87pNcw7af78F0ub+IH4pjpbcr/NM7dp935LhlZzbbzXM4dsFy48B8V2+qQIPK6VwvW3U5J3J8j+y4aIHUx389PzK42ladoWn4k/knGIxWPZNb/pA/ddEcj9dx4MJSIezk74kD6BdHaE3ERd/p/UldEk+wZbwLv0ASd60do2jxOn5oZhqXn2or+Rcueq1HvThnxDf0SFESbmoDj4XK66kaBZ83/O8/kFwUbPdff+RpH1K4aWInvSC/QkuPySNHFl2kcP+QIfYQg6MaD5lxRm07bXMRI/idYJzImj2Wjyjb+qLctteNrfGR9/ontllOjS4joxth80ngk3eWs8zmKZ6sJLXbI/zdYJvq0TNLhp6R6lNdSRuuRCT/FK5R5GAXHaA/wxD9UMtyC4a1n8TrkoRvLoDJL/AC3aFz1IgXc1sQ89Uhhkb7EQl/8AE42H+/gnOw2Nps8ub0azf9004NmN44HD+J97/uhuwdoNnh8rvwj9h+qeMHkI7sDIm/y3P7IDsIBddsfbOHPkP0QJsMmY27mtY3+H91HEBZ/hwNv+J2n13KbJHI0fe5CPw7D5c1wxzPHchaxvU6fIIT6UMcO0bnf0vc/LkuGhdJu0xjo3Un4oZoomEtjhdI/nY/mUx+EGUd9mn4QTb+qEMMe8WiizD8WzR+6a7BHRd97CSPecbAeSb9kVMvswljep9o+Q5LjsJfTNH3NiToALucf1Qzg1RJrJDlbyZ+66/D5WnI2LM/8ACOQ6noEmYJMHZntzP69PJL7KqJXFkTdjZ0nIeA6lSouHZGR6NsNyXH6kprOGqqtsREew5C3t+Pl+afU4BPSsL5I3AD+HUnkB1Kjx4JK0mSWO0hFstvZHT9ym1FA+PKxkY7V+jdNupPgE+LBuyYGtYTbmdyeZQZcNdNOIshLWWe/T/lH6/AI4w5/4EGnw980sswByk9mzyG5+Jv8AJGloTDE+RxsGNLj8EOkwl0VNE1zu9lufM6n6lNrKG3Ytv7UzB9b/AKI/qsg1AaVHMUor3DJvCNv5j+6d2UoN+zQaKJ7YnR5B929zNvG4+hC7V0sjoHFrO+zvt05jX+nxTmxdq1r2su1wBGnJAlhfBOyQMGV9mO05+6f0+KkiN/OK/wAEynMkD+wLLAC8ZPNvT4flZElY6VuzWvBu13QrkUokBDmhr2mzmjWx/ZNkHZuMkceY++z8XiPH80g6OaO4Y1zHD5oReaY6gGLk4m5b4Hw8UR/3gF2tDhs4bhMZMQ4MkYwPOzhs7y8fBJzLEujja0ndpOh/ZJobOC10QaebD/v6rvqbmjQl7OnvDy6rn2cKgZmOJI5jQj/fRc9Qmi9sZm/iaPzC6MMkHej7t9dDdpXXUsxs2Vob0LtQfIp3qNTGdDmH4Xb/ADS9Ue99r5JPkf6ogpp2e1lkb4b/ACRIoiR92Y/EWP1C68aWlponDq0H/YTTCwgFsTXD+Y/muCkpXnvxvgJ96+nzUpmAQyN0mY5vQ6H9k13DcLTZtQWO/CRp/vyUeXAgw98h38TRqgGgYwnJLc/hcP8AZQvVWNJuHMP4mrhYANHtkb47pomEfIx+YuEQVNxd0Ub/ABAAKXrjfwBvg8JjqkbiJrfFqY6oLtLsPg4WXBM4G1svlqF0TNefZif8LFO7do0cwDzFwutmbbusHmx1lx0jXbut4OC6G3GjnAfwm4S7DNs5p8+6UjSv6u+PeCb6seQBPg6y4ac89P5gnNhf7uo/hdf6Jdg7mQ3+YELppZHD2gR53TPU5L6W+BskaCc69m8/6b/kmmjmBtkf5C/6pnqsg3Y4ebSPySNPIfdJ+qb6u5vIt+YXfV3HXf5FLsHefhf910U0g2YT5D9l0U8h913yXewe0a5h/pIX0scIi2cGN/ncB9AmfYET75Q0/wAjf1KX93odA5zB4Okv9AERvDUZ9kj/AEtA+pS/uzE42dIwno6Qu+gCeOFYLdf5RlXP7uUjd+xv/GXPKX93oXaN1Hg3KEM8N0o9rsQfi4rjsApbeyXeZyhRJMHpmHuNhB/hGYhRpcPadLC38RDQoj8MjPsvYD0jF1HlwonkXeMh0Uc4a4aNeCekITfsh51dG/8Amlff6LvqHLO8+ETdE4Ydl1yWHWR109tGx+naSP8ACMABFbhvMBsY6v1K6MPD9nvlP8DbBFbhr2D2Wwjra5SGDvl9kSzedg39kT+7tY5v+XA34f8ARMdwrUOGxl8XHupp4ZqmDvywwt6D+q63haRxu2Myn8TtB9f0T3cLzMF5bsHRpt9SiQ8MZdWUlyffkNvz1UkcPxxAGUtbf3W6f1KPFgQtaGnDB+J4t9N0R3DgH+NJe/ui4v8AAalFZwzI4WY1kTer9PoP1XJOFI2kCacPcdmn9GhI8KOm0GWNvU6n5IMnCNLC4dp95LyB7zvgOSaeEhL7rYh42c79h9UF/DFJTPtkD5bbDvPPn0TH8ORf5jY4m/hYAXfE2/JR3YdhlOTGyFr382sZc/E8viguwWikF5YgB+CNp+p5/RAfQYew9lDSl7x7jQQG+Z2C4MDpHm88Wc8mNByj9/ihy0dGXFkUOd40Opyt8z+gTI8DpMwe9jpZORIsB5Dl+aacPppHFsEOcg2Lye60/qfAIsWAUrNRBnkO73vNz+w8EP7JhqQRBFCGg2MziSPJvU+O3mhHC4aUFraWnI3LjmJPiTdRbetaRwQRwbGQNN3+DfDx+XVGuIY7NghYxo0yx6AKtkdVVxu1hbTe60Mt2nidNvDmnSzV7GF7nStaLkuNwAoLabEa14mljlLR/hsdfQH3iOp+i5NS1EMb5JY3sY0XJylBpsJq5HGV8TmyvHsu9xvJv7+KfVYdUUtO6V40GwB1J5D4lR4cIngjtIc0rjme4c3H/dvgg1tLJDASC7tHEMYP4joP3+CdFhrIImxtDsrAGglBrYB2bIbf4sgYdeW5+gKlOa11ydLqBWU+erpGh59tz7W6MP7ohw57/ZlA8wQorsMqm4iwNeCTC7Z3Rw/dGOGV42Dj5OUaKhxGOrqGZJO8GyaeVj//ABUgUmIi33Uv/L/RR6Okr4xLB2En3TrAZD7J1b+3wRJqCrlicx9O/K4WPdKDTx1csZa+OTtIzkfZp3HP4ix+KdJhdXUMsyOQSNOZhLDof25J8VBUyRZ+xkaQbOaW+yRuECpoJ2OEjGP7RumUi2YdP2XIyZGBzdWnqLH/AKpj4nQvMjG5gfbYOfiPH80VnZyMDgMzCNxsQmhjKXUAmDmBuzy8PDkjmKCVli3Ox2u+h8UmCKA2kDnx/wDEvq3+b9/mpDsNgqAPaHMOYNR5FJtBFCbTSPtykAAHx6H6Iz8Ji9pkrmP/ABfv1TCx8RyuMYPJ3un48vigyRTxEuY1jDzHI+YQjWvvkljaxx012d5FM7Qx3yaW3YTp8OiXrsUnce0tP4Xc/JcdVOZ7Ly4fhdv8ChmtilIDy4P5A6EeS567k2HaDx0cP3QjVse45W5ZOfIppr5W+7nHVpsfkmsq2OJylzHdAbfRGFdlBDml48P2SFdG4Hs35fDf6IclS13tjN4t1TWzt3jkvbkTe36rj52u1fHY/iGv9UMSA+w8PHQrhdFu5hjPVv8ARdGVw0fmHim5GDWzmeWycIr8myBc7Nrd2vj/ACTxTB4uWh46jQogoxbQuZ/MdF00DtzEHeLTqueqkaXczweEvUCDcj4sK72GXd5Hg8LvZ5NbO82FcLzte/g8WXQ5zfcc3+U3T2gSbuYfBwsUUU7+QePLULoo3uPInxBaU8UkrNy8D/mCQgcDo5pPgbFFEksYsXuH8wzJvrLzsGH+UkfRMfPId2gfzNuhieQjulv+l36JGR3vMjP8zf2XRO3nGz/S79CndpFa/ZtHmCPyTmzMto2/8r7/AJpwqWDQjL5ghfQjqmUC0YcPCCID6qNJJOTd0UnnLL+gKH2k5NmD/wBtp/O64W1ftEBg6yu/qo766dmgqQPCJg/NAkxCTcySO8Xu0/NDOKSnRszvKPVDdVVLx/mEfxv/AEuo5rqm9u0efCO5Te2qXm+Rzh1ld+l0m1NR7PbNafwsF/3RmesvOlj4yOCKDMNH1QH8LCntiJ5B56yv/S6c4uvZ1TE3+GPf9UhAxxHdLz+KS6J2MY0fMGfwtb/VOZRQON2sLz+KT+pRXQwx/wCJLl8GNt+ZSbHBcFkLnH8Uun5oz2sa275WsHIM/qhhgJvFSukPJ77/AKlPdFUBuaS0Tf4QfzJTomzA3iiLj+N4/Un8kZwrst5KgRt/hcB9Sox7ZxvC57nfjzfqf0TTSVrrmSezRyD/ANSuxRPabxQ9sfx5tP8AmKlsjqD7ZbGOYYT+ZRIJhGfuGGV3N0bbj4uJUuL1ubd7ox+GMa/M/oiRBwJEIfI/mY9fm66J6jWze057R+GM6/P9kwQyQXbEAX8ww3PxN9PiV1uHVU5+9qOzH4Iib/F1/wAk5tBFTkxtdmkO7Gan46/mUnYa93tzGNv4Ijr8XfsgPp2Ux7KPV5/y2C7j56/UpjsHq6od9/Zt/BGNfi79vmgzYX6o0MFg4+zGxt3H4X+qhzYXUSi8jzHH+CPc+bv2+ahVMUdExrbOaPdYxup8gobqeeo1kZJHH/w2uGY/zEH6D5rkjBSxi7BGwaADn4ADdR3Qy1H+N9zF/wAIO7x/mIP0C7J2MEWZ8jI426W5DoAgij9d/wAUGOE7Rk2Lv5tdB4fPopgpYIYy55jjjaLkl1gB80mUMddYygMptxEd3+LtdB4fPopjqelYCXA2AudQAB81Fa2Gus40+WkvdrXWBlPIn+HoOe5UojN7OVvxVUYjiUmd2tI03ZY/4rh72/sjl136Iz6NjxqXN8juqefD5a6pLoD2lPC6zcx9uQbnfZv1Pkhy4diN9Ij8/wCqrjQ4nVVhGQmKmd4ayW8/dB+Z8Ec4dX849fMfuoRwysq8Rt2RLKZtzp77hpz5Nv8A8yljBKtx1YB5lRjw7PNijGlzAIYi887FxsPoHKZ/don2pfk3+qC7h1hxSBvfOWB7+XNzR181KOANbrkd8f8AqocuFNjxSm0PeilHyLCphoAN7hRpKXssTpXZiBLG+I2PMWcPyKlGiv8A5rx/qUaWgbT4hTyGU5JgYXd/n7Tef8w+KnCnjaPaLvj/AFUOd8dHVxzBn3ctopL8j7jt+t2/EKSKhmxZ9T+6h1L4aao9YykRSWbNZ2x2D9/gfh0RZIoDu5w8FX1FLBTSGcG8LjeVo93+Ma/Pw15IklBA4d3L52uFV1GHtpHmRmsR1kY1uo/iA/Mc09tHG5oc2UOaRcEc0E4e2mcXMfmj3dENx4t1+imwQ0zmNeyVr2nUOumGnZT6xHPHziB2/l1+ifHFBOwOZLdp0/oUB1GKYXjeXx84juP5T+ibI2KZhyOzjYgi1vAhVtRRmEXicHN/A523kf0UF0XbBwvcbOaTqPMKO6nli9hznD8Dj+R/dMyiYFpNyN2O3HwQzC+P2XZx+Fx1+B/dczMl7hHe3LHCxH++qWV8fsnOPwuOvz/dLMyQ5XNsfwu0Pw/onWczVpzD8Ljr81x0rZDle3K7kHaH4FIh7djmHR2/zTCWOID25Xcs2nyK6WObsQ4dHb/NNOR5GcZHdSbfIpxhkGxDx0d+64YwdXtLD+I6fVPFNKLFpDh/F+4ThBd13js3fiv+oR20soF2lrx4kfmCkYCPaiLD1H7hOEEhFwMw8f3CYYWtNyx0Z6g/sugvA7shcPH+i56yY9TnYerT+yezEH2u2TtB0KeMSa3eNzT1aUWPFbt0LZB0dZPbXx31iLPFgBH5qRFVMm0aY3+DmJ5ibzhy+LE0UzH6d13gdD+a56o2O9myR+LHX+l04MfoBUF/8L/+qNHmj9oHzbqPzRrseLZ4yej2pkkTmDRtv5Df6KM/OdLsPg9tihOjkH+Xl/lKE6MuPeDSejhZc9W/gcP5TcLjqZh3Lf8AW2yQo8o7tx/K6676s07uaf5hZNdTlo0Bt/C+6+jJO1f/AJk0n8vdH5pgjLdXNZH4vfc/mldr9O2kf/8Ali36/quGjje65bb+J8lz+a76nTuNjUk/wx2/dFZg9O/UBp/ilcP3Kf8AZFJs+sjafwxNufzK7/d2mkI7O7z1l0H1P6LruGms9uphjHQafmf0Thw3A7pN4udYfUpzuHWMb3pIom/zD9ShfYFKRa5qD/Np+YCK3h9tu6yGJvnf9QEz7EprkF7ZT0Dhb6GyI3CoWCwNPCPFwJ+QP6ppo8MYbSVTZXfhZ+wKLHHQxt+6iiiHV5t9A66DUPoIR36sAn3GENv8jdQ310TbiniOvvOAb+t0F93d6SQtH8JDR8ybpROym8FMHH8bnW+pKOH1rrkzRQt5hlifmSgPq3RuOSXtn/ibY/8A7iUwS107v8QR+AIc75k2TmscH6ydpKOV87h9dPoj9jWnW7GDq45nfnZDeW07gZsj38s/ePwF/wBEUV1Q82YGxDrIBf5Ap5ka0Zp5mv6GQgN+AvZGjxF7rdmBb8cndb8Be5RRVROF6iVsoHImzR8L/miNx6B1m05a+3NrsrB8b/kuyV3aAmWtDh/w4zlb+dyo8nEcEX3UcvauH+XEBp562CUeLmb/ABZsjf8Ahxm3zde/ysjO4go6RrWZ2tv7McYuT8AfqufbDZyM0vYx/hZYvPxvYfD5ov2zRUURseyjvqbgXPzuShHHW1GjXmnj/E53fPkL6fH5J0WIUEDXWfa+r3OkJJ8SSUL7Vpq7SB5az/jvPd/0i/e89vNGhpMPbciZ7pHe09zgXH66DwCjVVJRTOdFTzPfINHH3GfzG+/gPooQ4cpYnGQ1r5piLZ3MGngBm0Ci1eF08bgxtQZZnatja0XPiddB4lMZwtDmE09WXyj2QxoDWfy6/XdcqMLoKZhfJPLa9gAdXHkAL6nwUePAYJntlqBJcG7Ic9wzxOurvoPqpLsKha0uDXtaBcuc+wA6nVRosElxLK90b20mhYxzrGXo5wv7PQc9yp4wRwPec1vm4fuoctA2tmfTtkHq7Dlme13tn/hjX/mPw6qzigZEAA1lhyuNPDdBra0vc2khZG2aQZnyAi8UexO+52Hjc8kTtYIYmsbTMaxgDWtbsANhuoVfjEVJB3KUOneRHE2+7ztfXYak+AXaV9FTU0cPYSPDRq4u1cdy467k3K5UYjhlJE+WWnkbGxpc43Gw1PNQsPr6eGjzOp3ComcZpAbaOdy35Cw+CIcVa4nLAD4G37qBh9bFUS1tQ6Bp7ScsadB3WDKOfUO+akSVFPyit8R+6qPWc2NTkWAZTRs3HNzj18ApJqBsZB8/6qvrKmNuKUBMg1Ezf/2g9fBSDVMOz83wH7qDidQ1kcE2UHsZ43E3Hsk5Tz6OUw1DG7sb8f8AqoeJvFTRytjawSgB8dj77TdvPqPqlBiMFTBHM1ndkaHgX2uPNMqZaeogkhkHce0gm4+e6h0mIRzwESub28ZMctju4c9+YsfiuSTRFpaXNe0ggg7EfNQqWudC80r5A4sF43Odq9nLnuNj8Oqk9ux2rpAB4O/qhQTQUEghc69O/SI39g/g326fLojPfTF27vgf6qvlhionGRj3GnJu9o9w/iGu3UfHquyQgtBZIHA63uPnuq6aGWnkdLDc31fGCAHeI10P5rsdYZGZo5Tbx0t4HXQoEpnzmSKYNkO9zo/z1+qGK90hcHSOY9vtMLtR9dvFBlkzuztmcyQaZgfoddQuNrszgyV1nna5uHeRv9EnsjlOY2a8bPabEfVdbKyPScADbtWu0+Oun5IslLDM0d51xsQRceRuozoXxXzZpWfiaNR5i/5JGljnYD7beRB/qhmlfHt963oTZ356pzaUVLSA0Ptu124+F9F0YdUM9izx+F7tfgb/AJrooXzHI5oDj7jra/XX4JHBqhvskfyuNx873CacOkHdkbkv+I6H43snDBp4/Y7vgTcfmu+rTRi0kQA/ENW/0XRh0lrxgNB/CbtPwuu+rTM9uIEdWG/0uux0LH3LCG/yO/S6M2mDPaYZB1a6x+V0+OClce61zH+DrH5XRmx5Dp3x52P52RBHTudqezcevdP56p7oQ3YskH8Wh+d0B8FO49+Psz+K9vqCuGhYBdozDxI/MFCfSU1/vIHtI94a/UFIUdK7VjyfM3/VcdQQnVzCfFrr2+t0m0EZP3cmY9C4H9bp3qRHtRB3i0/uU9kbxoyV7D+Fx/cp5ZOfaAkHw/UroDh7zoz0dt+ae6GYjVrZG+dv1QzG5nKSLyOn52Th2pHKRvj/ANUwyiPXK6P+U6fQrnrZd7MrX+BI/dMdWObezSP5T/VdbiQJsch8HW/dd9ahG8Rb4sd/VL1yLYSW8Hj+qReCLhrD4sdb9Vwvbzfb+e37pdjG/WzHeLXW/Ve/F7SSHVDnn8Mbj+g/VOaxt7iIA/ikeb/kU5z2s0kqGs/habfoUmticbtjdIfxPcbfUfon2cBq+OJo6E/mRZJskTtQXznwcSPyAR2VcjBZjI4h4uufkAhyYrY5Xzlx/Awn8gFxmKFvsRBn8TnW/IXXZMVAF5agMHRrsv1tdMbibN4oXSn8bnEfUhPdX1D/AH2RD+Ekn5kfooklayQm8jp3Do4u/SwQpKid4s1wZ4FxJ+QFlGebECaQvPJrnn8gERhlsBGxsbf43ZR8gLp7ou7eaqs0cmuyj52ulG6mZ/gtz/xBxA+ZGqO2zvamjYOjHG/zI/RdbLRsfZuWWUcg4vd+WiM28mt4oB1c4ud+VkpG0UIDp52vPLtCT8hay569G42iYAB78l2j5Wv+Sc18brmWYuH4R3W/K35lEZikQZlpyZANPuzZg+NrLhlnk9upyN/DGTf5kflZRpJGwHKyUB591ty930v80F0NZNfvtgb4nM78rD6rnqRhvI+YXG8kjrkfEj8kuymmH3Wo/wCJI8tHwFrn6Ln2U0kOmc6d3RzyGj/Tb80nNZmLImmaRu4Y/RvmbWC6MMfL/jyDKf8ALjeQPibXP0RDGyijaA5sbT7LGbk9AAFzJVTbu9Wj8XAv/Kw+qTBFStdZzW31c4uuT4kkaqO7EPWNKZwc3btnk5Phpd35eK4ymaHdp2vbS/8AEfuPIWsPguSvyv7NrjLNa4jYdQOpNtB5rrKAPIdVzdpzETT3B9O95n5KVLU0lNGZJZgxo5lx/ZBNUarm+nh/DmIkf5m3dHhv5KQybKxrGAMjGgaDYD6KJNib5HuipRmLTZ87nXYw9Bp3j4bDn0XIJ2U4NnkOcbue95LnHqTZKfGGU+Udr2sjzaOJpOZx+Wg6k7J1LMGydvUStkqLWFgcsY6N0+Z3P0VgcTjawue52VouSTYAddlBFWcUcHuikFGO8yNxsZejnC3s9Bz3PRTfXn69xx/1/wBFW12LOml9UivG+wMswJ+6aemntHl036J7Kump4mxQtbGxgs1uY6fRRa/H20UDpCO02a1jXavcdmjTmgUNd6sxzpg19RKc0rw42vyA02A0H9VOZjrAB3AfAH+ig0+Ox11a+ry/cxXhgubgn337cyMo8AeqJU4w6QdwtFtrHn8lncVqJ6uamo+0u2R3ayi/uNIPTm7KPmjSOqHa9of+b+ih1s0tFSzzue60THP9voL9ELDqSWkoaeJxcXMYM13n2tzy6kqWGuvqAR4vP7KLQR5sRxJ3ZtNpI4/aPKMHp/ErNtOXAdxo/wBX9FAxGkIr8MJewXmkFtecTvDwR5IS0ENsfEA/sqzFqOeqw+qjEls0bso8bacutlHjcaqlin7UkSMbJ7R5i/RR5Gva45ZDv1P7KuonPglqabtLCJ+dgJPsP1HLkcw+CO+V/OW9vH+ir6iX1asjmz9ya0Umux9w7ebfiFJ7X+L6/wBEKrBkY18Th28ZzMzHc8wdNjt/0ShrW1MLZGGzXcidQeYOm4K5K0TRuY/vMcLEXP7INPPKHmnlkLpGi7Xn/Mb123Gx/qjhs/J5+Z/ZRXRT4ec2c+qnfX/C8dvZ/LyUgsmAuXOPx/ogSunif2sJtLbvNcTaQeOm/QrsOICobfILg2c12haeh0Q6mKOpsSAxzfZe06j6fRRAAHiOXKx59kgnK/y038F2SibI0tdkc07gk/sg9lJSjvffRD3gbub56ajx3UmPI9oOYZSNwbg/RNFMIxeCVuX/AITiQPhpp+SLCGyXDZS17d2E2IXTh7i4vZOY3ncjY+Ytqusa5hDZ5TGb2Dge6fjbT4qT6lE8gve7MNnB1iPontcKe+YGZv4mnvDzFtfh8kdtTTVEY7rZGfzX/RIVHY+x32/gkeb/AAdb811uJQSHI5pY4j2HE6/umGRjD91IY/4SSW/Ll8EjiDGD728Y/Fclvztp8V37h3ea7IT7zOf0sU10uXdwePxMuD8rfkhFsVQSWytc4cwSHD6XQ3RzM2e2QdHGx+dk0ubJZkgyu5NefyNkuxlYe5JYfhc4kfldNMmW4maQOoOZv5J8cTXC8Ly0fwvuPlZE++bu3OOrH/oVxrC9xyHI7nZ1j8rIzfWYz7sg8TlP5LkhjefvGdm483aH5gJjoHt1a8EdH3/OyC/Nbvxiw5g5v0uuC4beOUgfz5h+SG+aW1nDOP4XfoQhteCbNlcw9MxH0IXSZWjUiT4kH8kzO1urs0R63I+o0Xe1fbuvDh4n9QE0tzXLmuB6tJP5BdbGXnuTF3gTf9Lrpp3H22Bw6h39EuyA0EpjP4XH9wn9g4jvZHj+a36Jpja0bmL4m35WXLSFvdex48/2CYWkH2cvi0/sEmyOJ7soPgTr+S6ZHg6safFrtfyX/9k=;movable=0;resizable=0;rotatable=0;deletable=0;editable=0;locked=1;connectable=0;" vertex="1" parent="1">
          <mxGeometry y="90" width="1024" height="576" as="geometry" />
        </mxCell>
      </root>
    </mxGraphModel>
  </diagram>
  <diagram id="avA-81Hdn0-oCYbt6NqN" name="Page-6">
    <mxGraphModel dx="983" dy="621" grid="1" gridSize="10" guides="1" tooltips="1" connect="1" arrows="1" fold="1" page="1" pageScale="1" pageWidth="850" pageHeight="1100" math="0" shadow="0">
      <root>
        <mxCell id="0" />
        <mxCell id="1" parent="0" />
        <mxCell id="zmZs_Os9UAwpE1u5fmf7-1" value="" style="ellipse;whiteSpace=wrap;html=1;fillColor=none;movable=1;resizable=1;rotatable=1;deletable=1;editable=1;locked=0;connectable=1;" vertex="1" parent="1">
          <mxGeometry x="170" y="230" width="491" height="320" as="geometry" />
        </mxCell>
        <mxCell id="zmZs_Os9UAwpE1u5fmf7-2" value="" style="shape=image;verticalLabelPosition=bottom;labelBackgroundColor=default;verticalAlign=top;aspect=fixed;imageAspect=0;image=data:image/svg+xml,PHN2ZyB4bWxuczp4bGluaz0iaHR0cDovL3d3dy53My5vcmcvMTk5OS94bGluayIgeG1sbnM9Imh0dHA6Ly93d3cudzMub3JnLzIwMDAvc3ZnIiB4bWw6c3BhY2U9InByZXNlcnZlIiB2aWV3Qm94PSIwIDAgNTU1LjM5NiA1NTUuMzk2IiBoZWlnaHQ9IjgwMHB4IiB3aWR0aD0iODAwcHgiIGlkPSJDYXBhXzEiIHZlcnNpb249IjEuMSIgZmlsbD0iIzAwMDAwMCI+JiN4YTs8Zz4mI3hhOwk8Zz4mI3hhOwkJPHBhdGggZD0iTTU1NC4wNDgsMTg1LjI3NGMtNy44MzgtMTkuNzQ2LTY3LjcyOS0yNi45NTgtOTcuODA5LTE1LjI0OGMtMTkuODI1LDcuNzE2LTc5LjA1OSwzMS40NDItNzkuMDU5LDMxLjQ0MmwtMTI4LjM3Myw1MS4wNCYjMTA7JiM5OyYjOTsmIzk7bC0xNDUuODU0LDU4LjAwNkw2LjU1NSwyNjguOTQ5Yy0yLjA3Mi0wLjg4MS00LjQ3Ny0wLjE4Ni01Ljc0NCwxLjY5N2MtMS4yNjcsMS44NjEtMS4wMzIsNC4zNzIsMC41NzIsNS45NTNsNjcuMzEzLDY3LjAzMiYjMTA7JiM5OyYjOTsmIzk7Yy0xLjQ4NSw3LjQwNCwxLjM1NCwxMS44NDEsMS4zNTQsMTEuODQxYy01LjYwNCwyLjU1Ny04LjI5OCw5LjA0My02LjAxNywxNC44MjRjMi4zMiw1LjgwNyw4Ljc3NCw4LjY3OSwxNC42MTksNi42MzgmIzEwOyYjOTsmIzk7JiM5O2MwLjY2MywwLjcwNiw0LjIzLDQuMTkzLDguMDQxLDcuODc5YzYuMTgyLDUuOTk4LDE1LjMwMiw3LjgyNSwyMy4zMjIsNC42NzlsMTk0LjUxMy03Ni4zMTJsLTQ3LjM3MSw1MS40ODYmIzEwOyYjOTsmIzk7JiM5O2MtMy4xODgsMy40NzgtMy4wOTksOC44MTUsMC4yMDMsMTIuMTg3YzEuNTQ2LDEuNTY0LDMuMTA4LDMuMTQ2LDQuNjY3LDQuNzIzYzMuMTI4LDMuMTQ2LDguMDcsMy40NzksMTEuNTk5LDAuODJsMTYwLjY2LTEyMS4zMzYmIzEwOyYjOTsmIzk7JiM5O2w1MS4xNzQtMjAuMTJDNTM0Ljk5OSwyMjIuMzE3LDU2MS44OTksMjA1LjAyNiw1NTQuMDQ4LDE4NS4yNzR6Ii8+JiN4YTsJCTxwYXRoIGQ9Ik0yMDMuODc3LDIzOC44N2w0OC4zNTYsMy41NGwxMTIuOTgxLTQ0LjkyNWwtMTYxLjQ2MSwxNy4yMDFjLTQuNDA1LDAuNDctNy43NzgsNC4xMDYtNy45MDcsOC41MzMmIzEwOyYjOTsmIzk7JiM5O2MtMC4wNjMsMi4yMTMtMC4xMjMsNC40MzMtMC4xNzUsNi42NEMxOTUuNTcxLDIzNC41NzEsMTk5LjE3NCwyMzguNTM0LDIwMy44NzcsMjM4Ljg3eiIvPiYjeGE7CTwvZz4mI3hhOzwvZz4mI3hhOzwvc3ZnPg==;rotation=30;" vertex="1" parent="1">
          <mxGeometry x="229" y="310" width="150" height="150" as="geometry" />
        </mxCell>
        <mxCell id="zmZs_Os9UAwpE1u5fmf7-3" value="" style="endArrow=classic;html=1;rounded=0;exitX=0.996;exitY=0.36;exitDx=0;exitDy=0;exitPerimeter=0;" edge="1" parent="1">
          <mxGeometry width="50" height="50" relative="1" as="geometry">
            <mxPoint x="379.9322900415623" y="401.0134665205268" as="sourcePoint" />
            <mxPoint x="421" y="407" as="targetPoint" />
          </mxGeometry>
        </mxCell>
        <mxCell id="zmZs_Os9UAwpE1u5fmf7-4" value="x̂&lt;sub&gt;b&lt;/sub&gt;" style="text;html=1;align=center;verticalAlign=middle;resizable=0;points=[];autosize=1;strokeColor=none;fillColor=none;fontStyle=3" vertex="1" parent="1">
          <mxGeometry x="409" y="393" width="40" height="30" as="geometry" />
        </mxCell>
        <mxCell id="zmZs_Os9UAwpE1u5fmf7-5" value="" style="endArrow=classic;html=1;rounded=0;exitX=0.996;exitY=0.36;exitDx=0;exitDy=0;exitPerimeter=0;" edge="1" parent="1">
          <mxGeometry width="50" height="50" relative="1" as="geometry">
            <mxPoint x="369.9322900415623" y="400.0034665205268" as="sourcePoint" />
            <mxPoint x="360" y="440" as="targetPoint" />
          </mxGeometry>
        </mxCell>
        <mxCell id="zmZs_Os9UAwpE1u5fmf7-6" value="&lt;div style=&quot;text-align: start;&quot;&gt;&lt;span style=&quot;background-color: initial; font-size: 0px; font-style: normal;&quot;&gt;&lt;font face=&quot;monospace&quot; color=&quot;rgba(0, 0, 0, 0)&quot;&gt;̂z&lt;/font&gt;&lt;/span&gt;&lt;/div&gt;" style="text;html=1;align=center;verticalAlign=middle;resizable=0;points=[];autosize=1;strokeColor=none;fillColor=none;fontStyle=2" vertex="1" parent="1">
          <mxGeometry x="370" y="423" width="20" height="30" as="geometry" />
        </mxCell>
        <mxCell id="zmZs_Os9UAwpE1u5fmf7-8" value="̂z&lt;sub&gt;b&lt;/sub&gt;" style="text;html=1;align=center;verticalAlign=middle;resizable=0;points=[];autosize=1;strokeColor=none;fillColor=none;rotation=15;fontStyle=1" vertex="1" parent="1">
          <mxGeometry x="337" y="436" width="40" height="30" as="geometry" />
        </mxCell>
        <mxCell id="zmZs_Os9UAwpE1u5fmf7-9" value="" style="endArrow=classic;html=1;rounded=0;" edge="1" parent="1">
          <mxGeometry width="50" height="50" relative="1" as="geometry">
            <mxPoint x="185" y="583" as="sourcePoint" />
            <mxPoint x="230" y="583" as="targetPoint" />
          </mxGeometry>
        </mxCell>
        <mxCell id="zmZs_Os9UAwpE1u5fmf7-10" value="" style="endArrow=none;dashed=1;html=1;dashPattern=1 3;strokeWidth=2;rounded=0;curved=1;" edge="1" parent="1">
          <mxGeometry width="50" height="50" relative="1" as="geometry">
            <mxPoint x="460" y="410" as="sourcePoint" />
            <mxPoint x="610" y="440" as="targetPoint" />
            <Array as="points">
              <mxPoint x="500" y="420" />
              <mxPoint x="530" y="440" />
            </Array>
          </mxGeometry>
        </mxCell>
        <mxCell id="zmZs_Os9UAwpE1u5fmf7-11" value="&lt;b&gt;̇x&lt;/b&gt; = f(&lt;b&gt;x&lt;/b&gt;,&lt;b&gt;u&lt;/b&gt;)" style="text;html=1;align=center;verticalAlign=middle;resizable=0;points=[];autosize=1;strokeColor=none;fillColor=none;fontSize=14;rotation=15;fontStyle=2" vertex="1" parent="1">
          <mxGeometry x="480" y="393" width="80" height="30" as="geometry" />
        </mxCell>
        <mxCell id="zmZs_Os9UAwpE1u5fmf7-12" value="" style="endArrow=classic;html=1;rounded=0;" edge="1" parent="1">
          <mxGeometry width="50" height="50" relative="1" as="geometry">
            <mxPoint x="185" y="583" as="sourcePoint" />
            <mxPoint x="185" y="540" as="targetPoint" />
          </mxGeometry>
        </mxCell>
        <mxCell id="zmZs_Os9UAwpE1u5fmf7-13" value="E" style="text;html=1;align=center;verticalAlign=middle;resizable=0;points=[];autosize=1;strokeColor=none;fillColor=none;fontStyle=1" vertex="1" parent="1">
          <mxGeometry x="450" y="810" width="30" height="30" as="geometry" />
        </mxCell>
        <mxCell id="zmZs_Os9UAwpE1u5fmf7-14" value="U" style="text;html=1;align=center;verticalAlign=middle;resizable=0;points=[];autosize=1;strokeColor=none;fillColor=none;fontStyle=1" vertex="1" parent="1">
          <mxGeometry x="170" y="510" width="30" height="30" as="geometry" />
        </mxCell>
        <mxCell id="zmZs_Os9UAwpE1u5fmf7-15" value="" style="shape=flexArrow;endArrow=classic;html=1;rounded=0;" edge="1" parent="1">
          <mxGeometry width="50" height="50" relative="1" as="geometry">
            <mxPoint x="540" y="260" as="sourcePoint" />
            <mxPoint x="590" y="210" as="targetPoint" />
          </mxGeometry>
        </mxCell>
        <mxCell id="zmZs_Os9UAwpE1u5fmf7-16" value="V&lt;sub style=&quot;font-size: 19px;&quot;&gt;w&lt;/sub&gt;" style="text;html=1;align=center;verticalAlign=middle;resizable=0;points=[];autosize=1;strokeColor=none;fillColor=none;fontSize=19;fontStyle=1" vertex="1" parent="1">
          <mxGeometry x="600" y="190" width="50" height="40" as="geometry" />
        </mxCell>
      </root>
    </mxGraphModel>
  </diagram>
</mxfile>
